<svg width="232" height="232" viewBox="0 0 232 232" fill="none" xmlns="http://www.w3.org/2000/svg">
<path d="M196.398 40.1707C181.611 33.3859 165.754 28.3871 149.175 25.5241C148.873 25.4688 148.571 25.6069 148.416 25.8831C146.377 29.5102 144.118 34.242 142.536 37.9612C124.704 35.2916 106.963 35.2916 89.4971 37.9612C87.9149 34.1593 85.574 29.5102 83.5256 25.8831C83.37 25.6161 83.0684 25.4781 82.7665 25.5241C66.1965 28.378 50.3397 33.3767 35.5437 40.1707C35.4156 40.226 35.3058 40.3181 35.233 40.4377C5.15612 85.3719 -3.08319 129.202 0.958741 172.488C0.97703 172.7 1.09591 172.902 1.26051 173.031C21.1044 187.604 40.3265 196.451 59.1917 202.315C59.4936 202.407 59.8135 202.297 60.0057 202.048C64.4682 195.954 68.4462 189.528 71.8569 182.771C72.0582 182.375 71.8661 181.905 71.4547 181.749C65.1449 179.355 59.1368 176.437 53.3574 173.123C52.9002 172.856 52.8637 172.202 53.2842 171.889C54.5004 170.978 55.7169 170.03 56.8782 169.072C57.0883 168.897 57.3811 168.861 57.6281 168.971C95.5964 186.306 136.702 186.306 174.222 168.971C174.469 168.851 174.762 168.888 174.981 169.063C176.143 170.021 177.359 170.978 178.584 171.889C179.005 172.202 178.977 172.856 178.52 173.123C172.741 176.501 166.733 179.355 160.414 181.74C160.002 181.896 159.819 182.375 160.021 182.771C163.504 189.519 167.482 195.944 171.863 202.039C172.046 202.297 172.375 202.407 172.677 202.315C191.633 196.451 210.855 187.604 230.699 173.031C230.873 172.902 230.983 172.709 231.001 172.497C235.838 122.453 222.899 78.983 196.699 40.4469C196.635 40.3181 196.526 40.226 196.398 40.1707ZM77.5269 146.131C66.0958 146.131 56.6769 135.636 56.6769 122.748C56.6769 109.86 65.9132 99.3651 77.5269 99.3651C89.2318 99.3651 98.5595 109.952 98.3765 122.748C98.3765 135.636 89.1403 146.131 77.5269 146.131ZM154.616 146.131C143.185 146.131 133.766 135.636 133.766 122.748C133.766 109.86 143.002 99.3651 154.616 99.3651C166.321 99.3651 175.648 109.952 175.466 122.748C175.466 135.636 166.321 146.131 154.616 146.131Z" fill="white"/>
</svg>
