<svg width="64" height="39" viewBox="0 0 64 39" fill="none" xmlns="http://www.w3.org/2000/svg">
<g clip-path="url(#clip0_1_14)">
<path d="M6.54545 6.09375C6.4858 5.88636 6.40199 5.70312 6.29403 5.54403C6.18608 5.3821 6.05398 5.24574 5.89773 5.13494C5.74432 5.02131 5.56818 4.93466 5.36932 4.875C5.1733 4.81534 4.95597 4.78551 4.71733 4.78551C4.27131 4.78551 3.87926 4.89631 3.54119 5.1179C3.20597 5.33949 2.9446 5.66193 2.7571 6.08523C2.5696 6.50568 2.47585 7.01989 2.47585 7.62784C2.47585 8.2358 2.56818 8.75284 2.75284 9.17898C2.9375 9.60511 3.19886 9.9304 3.53693 10.1548C3.875 10.3764 4.27415 10.4872 4.73438 10.4872C5.15199 10.4872 5.50852 10.4134 5.80398 10.2656C6.10227 10.1151 6.32955 9.90341 6.4858 9.63068C6.64489 9.35795 6.72443 9.03551 6.72443 8.66335L7.09943 8.71875H4.84943V7.32955H8.50142V8.42898C8.50142 9.19602 8.33949 9.85511 8.01562 10.4062C7.69176 10.9545 7.24574 11.3778 6.67756 11.6761C6.10938 11.9716 5.45881 12.1193 4.72585 12.1193C3.90767 12.1193 3.18892 11.9389 2.5696 11.5781C1.95028 11.2145 1.46733 10.6989 1.12074 10.0312C0.776989 9.3608 0.605114 8.56534 0.605114 7.64489C0.605114 6.9375 0.707386 6.30682 0.911932 5.75284C1.11932 5.19602 1.40909 4.72443 1.78125 4.33807C2.15341 3.9517 2.58665 3.65767 3.08097 3.45597C3.57528 3.25426 4.1108 3.15341 4.6875 3.15341C5.18182 3.15341 5.64205 3.22585 6.06818 3.37074C6.49432 3.51278 6.87216 3.71449 7.2017 3.97585C7.53409 4.23722 7.8054 4.5483 8.01562 4.90909C8.22585 5.26705 8.3608 5.66193 8.42045 6.09375H6.54545ZM9.88743 12V3.27273H15.7681V4.79403H11.7326V6.87358H15.4656V8.39489H11.7326V10.4787H15.7852V12H9.88743ZM24.5348 3.27273V12H22.9411L19.1442 6.5071H19.0803V12H17.2351V3.27273H18.8544L22.6214 8.76136H22.6982V3.27273H24.5348ZM26.0593 12V3.27273H31.94V4.79403H27.9045V6.87358H31.6374V8.39489H27.9045V10.4787H31.957V12H26.0593ZM33.407 12V3.27273H36.8501C37.5092 3.27273 38.0717 3.39062 38.5376 3.62642C39.0064 3.85937 39.3629 4.19034 39.6072 4.61932C39.8544 5.04545 39.978 5.54687 39.978 6.12358C39.978 6.70312 39.853 7.2017 39.603 7.61932C39.353 8.03409 38.9908 8.35227 38.5163 8.57386C38.0447 8.79545 37.4737 8.90625 36.8033 8.90625H34.4979V7.4233H36.505C36.8572 7.4233 37.1499 7.375 37.3828 7.27841C37.6158 7.18182 37.7891 7.03693 37.9027 6.84375C38.0192 6.65057 38.0774 6.41051 38.0774 6.12358C38.0774 5.83381 38.0192 5.58949 37.9027 5.39062C37.7891 5.19176 37.6143 5.04119 37.3786 4.93892C37.1456 4.83381 36.8516 4.78125 36.4964 4.78125H35.2521V12H33.407ZM38.12 8.02841L40.2891 12H38.2521L36.13 8.02841H38.12ZM42.7862 12H40.8089L43.8217 3.27273H46.1996L49.2081 12H47.2308L45.0447 5.26705H44.9766L42.7862 12ZM42.6626 8.5696H47.3331V10.0099H42.6626V8.5696ZM48.8597 4.79403V3.27273H56.0273V4.79403H53.3555V12H51.5316V4.79403H48.8597ZM57.2077 12V3.27273H63.0884V4.79403H59.0529V6.87358H62.7859V8.39489H59.0529V10.4787H63.1055V12H57.2077Z" fill="white"/>
<path d="M1.51705 33V15.5455H5.20739V29.9574H12.6903V33H1.51705ZM18.5881 33H14.6335L20.6591 15.5455H25.4148L31.4318 33H27.4773L23.1051 19.5341H22.9688L18.5881 33ZM18.3409 26.1392H27.6818V29.0199H18.3409V26.1392ZM33.5327 33V15.5455H40.5213C41.8054 15.5455 42.8764 15.7358 43.7344 16.1165C44.5923 16.4972 45.2372 17.0256 45.669 17.7017C46.1009 18.3722 46.3168 19.1449 46.3168 20.0199C46.3168 20.7017 46.1804 21.3011 45.9077 21.8182C45.6349 22.3295 45.2599 22.75 44.7827 23.0795C44.3111 23.4034 43.7713 23.6335 43.1634 23.7699V23.9403C43.8281 23.9687 44.4503 24.1562 45.0298 24.5028C45.6151 24.8494 46.0895 25.3352 46.4531 25.9602C46.8168 26.5795 46.9986 27.3182 46.9986 28.1761C46.9986 29.1023 46.7685 29.929 46.3082 30.6562C45.8537 31.3778 45.1804 31.9489 44.2884 32.3693C43.3963 32.7898 42.2969 33 40.9901 33H33.5327ZM37.223 29.983H40.2315C41.2599 29.983 42.0099 29.7869 42.4815 29.3949C42.9531 28.9972 43.1889 28.4687 43.1889 27.8097C43.1889 27.3267 43.0724 26.9006 42.8395 26.5312C42.6065 26.1619 42.2741 25.8722 41.8423 25.6619C41.4162 25.4517 40.9077 25.3466 40.3168 25.3466H37.223V29.983ZM37.223 22.8494H39.9588C40.4645 22.8494 40.9134 22.7614 41.3054 22.5852C41.7031 22.4034 42.0156 22.1477 42.2429 21.8182C42.4759 21.4886 42.5923 21.0938 42.5923 20.6335C42.5923 20.0028 42.3679 19.4943 41.919 19.108C41.4759 18.7216 40.8452 18.5284 40.027 18.5284H37.223V22.8494ZM58.8686 20.5653C58.8004 19.8778 58.5078 19.3437 57.9908 18.9631C57.4737 18.5824 56.772 18.392 55.8857 18.392C55.2834 18.392 54.7749 18.4773 54.3601 18.6477C53.9453 18.8125 53.6271 19.0426 53.4055 19.3381C53.1896 19.6335 53.0817 19.9688 53.0817 20.3438C53.0703 20.6562 53.1357 20.929 53.2777 21.1619C53.4254 21.3949 53.6271 21.5966 53.8828 21.767C54.1385 21.9318 54.4339 22.0767 54.7692 22.2017C55.1044 22.321 55.4624 22.4233 55.843 22.5085L57.4112 22.8835C58.1726 23.054 58.8714 23.2812 59.5078 23.5653C60.1442 23.8494 60.6953 24.1989 61.1612 24.6136C61.6271 25.0284 61.9879 25.517 62.2436 26.0795C62.505 26.642 62.6385 27.2869 62.6442 28.0142C62.6385 29.0824 62.3658 30.0085 61.826 30.7926C61.2919 31.571 60.5192 32.1761 59.5078 32.608C58.5021 33.0341 57.2891 33.2472 55.8686 33.2472C54.4595 33.2472 53.2322 33.0312 52.1868 32.5994C51.147 32.1676 50.3345 31.5284 49.7493 30.6818C49.1697 29.8295 48.8658 28.7756 48.8374 27.5199H52.4084C52.4482 28.1051 52.6158 28.5937 52.9112 28.9858C53.2124 29.3722 53.6129 29.6648 54.1129 29.8636C54.6186 30.0568 55.1896 30.1534 55.826 30.1534C56.451 30.1534 56.9936 30.0625 57.4538 29.8807C57.9197 29.6989 58.2805 29.446 58.5362 29.1222C58.7919 28.7983 58.9197 28.4261 58.9197 28.0057C58.9197 27.6136 58.8033 27.2841 58.5703 27.017C58.343 26.75 58.0078 26.5227 57.5646 26.3352C57.1271 26.1477 56.5902 25.9773 55.9538 25.8239L54.0533 25.3466C52.5817 24.9886 51.4197 24.429 50.5675 23.6676C49.7152 22.9062 49.2919 21.8807 49.2976 20.5909C49.2919 19.5341 49.5732 18.6108 50.1413 17.821C50.7152 17.0312 51.5021 16.4148 52.5021 15.9716C53.5021 15.5284 54.6385 15.3068 55.9112 15.3068C57.2067 15.3068 58.3374 15.5284 59.3033 15.9716C60.2749 16.4148 61.0305 17.0312 61.5703 17.821C62.1101 18.6108 62.3885 19.5256 62.4055 20.5653H58.8686Z" fill="white"/>
</g>
<defs>
<clipPath id="clip0_1_14">
<rect width="64" height="39" fill="white"/>
</clipPath>
</defs>
</svg>
