<svg width="2253" height="421" viewBox="0 0 2253 421" fill="none" xmlns="http://www.w3.org/2000/svg">
<path d="M1276.77 94.712H1275.77V95.6754L1276.73 95.7113L1276.77 94.712ZM1276.77 93.432L1276.73 92.4328L1275.77 92.4721V93.432H1276.77ZM1215.84 53.24V52.24H1214.84V53.24H1215.84ZM1215.84 139H1214.84V140H1215.84V139ZM1239.78 74.872V73.872H1238.78V74.872H1239.78ZM1239.78 85.752H1238.78V86.752H1239.78V85.752ZM1239.78 105.464V104.464H1238.78V105.464H1239.78ZM1239.78 117.368H1238.78V118.368H1239.78V117.368ZM1273.31 140C1283.69 140 1291.17 137.635 1296.06 133.266C1300.97 128.878 1303.11 122.616 1303.11 115.192H1301.11C1301.11 122.232 1299.09 127.874 1294.73 131.774C1290.34 135.693 1283.42 138 1273.31 138V140ZM1303.11 115.192C1303.11 108.993 1300.97 103.735 1296.52 99.9651C1292.1 96.2185 1285.51 94.0376 1276.81 93.7127L1276.73 95.7113C1285.17 96.0264 1291.26 98.1335 1295.23 101.491C1299.16 104.825 1301.11 109.487 1301.11 115.192H1303.11ZM1277.77 94.712V93.432H1275.77V94.712H1277.77ZM1276.81 94.4312C1284.77 94.105 1290.39 91.9451 1294.02 88.2974C1297.66 84.6437 1299.14 79.6489 1299.14 73.976H1297.14C1297.14 79.3111 1295.75 83.7243 1292.6 86.8866C1289.45 90.0548 1284.39 92.119 1276.73 92.4328L1276.81 94.4312ZM1299.14 73.976C1299.14 67.0044 1296.74 61.4983 1291.82 57.771C1286.95 54.0805 1279.75 52.24 1270.37 52.24V54.24C1279.54 54.24 1286.23 56.0475 1290.61 59.365C1294.94 62.6457 1297.14 67.5076 1297.14 73.976H1299.14ZM1270.37 52.24H1215.84V54.24H1270.37V52.24ZM1214.84 53.24V139H1216.84V53.24H1214.84ZM1215.84 140H1273.31V138H1215.84V140ZM1239.78 75.872H1267.17V73.872H1239.78V75.872ZM1267.17 75.872C1269.61 75.872 1271.05 76.2588 1271.87 76.918C1272.64 77.5281 1273.08 78.5391 1273.08 80.376H1275.08C1275.08 78.2449 1274.56 76.5039 1273.12 75.354C1271.74 74.2532 1269.72 73.872 1267.17 73.872V75.872ZM1273.08 80.376C1273.08 82.2918 1272.73 83.2523 1272.11 83.8025C1271.44 84.3888 1270.21 84.752 1267.81 84.752V86.752C1270.27 86.752 1272.17 86.4112 1273.43 85.3015C1274.73 84.1557 1275.08 82.4282 1275.08 80.376H1273.08ZM1267.81 84.752H1239.78V86.752H1267.81V84.752ZM1240.78 85.752V74.872H1238.78V85.752H1240.78ZM1239.78 106.464H1270.24V104.464H1239.78V106.464ZM1270.24 106.464C1273.21 106.464 1274.77 106.776 1275.62 107.427C1276.37 108.004 1276.79 109.041 1276.79 111.352H1278.79C1278.79 108.927 1278.38 107.02 1276.83 105.837C1275.38 104.728 1273.16 104.464 1270.24 104.464V106.464ZM1276.79 111.352C1276.79 113.716 1276.34 114.794 1275.57 115.391C1274.7 116.057 1273.14 116.368 1270.24 116.368V118.368C1273.1 118.368 1275.32 118.103 1276.78 116.977C1278.34 115.782 1278.79 113.852 1278.79 111.352H1276.79ZM1270.24 116.368H1239.78V118.368H1270.24V116.368ZM1240.78 117.368V105.464H1238.78V117.368H1240.78ZM1394.26 53.24H1395.26V52.24H1394.26V53.24ZM1370.19 53.24V52.24H1369.19V53.24H1370.19ZM1330.77 53.24H1331.77V52.24H1330.77V53.24ZM1306.7 53.24V52.24H1305.7V53.24H1306.7ZM1350.48 141.28C1365.6 141.28 1376.82 137.629 1384.27 130.944C1391.73 124.244 1395.26 114.63 1395.26 103.032H1393.26C1393.26 114.218 1389.87 123.228 1382.93 129.456C1375.98 135.699 1365.31 139.28 1350.48 139.28V141.28ZM1395.26 103.032V53.24H1393.26V103.032H1395.26ZM1394.26 52.24H1370.19V54.24H1394.26V52.24ZM1369.19 53.24V101.112H1371.19V53.24H1369.19ZM1369.19 101.112C1369.19 107.174 1368.31 110.712 1365.79 112.844C1363.2 115.032 1358.62 115.984 1350.48 115.984V117.984C1358.59 117.984 1363.87 117.08 1367.08 114.372C1370.35 111.608 1371.19 107.21 1371.19 101.112H1369.19ZM1350.48 115.984C1342.34 115.984 1337.76 115.032 1335.17 112.844C1332.65 110.712 1331.77 107.174 1331.77 101.112H1329.77C1329.77 107.21 1330.61 111.608 1333.88 114.372C1337.09 117.08 1342.37 117.984 1350.48 117.984V115.984ZM1331.77 101.112V53.24H1329.77V101.112H1331.77ZM1330.77 52.24H1306.7V54.24H1330.77V52.24ZM1305.7 53.24V103.032H1307.7V53.24H1305.7ZM1305.7 103.032C1305.7 114.63 1309.23 124.244 1316.69 130.944C1324.14 137.629 1335.36 141.28 1350.48 141.28V139.28C1335.65 139.28 1324.98 135.699 1318.03 129.456C1311.09 123.228 1307.7 114.218 1307.7 103.032H1305.7ZM1425.53 139V140H1426.53V139H1425.53ZM1425.53 53.24H1426.53V52.24H1425.53V53.24ZM1401.47 53.24V52.24H1400.47V53.24H1401.47ZM1401.47 139H1400.47V140H1401.47V139ZM1426.53 139V53.24H1424.53V139H1426.53ZM1425.53 52.24H1401.47V54.24H1425.53V52.24ZM1400.47 53.24V139H1402.47V53.24H1400.47ZM1401.47 140H1425.53V138H1401.47V140ZM1506.82 139V140H1507.82V139H1506.82ZM1506.82 117.368H1507.82V116.368H1506.82V117.368ZM1457.28 117.368H1456.28V118.368H1457.28V117.368ZM1457.28 53.24H1458.28V52.24H1457.28V53.24ZM1433.22 53.24V52.24H1432.22V53.24H1433.22ZM1433.22 139H1432.22V140H1433.22V139ZM1507.82 139V117.368H1505.82V139H1507.82ZM1506.82 116.368H1457.28V118.368H1506.82V116.368ZM1458.28 117.368V53.24H1456.28V117.368H1458.28ZM1457.28 52.24H1433.22V54.24H1457.28V52.24ZM1432.22 53.24V139H1434.22V53.24H1432.22ZM1433.22 140H1506.82V138H1433.22V140ZM1514.62 53.24V52.24H1513.62V53.24H1514.62ZM1514.62 139H1513.62V140H1514.62V139ZM1538.69 117.368H1537.69V118.368H1538.69V117.368ZM1538.69 74.872V73.872H1537.69V74.872H1538.69ZM1558.02 140C1572.34 140 1584.16 136.013 1592.4 128.474C1600.66 120.925 1605.22 109.918 1605.22 96.12H1603.22C1603.22 109.458 1598.83 119.891 1591.05 126.998C1583.27 134.115 1571.98 138 1558.02 138V140ZM1605.22 96.12C1605.22 82.3223 1600.66 71.3153 1592.4 63.7659C1584.16 56.2274 1572.34 52.24 1558.02 52.24V54.24C1571.98 54.24 1583.27 58.1246 1591.05 65.2421C1598.83 72.3487 1603.22 82.7817 1603.22 96.12H1605.22ZM1558.02 52.24H1514.62V54.24H1558.02V52.24ZM1513.62 53.24V139H1515.62V53.24H1513.62ZM1514.62 140H1558.02V138H1514.62V140ZM1558.02 75.872C1561.82 75.872 1564.92 75.9932 1567.46 76.4577C1569.99 76.9201 1571.88 77.7099 1573.3 78.9911C1576.15 81.5626 1577.5 86.441 1577.5 96.12H1579.5C1579.5 86.471 1578.21 80.7254 1574.64 77.5049C1572.84 75.8901 1570.56 74.9919 1567.82 74.4903C1565.09 73.9908 1561.83 73.872 1558.02 73.872V75.872ZM1577.5 96.12C1577.5 105.799 1576.15 110.677 1573.3 113.249C1571.88 114.53 1569.99 115.32 1567.46 115.782C1564.92 116.247 1561.82 116.368 1558.02 116.368V118.368C1561.83 118.368 1565.09 118.249 1567.82 117.75C1570.56 117.248 1572.84 116.35 1574.64 114.735C1578.21 111.515 1579.5 105.769 1579.5 96.12H1577.5ZM1558.02 116.368H1538.69V118.368H1558.02V116.368ZM1539.69 117.368V74.872H1537.69V117.368H1539.69ZM1538.69 75.872H1558.02V73.872H1538.69V75.872ZM1641.82 114.424H1642.82V113.424H1641.82V114.424ZM1610.59 114.424V113.424H1609.59V114.424H1610.59ZM1610.59 139H1609.59V140H1610.59V139ZM1624.29 139H1625.29V138H1624.29V139ZM1611.74 145.4V144.4H1610.74V145.4H1611.74ZM1611.74 160.248H1610.74V161.248H1611.74V160.248ZM1620.57 161.248C1627.44 161.248 1633.02 159.615 1636.9 156.145C1640.8 152.658 1642.82 147.457 1642.82 140.664H1640.82C1640.82 147.055 1638.94 151.646 1635.57 154.655C1632.19 157.681 1627.15 159.248 1620.57 159.248V161.248ZM1642.82 140.664V114.424H1640.82V140.664H1642.82ZM1641.82 113.424H1610.59V115.424H1641.82V113.424ZM1609.59 114.424V139H1611.59V114.424H1609.59ZM1610.59 140H1624.29V138H1610.59V140ZM1623.29 139V140.792H1625.29V139H1623.29ZM1623.29 140.792C1623.29 142.571 1622.94 143.362 1622.52 143.757C1622.08 144.167 1621.3 144.4 1619.81 144.4V146.4C1621.38 146.4 1622.85 146.185 1623.88 145.219C1624.93 144.238 1625.29 142.725 1625.29 140.792H1623.29ZM1619.81 144.4H1611.74V146.4H1619.81V144.4ZM1610.74 145.4V160.248H1612.74V145.4H1610.74ZM1611.74 161.248H1620.57V159.248H1611.74V161.248ZM1759.5 101.496H1760.5V100.496H1759.5V101.496ZM1732.62 101.496V100.496H1731.62V101.496H1732.62ZM1732.62 90.744H1731.62V91.744H1732.62V90.744ZM1759.5 90.744V91.744H1760.5V90.744H1759.5ZM1713.42 141.28C1727.96 141.28 1739.73 137.823 1747.88 131.351C1756.06 124.856 1760.5 115.404 1760.5 103.672H1758.5C1758.5 114.852 1754.3 123.704 1746.64 129.785C1738.95 135.889 1727.68 139.28 1713.42 139.28V141.28ZM1760.5 103.672V101.496H1758.5V103.672H1760.5ZM1759.5 100.496H1732.62V102.496H1759.5V100.496ZM1731.62 101.496V103.672H1733.62V101.496H1731.62ZM1731.62 103.672C1731.62 108.391 1730.51 111.397 1727.94 113.301C1725.29 115.271 1720.88 116.24 1713.8 116.24V118.24C1720.94 118.24 1725.93 117.289 1729.14 114.907C1732.43 112.459 1733.62 108.681 1733.62 103.672H1731.62ZM1713.8 116.24C1705.09 116.24 1699.93 115.191 1696.89 112.335C1693.86 109.499 1692.66 104.623 1692.66 96.12H1690.66C1690.66 104.641 1691.82 110.325 1695.52 113.793C1699.2 117.241 1705.11 118.24 1713.8 118.24V116.24ZM1692.66 96.12C1692.66 87.617 1693.86 82.7414 1696.89 79.9053C1699.93 77.0493 1705.09 76 1713.8 76V74C1705.11 74 1699.2 74.9987 1695.52 78.4467C1691.82 81.9145 1690.66 87.599 1690.66 96.12H1692.66ZM1713.8 76C1720.88 76 1725.29 76.9685 1727.94 78.9386C1730.51 80.8431 1731.62 83.8493 1731.62 88.568H1733.62C1733.62 83.5587 1732.43 79.7809 1729.14 77.3334C1725.93 74.9515 1720.94 74 1713.8 74V76ZM1731.62 88.568V90.744H1733.62V88.568H1731.62ZM1732.62 91.744H1759.5V89.744H1732.62V91.744ZM1760.5 90.744V88.568H1758.5V90.744H1760.5ZM1760.5 88.568C1760.5 76.836 1756.06 67.3839 1747.88 60.8888C1739.73 54.417 1727.96 50.96 1713.42 50.96V52.96C1727.68 52.96 1738.95 56.351 1746.64 62.4552C1754.3 68.5361 1758.5 77.388 1758.5 88.568H1760.5ZM1713.42 50.96C1698.32 50.96 1686.21 55.3711 1677.87 63.2825C1669.52 71.199 1665.06 82.5193 1665.06 96.12H1667.06C1667.06 82.9687 1671.36 72.209 1679.24 64.7335C1687.13 57.2529 1698.7 52.96 1713.42 52.96V50.96ZM1665.06 96.12C1665.06 109.721 1669.52 121.041 1677.87 128.957C1686.21 136.869 1698.32 141.28 1713.42 141.28V139.28C1698.7 139.28 1687.13 134.987 1679.24 127.507C1671.36 120.031 1667.06 109.271 1667.06 96.12H1665.06ZM1789.9 139V140H1790.9V139H1789.9ZM1789.9 109.816V108.816H1788.9V109.816H1789.9ZM1814.74 118.008L1813.83 118.441L1813.84 118.446L1814.74 118.008ZM1824.98 139L1824.08 139.438L1824.35 140H1824.98V139ZM1852.75 139V140H1854.36L1853.65 138.557L1852.75 139ZM1842.13 117.496L1841.23 117.936L1841.23 117.939L1842.13 117.496ZM1827.28 104.44H1826.28V105.213L1827.03 105.408L1827.28 104.44ZM1827.28 103.16L1827.16 102.168L1826.28 102.277V103.16H1827.28ZM1765.84 53.24V52.24H1764.84V53.24H1765.84ZM1765.84 139H1764.84V140H1765.84V139ZM1789.9 74.872V73.872H1788.9V74.872H1789.9ZM1789.9 91.896H1788.9V92.896H1789.9V91.896ZM1790.9 139V109.816H1788.9V139H1790.9ZM1789.9 110.816H1799.76V108.816H1789.9V110.816ZM1799.76 110.816C1804.41 110.816 1807.16 111.271 1809.11 112.381C1811.02 113.472 1812.32 115.284 1813.83 118.441L1815.64 117.575C1814.08 114.332 1812.56 112.048 1810.09 110.643C1807.66 109.257 1804.45 108.816 1799.76 108.816V110.816ZM1813.84 118.446L1824.08 139.438L1825.87 138.562L1815.63 117.57L1813.84 118.446ZM1824.98 140H1852.75V138H1824.98V140ZM1853.65 138.557L1843.02 117.053L1841.23 117.939L1851.86 139.443L1853.65 138.557ZM1843.03 117.056C1841.42 113.78 1839.85 110.957 1837.52 108.669C1835.16 106.361 1832.08 104.658 1827.53 103.472L1827.03 105.408C1831.32 106.526 1834.06 108.087 1836.12 110.099C1838.19 112.131 1839.64 114.684 1841.23 117.936L1843.03 117.056ZM1828.28 104.44V103.16H1826.28V104.44H1828.28ZM1827.4 104.152C1835.73 103.112 1841.77 100.525 1845.74 96.3263C1849.71 92.116 1851.45 86.4288 1851.45 79.48H1849.45C1849.45 86.0991 1847.8 91.228 1844.28 94.9537C1840.75 98.6913 1835.22 101.16 1827.16 102.168L1827.4 104.152ZM1851.45 79.48C1851.45 70.8353 1848.36 63.9609 1842.27 59.2791C1836.22 54.6294 1827.33 52.24 1815.89 52.24V54.24C1827.1 54.24 1835.49 56.5866 1841.05 60.8649C1846.58 65.1111 1849.45 71.3567 1849.45 79.48H1851.45ZM1815.89 52.24H1765.84V54.24H1815.89V52.24ZM1764.84 53.24V139H1766.84V53.24H1764.84ZM1765.84 140H1789.9V138H1765.84V140ZM1789.9 75.872H1815.63V73.872H1789.9V75.872ZM1815.63 75.872C1819.15 75.872 1821.21 76.3065 1822.43 77.3209C1823.6 78.2877 1824.23 80.0019 1824.23 83.32H1826.23C1826.23 79.8541 1825.59 77.3443 1823.71 75.7831C1821.89 74.2695 1819.16 73.872 1815.63 73.872V75.872ZM1824.23 83.32C1824.23 86.9189 1823.58 88.6411 1822.44 89.5671C1821.23 90.5486 1819.18 90.896 1815.63 90.896V92.896C1819.12 92.896 1821.87 92.6034 1823.7 91.1209C1825.6 89.5829 1826.23 87.017 1826.23 83.32H1824.23ZM1815.63 90.896H1789.9V92.896H1815.63V90.896ZM1790.9 91.896V74.872H1788.9V91.896H1790.9ZM1932.75 139V140H1933.75V139H1932.75ZM1932.75 117.368H1933.75V116.368H1932.75V117.368ZM1880.65 117.368H1879.65V118.368H1880.65V117.368ZM1880.65 106.616V105.616H1879.65V106.616H1880.65ZM1930.83 106.616V107.616H1931.83V106.616H1930.83ZM1930.83 85.112H1931.83V84.112H1930.83V85.112ZM1880.65 85.112H1879.65V86.112H1880.65V85.112ZM1880.65 74.872V73.872H1879.65V74.872H1880.65ZM1932.75 74.872V75.872H1933.75V74.872H1932.75ZM1932.75 53.24H1933.75V52.24H1932.75V53.24ZM1856.59 53.24V52.24H1855.59V53.24H1856.59ZM1856.59 139H1855.59V140H1856.59V139ZM1933.75 139V117.368H1931.75V139H1933.75ZM1932.75 116.368H1880.65V118.368H1932.75V116.368ZM1881.65 117.368V106.616H1879.65V117.368H1881.65ZM1880.65 107.616H1930.83V105.616H1880.65V107.616ZM1931.83 106.616V85.112H1929.83V106.616H1931.83ZM1930.83 84.112H1880.65V86.112H1930.83V84.112ZM1881.65 85.112V74.872H1879.65V85.112H1881.65ZM1880.65 75.872H1932.75V73.872H1880.65V75.872ZM1933.75 74.872V53.24H1931.75V74.872H1933.75ZM1932.75 52.24H1856.59V54.24H1932.75V52.24ZM1855.59 53.24V139H1857.59V53.24H1855.59ZM1856.59 140H1932.75V138H1856.59V140ZM1961.48 139V140H1962.14L1962.4 139.387L1961.48 139ZM1968.13 123.128V122.128H1967.47L1967.21 122.741L1968.13 123.128ZM2008.84 123.128L2009.76 122.748L2009.51 122.128H2008.84V123.128ZM2015.37 139L2014.44 139.38L2014.7 140H2015.37V139ZM2043.01 139V140H2044.54L2043.93 138.603L2043.01 139ZM2005.89 53.24L2006.81 52.8428L2006.55 52.24H2005.89V53.24ZM1971.46 53.24V52.24H1970.8L1970.54 52.8439L1971.46 53.24ZM1934.47 139L1933.55 138.604L1932.95 140H1934.47V139ZM1982.21 89.464L1983.14 89.8472L1983.14 89.8335L1983.15 89.8196L1982.21 89.464ZM1987.72 75V74H1987.03L1986.78 74.6443L1987.72 75ZM1989.38 75L1990.31 74.6372L1990.07 74H1989.38V75ZM1995.01 89.464L1994.08 89.8268L1994.09 89.8371L1994.09 89.8472L1995.01 89.464ZM2000.01 101.496V102.496H2001.5L2000.93 101.113L2000.01 101.496ZM1977.22 101.496L1976.3 101.113L1975.72 102.496H1977.22V101.496ZM1962.4 139.387L1969.06 123.515L1967.21 122.741L1960.56 138.613L1962.4 139.387ZM1968.13 124.128H2008.84V122.128H1968.13V124.128ZM2007.91 123.508L2014.44 139.38L2016.29 138.62L2009.76 122.748L2007.91 123.508ZM2015.37 140H2043.01V138H2015.37V140ZM2043.93 138.603L2006.81 52.8428L2004.98 53.6372L2042.1 139.397L2043.93 138.603ZM2005.89 52.24H1971.46V54.24H2005.89V52.24ZM1970.54 52.8439L1933.55 138.604L1935.39 139.396L1972.38 53.6361L1970.54 52.8439ZM1934.47 140H1961.48V138H1934.47V140ZM1983.15 89.8196L1988.65 75.3557L1986.78 74.6443L1981.28 89.1083L1983.15 89.8196ZM1987.72 76H1989.38V74H1987.72V76ZM1988.45 75.3628L1994.08 89.8268L1995.95 89.1012L1990.31 74.6372L1988.45 75.3628ZM1994.09 89.8472L1999.08 101.879L2000.93 101.113L1995.94 89.0808L1994.09 89.8472ZM2000.01 100.496H1977.22V102.496H2000.01V100.496ZM1978.15 101.879L1983.14 89.8472L1981.29 89.0808L1976.3 101.113L1978.15 101.879ZM2098.07 139V140H2099.07V139H2098.07ZM2098.07 74.872V73.872H2097.07V74.872H2098.07ZM2128.28 74.872V75.872H2129.28V74.872H2128.28ZM2128.28 53.24H2129.28V52.24H2128.28V53.24ZM2043.67 53.24V52.24H2042.67V53.24H2043.67ZM2043.67 74.872H2042.67V75.872H2043.67V74.872ZM2074.01 74.872H2075.01V73.872H2074.01V74.872ZM2074.01 139H2073.01V140H2074.01V139ZM2099.07 139V74.872H2097.07V139H2099.07ZM2098.07 75.872H2128.28V73.872H2098.07V75.872ZM2129.28 74.872V53.24H2127.28V74.872H2129.28ZM2128.28 52.24H2043.67V54.24H2128.28V52.24ZM2042.67 53.24V74.872H2044.67V53.24H2042.67ZM2043.67 75.872H2074.01V73.872H2043.67V75.872ZM2073.01 74.872V139H2075.01V74.872H2073.01ZM2074.01 140H2098.07V138H2074.01V140ZM2210.25 139V140H2211.25V139H2210.25ZM2210.25 117.368H2211.25V116.368H2210.25V117.368ZM2158.15 117.368H2157.15V118.368H2158.15V117.368ZM2158.15 106.616V105.616H2157.15V106.616H2158.15ZM2208.33 106.616V107.616H2209.33V106.616H2208.33ZM2208.33 85.112H2209.33V84.112H2208.33V85.112ZM2158.15 85.112H2157.15V86.112H2158.15V85.112ZM2158.15 74.872V73.872H2157.15V74.872H2158.15ZM2210.25 74.872V75.872H2211.25V74.872H2210.25ZM2210.25 53.24H2211.25V52.24H2210.25V53.24ZM2134.09 53.24V52.24H2133.09V53.24H2134.09ZM2134.09 139H2133.09V140H2134.09V139ZM2211.25 139V117.368H2209.25V139H2211.25ZM2210.25 116.368H2158.15V118.368H2210.25V116.368ZM2159.15 117.368V106.616H2157.15V117.368H2159.15ZM2158.15 107.616H2208.33V105.616H2158.15V107.616ZM2209.33 106.616V85.112H2207.33V106.616H2209.33ZM2208.33 84.112H2158.15V86.112H2208.33V84.112ZM2159.15 85.112V74.872H2157.15V85.112H2159.15ZM2158.15 75.872H2210.25V73.872H2158.15V75.872ZM2211.25 74.872V53.24H2209.25V74.872H2211.25ZM2210.25 52.24H2134.09V54.24H2210.25V52.24ZM2133.09 53.24V139H2135.09V53.24H2133.09ZM2134.09 140H2210.25V138H2134.09V140ZM2248.32 114.424H2249.32V113.424H2248.32V114.424ZM2217.09 114.424V113.424H2216.09V114.424H2217.09ZM2217.09 139H2216.09V140H2217.09V139ZM2230.79 139H2231.79V138H2230.79V139ZM2218.24 145.4V144.4H2217.24V145.4H2218.24ZM2218.24 160.248H2217.24V161.248H2218.24V160.248ZM2227.07 161.248C2233.94 161.248 2239.52 159.615 2243.4 156.145C2247.3 152.658 2249.32 147.457 2249.32 140.664H2247.32C2247.32 147.055 2245.44 151.646 2242.07 154.655C2238.69 157.681 2233.65 159.248 2227.07 159.248V161.248ZM2249.32 140.664V114.424H2247.32V140.664H2249.32ZM2248.32 113.424H2217.09V115.424H2248.32V113.424ZM2216.09 114.424V139H2218.09V114.424H2216.09ZM2217.09 140H2230.79V138H2217.09V140ZM2229.79 139V140.792H2231.79V139H2229.79ZM2229.79 140.792C2229.79 142.571 2229.44 143.362 2229.02 143.757C2228.58 144.167 2227.8 144.4 2226.31 144.4V146.4C2227.88 146.4 2229.35 146.185 2230.38 145.219C2231.43 144.238 2231.79 142.725 2231.79 140.792H2229.79ZM2226.31 144.4H2218.24V146.4H2226.31V144.4ZM2217.24 145.4V160.248H2219.24V145.4H2217.24ZM2218.24 161.248H2227.07V159.248H2218.24V161.248Z" fill="white" fill-opacity="0.12"/>
<path d="M64.768 74.712H63.768V75.6754L64.7307 75.7113L64.768 74.712ZM64.768 73.432L64.7271 72.4328L63.768 72.4721V73.432H64.768ZM3.84 33.24V32.24H2.84V33.24H3.84ZM3.84 119H2.84V120H3.84V119ZM27.776 54.872V53.872H26.776V54.872H27.776ZM27.776 65.752H26.776V66.752H27.776V65.752ZM27.776 85.464V84.464H26.776V85.464H27.776ZM27.776 97.368H26.776V98.368H27.776V97.368ZM61.312 120C71.6853 120 79.1655 117.635 84.0581 113.266C88.971 108.878 91.112 102.616 91.112 95.192H89.112C89.112 102.232 87.093 107.874 82.7259 111.774C78.3385 115.693 71.4187 118 61.312 118V120ZM91.112 95.192C91.112 88.9926 88.9679 83.7352 84.5185 79.9651C80.0969 76.2185 73.5137 74.0376 64.8053 73.7127L64.7307 75.7113C73.1744 76.0264 79.2631 78.1335 83.2255 81.4909C87.1601 84.8248 89.112 89.4874 89.112 95.192H91.112ZM65.768 74.712V73.432H63.768V74.712H65.768ZM64.809 74.4312C72.7665 74.105 78.3902 71.9451 82.0208 68.2974C85.6573 64.6437 87.144 59.6489 87.144 53.976H85.144C85.144 59.3111 83.7507 63.7243 80.6032 66.8866C77.4498 70.0548 72.3855 72.119 64.7271 72.4328L64.809 74.4312ZM87.144 53.976C87.144 47.0044 84.7387 41.4983 79.82 37.771C74.9498 34.0805 67.7534 32.24 58.368 32.24V34.24C67.5426 34.24 74.2342 36.0475 78.612 39.365C82.9414 42.6457 85.144 47.5076 85.144 53.976H87.144ZM58.368 32.24H3.84V34.24H58.368V32.24ZM2.84 33.24V119H4.84V33.24H2.84ZM3.84 120H61.312V118H3.84V120ZM27.776 55.872H55.168V53.872H27.776V55.872ZM55.168 55.872C57.6116 55.872 59.0457 56.2588 59.8727 56.918C60.6381 57.5281 61.08 58.5391 61.08 60.376H63.08C63.08 58.2449 62.5619 56.5039 61.1193 55.354C59.7383 54.2532 57.7164 53.872 55.168 53.872V55.872ZM61.08 60.376C61.08 62.2918 60.7288 63.2523 60.106 63.8025C59.4423 64.3888 58.2096 64.752 55.808 64.752V66.752C58.2704 66.752 60.1737 66.4112 61.43 65.3015C62.7272 64.1557 63.08 62.4282 63.08 60.376H61.08ZM55.808 64.752H27.776V66.752H55.808V64.752ZM28.776 65.752V54.872H26.776V65.752H28.776ZM27.776 86.464H58.24V84.464H27.776V86.464ZM58.24 86.464C61.2082 86.464 62.7651 86.776 63.617 87.4267C64.3722 88.0036 64.792 89.0412 64.792 91.352H66.792C66.792 88.9268 66.3798 87.0204 64.831 85.8373C63.3789 84.728 61.1598 84.464 58.24 84.464V86.464ZM64.792 91.352C64.792 93.7163 64.3447 94.7942 63.5673 95.3906C62.6984 96.0571 61.1394 96.368 58.24 96.368V98.368C61.1006 98.368 63.3176 98.1029 64.7847 96.9774C66.3433 95.7818 66.792 93.8517 66.792 91.352H64.792ZM58.24 96.368H27.776V98.368H58.24V96.368ZM28.776 97.368V85.464H26.776V97.368H28.776ZM182.255 33.24H183.255V32.24H182.255V33.24ZM158.191 33.24V32.24H157.191V33.24H158.191ZM118.767 33.24H119.767V32.24H118.767V33.24ZM94.703 33.24V32.24H93.703V33.24H94.703ZM138.479 121.28C153.602 121.28 164.821 117.629 172.267 110.944C179.73 104.244 183.255 94.6301 183.255 83.032H181.255C181.255 94.2179 177.868 103.228 170.931 109.456C163.977 115.699 153.308 119.28 138.479 119.28V121.28ZM183.255 83.032V33.24H181.255V83.032H183.255ZM182.255 32.24H158.191V34.24H182.255V32.24ZM157.191 33.24V81.112H159.191V33.24H157.191ZM157.191 81.112C157.191 87.1737 156.308 90.7118 153.785 92.8443C151.197 95.0321 146.622 95.984 138.479 95.984V97.984C146.592 97.984 151.873 97.0799 155.077 94.3717C158.346 91.6082 159.191 87.2103 159.191 81.112H157.191ZM138.479 95.984C130.336 95.984 125.761 95.0321 123.173 92.8443C120.65 90.7118 119.767 87.1737 119.767 81.112H117.767C117.767 87.2103 118.612 91.6082 121.881 94.3717C125.085 97.0799 130.366 97.984 138.479 97.984V95.984ZM119.767 81.112V33.24H117.767V81.112H119.767ZM118.767 32.24H94.703V34.24H118.767V32.24ZM93.703 33.24V83.032H95.703V33.24H93.703ZM93.703 83.032C93.703 94.6301 97.228 104.244 104.691 110.944C112.137 117.629 123.356 121.28 138.479 121.28V119.28C123.65 119.28 112.981 115.699 106.027 109.456C99.09 103.228 95.703 94.2179 95.703 83.032H93.703ZM213.529 119V120H214.529V119H213.529ZM213.529 33.24H214.529V32.24H213.529V33.24ZM189.465 33.24V32.24H188.465V33.24H189.465ZM189.465 119H188.465V120H189.465V119ZM214.529 119V33.24H212.529V119H214.529ZM213.529 32.24H189.465V34.24H213.529V32.24ZM188.465 33.24V119H190.465V33.24H188.465ZM189.465 120H213.529V118H189.465V120ZM294.815 119V120H295.815V119H294.815ZM294.815 97.368H295.815V96.368H294.815V97.368ZM245.279 97.368H244.279V98.368H245.279V97.368ZM245.279 33.24H246.279V32.24H245.279V33.24ZM221.215 33.24V32.24H220.215V33.24H221.215ZM221.215 119H220.215V120H221.215V119ZM295.815 119V97.368H293.815V119H295.815ZM294.815 96.368H245.279V98.368H294.815V96.368ZM246.279 97.368V33.24H244.279V97.368H246.279ZM245.279 32.24H221.215V34.24H245.279V32.24ZM220.215 33.24V119H222.215V33.24H220.215ZM221.215 120H294.815V118H221.215V120ZM302.623 33.24V32.24H301.623V33.24H302.623ZM302.623 119H301.623V120H302.623V119ZM326.687 97.368H325.687V98.368H326.687V97.368ZM326.687 54.872V53.872H325.687V54.872H326.687ZM346.015 120C360.339 120 372.155 116.013 380.402 108.474C388.66 100.925 393.223 89.9177 393.223 76.12H391.223C391.223 89.4583 386.826 99.8913 379.052 106.998C371.267 114.115 359.979 118 346.015 118V120ZM393.223 76.12C393.223 62.3223 388.66 51.3153 380.402 43.7659C372.155 36.2274 360.339 32.24 346.015 32.24V34.24C359.979 34.24 371.267 38.1246 379.052 45.2421C386.826 52.3487 391.223 62.7817 391.223 76.12H393.223ZM346.015 32.24H302.623V34.24H346.015V32.24ZM301.623 33.24V119H303.623V33.24H301.623ZM302.623 120H346.015V118H302.623V120ZM346.015 55.872C349.817 55.872 352.923 55.9932 355.461 56.4577C357.988 56.9201 359.875 57.7099 361.298 58.9911C364.154 61.5626 365.495 66.441 365.495 76.12H367.495C367.495 66.471 366.212 60.7254 362.636 57.5049C360.843 55.8901 358.562 54.9919 355.821 54.4903C353.091 53.9908 349.829 53.872 346.015 53.872V55.872ZM365.495 76.12C365.495 85.799 364.154 90.6774 361.298 93.2489C359.875 94.5301 357.988 95.3199 355.461 95.7823C352.923 96.2468 349.817 96.368 346.015 96.368V98.368C349.829 98.368 353.091 98.2492 355.821 97.7497C358.562 97.2481 360.843 96.3499 362.636 94.7351C366.212 91.5146 367.495 85.769 367.495 76.12H365.495ZM346.015 96.368H326.687V98.368H346.015V96.368ZM327.687 97.368V54.872H325.687V97.368H327.687ZM326.687 55.872H346.015V53.872H326.687V55.872ZM429.822 94.424H430.822V93.424H429.822V94.424ZM398.59 94.424V93.424H397.59V94.424H398.59ZM398.59 119H397.59V120H398.59V119ZM412.286 119H413.286V118H412.286V119ZM399.742 125.4V124.4H398.742V125.4H399.742ZM399.742 140.248H398.742V141.248H399.742V140.248ZM408.574 141.248C415.437 141.248 421.025 139.615 424.905 136.145C428.804 132.658 430.822 127.457 430.822 120.664H428.822C428.822 127.055 426.936 131.646 423.571 134.655C420.187 137.681 415.151 139.248 408.574 139.248V141.248ZM430.822 120.664V94.424H428.822V120.664H430.822ZM429.822 93.424H398.59V95.424H429.822V93.424ZM397.59 94.424V119H399.59V94.424H397.59ZM398.59 120H412.286V118H398.59V120ZM411.286 119V120.792H413.286V119H411.286ZM411.286 120.792C411.286 122.571 410.939 123.362 410.515 123.757C410.077 124.167 409.303 124.4 407.806 124.4V126.4C409.381 126.4 410.847 126.185 411.881 125.219C412.929 124.238 413.286 122.725 413.286 120.792H411.286ZM407.806 124.4H399.742V126.4H407.806V124.4ZM398.742 125.4V140.248H400.742V125.4H398.742ZM399.742 141.248H408.574V139.248H399.742V141.248ZM547.5 81.496H548.5V80.496H547.5V81.496ZM520.62 81.496V80.496H519.62V81.496H520.62ZM520.62 70.744H519.62V71.744H520.62V70.744ZM547.5 70.744V71.744H548.5V70.744H547.5ZM501.42 121.28C515.964 121.28 527.73 117.823 535.882 111.351C544.063 104.856 548.5 95.404 548.5 83.672H546.5C546.5 94.852 542.297 103.704 534.638 109.785C526.95 115.889 515.676 119.28 501.42 119.28V121.28ZM548.5 83.672V81.496H546.5V83.672H548.5ZM547.5 80.496H520.62V82.496H547.5V80.496ZM519.62 81.496V83.672H521.62V81.496H519.62ZM519.62 83.672C519.62 88.3907 518.506 91.3969 515.944 93.3014C513.293 95.2715 508.876 96.24 501.804 96.24V98.24C508.94 98.24 513.931 97.2885 517.136 94.9066C520.43 92.4591 521.62 88.6813 521.62 83.672H519.62ZM501.804 96.24C493.088 96.24 487.933 95.1907 484.888 92.3347C481.865 89.4986 480.66 84.623 480.66 76.12H478.66C478.66 84.641 479.823 90.3254 483.52 93.7933C487.195 97.2413 493.112 98.24 501.804 98.24V96.24ZM480.66 76.12C480.66 67.617 481.865 62.7415 484.888 59.9053C487.933 57.0493 493.088 56 501.804 56V54C493.112 54 487.195 54.9987 483.52 58.4467C479.823 61.9145 478.66 67.599 478.66 76.12H480.66ZM501.804 56C508.876 56 513.293 56.9685 515.944 58.9386C518.506 60.8431 519.62 63.8493 519.62 68.568H521.62C521.62 63.5587 520.43 59.7809 517.136 57.3334C513.931 54.9515 508.94 54 501.804 54V56ZM519.62 68.568V70.744H521.62V68.568H519.62ZM520.62 71.744H547.5V69.744H520.62V71.744ZM548.5 70.744V68.568H546.5V70.744H548.5ZM548.5 68.568C548.5 56.836 544.063 47.3839 535.882 40.8888C527.73 34.417 515.964 30.96 501.42 30.96V32.96C515.676 32.96 526.95 36.351 534.638 42.4552C542.297 48.5361 546.5 57.388 546.5 68.568H548.5ZM501.42 30.96C486.315 30.96 474.207 35.3711 465.868 43.2825C457.523 51.199 453.06 62.5193 453.06 76.12H455.06C455.06 62.9687 459.365 52.209 467.244 44.7335C475.129 37.2529 486.701 32.96 501.42 32.96V30.96ZM453.06 76.12C453.06 89.7207 457.523 101.041 465.868 108.957C474.207 116.869 486.315 121.28 501.42 121.28V119.28C486.701 119.28 475.129 114.987 467.244 107.507C459.365 100.031 455.06 89.2713 455.06 76.12H453.06ZM577.904 119V120H578.904V119H577.904ZM577.904 89.816V88.816H576.904V89.816H577.904ZM602.736 98.008L601.834 98.4407L601.837 98.4464L602.736 98.008ZM612.976 119L612.077 119.438L612.351 120H612.976V119ZM640.752 119V120H642.361L641.649 118.557L640.752 119ZM630.128 97.496L629.23 97.9362L629.231 97.9389L630.128 97.496ZM615.28 84.44H614.28V85.2126L615.028 85.4076L615.28 84.44ZM615.28 83.16L615.156 82.1677L614.28 82.2772V83.16H615.28ZM553.84 33.24V32.24H552.84V33.24H553.84ZM553.84 119H552.84V120H553.84V119ZM577.904 54.872V53.872H576.904V54.872H577.904ZM577.904 71.896H576.904V72.896H577.904V71.896ZM578.904 119V89.816H576.904V119H578.904ZM577.904 90.816H587.76V88.816H577.904V90.816ZM587.76 90.816C592.409 90.816 595.156 91.2711 597.105 92.381C599.021 93.4719 600.319 95.2836 601.834 98.4407L603.638 97.5753C602.081 94.3324 600.563 92.0481 598.095 90.643C595.66 89.2569 592.455 88.816 587.76 88.816V90.816ZM601.837 98.4464L612.077 119.438L613.875 118.562L603.635 97.5696L601.837 98.4464ZM612.976 120H640.752V118H612.976V120ZM641.649 118.557L631.025 97.0531L629.231 97.9389L639.855 119.443L641.649 118.557ZM631.026 97.0558C629.42 93.7803 627.854 90.9575 625.515 88.6692C623.156 86.3612 620.076 84.6578 615.532 83.4724L615.028 85.4076C619.316 86.5262 622.06 88.0868 624.117 90.0988C626.194 92.1305 627.636 94.6837 629.23 97.9362L631.026 97.0558ZM616.28 84.44V83.16H614.28V84.44H616.28ZM615.404 84.1523C623.726 83.112 629.774 80.5247 633.735 76.3263C637.708 72.116 639.448 66.4288 639.448 59.48H637.448C637.448 66.0991 635.796 71.228 632.281 74.9537C628.754 78.6913 623.218 81.16 615.156 82.1677L615.404 84.1523ZM639.448 59.48C639.448 50.8353 636.365 43.9609 630.273 39.2791C624.224 34.6294 615.334 32.24 603.888 32.24V34.24C615.098 34.24 623.488 36.5866 629.055 40.8649C634.579 45.1111 637.448 51.3567 637.448 59.48H639.448ZM603.888 32.24H553.84V34.24H603.888V32.24ZM552.84 33.24V119H554.84V33.24H552.84ZM553.84 120H577.904V118H553.84V120ZM577.904 55.872H603.632V53.872H577.904V55.872ZM603.632 55.872C607.149 55.872 609.213 56.3065 610.433 57.3209C611.595 58.2877 612.232 60.0019 612.232 63.32H614.232C614.232 59.8541 613.589 57.3443 611.711 55.7831C609.891 54.2695 607.155 53.872 603.632 53.872V55.872ZM612.232 63.32C612.232 66.9189 611.585 68.6411 610.442 69.5671C609.231 70.5486 607.184 70.896 603.632 70.896V72.896C607.12 72.896 609.873 72.6034 611.702 71.1209C613.599 69.5829 614.232 67.0171 614.232 63.32H612.232ZM603.632 70.896H577.904V72.896H603.632V70.896ZM578.904 71.896V54.872H576.904V71.896H578.904ZM720.75 119V120H721.75V119H720.75ZM720.75 97.368H721.75V96.368H720.75V97.368ZM668.654 97.368H667.654V98.368H668.654V97.368ZM668.654 86.616V85.616H667.654V86.616H668.654ZM718.83 86.616V87.616H719.83V86.616H718.83ZM718.83 65.112H719.83V64.112H718.83V65.112ZM668.654 65.112H667.654V66.112H668.654V65.112ZM668.654 54.872V53.872H667.654V54.872H668.654ZM720.75 54.872V55.872H721.75V54.872H720.75ZM720.75 33.24H721.75V32.24H720.75V33.24ZM644.59 33.24V32.24H643.59V33.24H644.59ZM644.59 119H643.59V120H644.59V119ZM721.75 119V97.368H719.75V119H721.75ZM720.75 96.368H668.654V98.368H720.75V96.368ZM669.654 97.368V86.616H667.654V97.368H669.654ZM668.654 87.616H718.83V85.616H668.654V87.616ZM719.83 86.616V65.112H717.83V86.616H719.83ZM718.83 64.112H668.654V66.112H718.83V64.112ZM669.654 65.112V54.872H667.654V65.112H669.654ZM668.654 55.872H720.75V53.872H668.654V55.872ZM721.75 54.872V33.24H719.75V54.872H721.75ZM720.75 32.24H644.59V34.24H720.75V32.24ZM643.59 33.24V119H645.59V33.24H643.59ZM644.59 120H720.75V118H644.59V120ZM749.478 119V120H750.143L750.4 119.387L749.478 119ZM756.134 103.128V102.128H755.469L755.212 102.741L756.134 103.128ZM796.838 103.128L797.763 102.748L797.508 102.128H796.838V103.128ZM803.366 119L802.441 119.38L802.696 120H803.366V119ZM831.014 119V120H832.536L831.932 118.603L831.014 119ZM793.894 33.24L794.812 32.8428L794.551 32.24H793.894V33.24ZM759.462 33.24V32.24H758.804L758.544 32.8439L759.462 33.24ZM722.47 119L721.552 118.604L720.95 120H722.47V119ZM770.214 69.464L771.138 69.8472L771.143 69.8335L771.149 69.8196L770.214 69.464ZM775.718 55V54H775.029L774.783 54.6443L775.718 55ZM777.382 55L778.314 54.6372L778.066 54H777.382V55ZM783.014 69.464L782.082 69.8268L782.086 69.8371L782.09 69.8472L783.014 69.464ZM788.006 81.496V82.496H789.504L788.93 81.1128L788.006 81.496ZM765.222 81.496L764.298 81.1128L763.724 82.496H765.222V81.496ZM750.4 119.387L757.056 103.515L755.212 102.741L748.556 118.613L750.4 119.387ZM756.134 104.128H796.838V102.128H756.134V104.128ZM795.913 103.508L802.441 119.38L804.291 118.62L797.763 102.748L795.913 103.508ZM803.366 120H831.014V118H803.366V120ZM831.932 118.603L794.812 32.8428L792.976 33.6372L830.096 119.397L831.932 118.603ZM793.894 32.24H759.462V34.24H793.894V32.24ZM758.544 32.8439L721.552 118.604L723.388 119.396L760.38 33.6361L758.544 32.8439ZM722.47 120H749.478V118H722.47V120ZM771.149 69.8196L776.653 55.3557L774.783 54.6443L769.279 69.1083L771.149 69.8196ZM775.718 56H777.382V54H775.718V56ZM776.45 55.3628L782.082 69.8268L783.946 69.1012L778.314 54.6372L776.45 55.3628ZM782.09 69.8472L787.082 81.8792L788.93 81.1128L783.938 69.0808L782.09 69.8472ZM788.006 80.496H765.222V82.496H788.006V80.496ZM766.146 81.8792L771.138 69.8472L769.29 69.0808L764.298 81.1128L766.146 81.8792ZM886.07 119V120H887.07V119H886.07ZM886.07 54.872V53.872H885.07V54.872H886.07ZM916.278 54.872V55.872H917.278V54.872H916.278ZM916.278 33.24H917.278V32.24H916.278V33.24ZM831.67 33.24V32.24H830.67V33.24H831.67ZM831.67 54.872H830.67V55.872H831.67V54.872ZM862.006 54.872H863.006V53.872H862.006V54.872ZM862.006 119H861.006V120H862.006V119ZM887.07 119V54.872H885.07V119H887.07ZM886.07 55.872H916.278V53.872H886.07V55.872ZM917.278 54.872V33.24H915.278V54.872H917.278ZM916.278 32.24H831.67V34.24H916.278V32.24ZM830.67 33.24V54.872H832.67V33.24H830.67ZM831.67 55.872H862.006V53.872H831.67V55.872ZM861.006 54.872V119H863.006V54.872H861.006ZM862.006 120H886.07V118H862.006V120ZM998.25 119V120H999.25V119H998.25ZM998.25 97.368H999.25V96.368H998.25V97.368ZM946.154 97.368H945.154V98.368H946.154V97.368ZM946.154 86.616V85.616H945.154V86.616H946.154ZM996.33 86.616V87.616H997.33V86.616H996.33ZM996.33 65.112H997.33V64.112H996.33V65.112ZM946.154 65.112H945.154V66.112H946.154V65.112ZM946.154 54.872V53.872H945.154V54.872H946.154ZM998.25 54.872V55.872H999.25V54.872H998.25ZM998.25 33.24H999.25V32.24H998.25V33.24ZM922.09 33.24V32.24H921.09V33.24H922.09ZM922.09 119H921.09V120H922.09V119ZM999.25 119V97.368H997.25V119H999.25ZM998.25 96.368H946.154V98.368H998.25V96.368ZM947.154 97.368V86.616H945.154V97.368H947.154ZM946.154 87.616H996.33V85.616H946.154V87.616ZM997.33 86.616V65.112H995.33V86.616H997.33ZM996.33 64.112H946.154V66.112H996.33V64.112ZM947.154 65.112V54.872H945.154V65.112H947.154ZM946.154 55.872H998.25V53.872H946.154V55.872ZM999.25 54.872V33.24H997.25V54.872H999.25ZM998.25 32.24H922.09V34.24H998.25V32.24ZM921.09 33.24V119H923.09V33.24H921.09ZM922.09 120H998.25V118H922.09V120ZM1036.32 94.424H1037.32V93.424H1036.32V94.424ZM1005.09 94.424V93.424H1004.09V94.424H1005.09ZM1005.09 119H1004.09V120H1005.09V119ZM1018.79 119H1019.79V118H1018.79V119ZM1006.24 125.4V124.4H1005.24V125.4H1006.24ZM1006.24 140.248H1005.24V141.248H1006.24V140.248ZM1015.07 141.248C1021.94 141.248 1027.52 139.615 1031.4 136.145C1035.3 132.658 1037.32 127.457 1037.32 120.664H1035.32C1035.32 127.055 1033.44 131.646 1030.07 134.655C1026.69 137.681 1021.65 139.248 1015.07 139.248V141.248ZM1037.32 120.664V94.424H1035.32V120.664H1037.32ZM1036.32 93.424H1005.09V95.424H1036.32V93.424ZM1004.09 94.424V119H1006.09V94.424H1004.09ZM1005.09 120H1018.79V118H1005.09V120ZM1017.79 119V120.792H1019.79V119H1017.79ZM1017.79 120.792C1017.79 122.571 1017.44 123.362 1017.02 123.757C1016.58 124.167 1015.8 124.4 1014.31 124.4V126.4C1015.88 126.4 1017.35 126.185 1018.38 125.219C1019.43 124.238 1019.79 122.725 1019.79 120.792H1017.79ZM1014.31 124.4H1006.24V126.4H1014.31V124.4ZM1005.24 125.4V140.248H1007.24V125.4H1005.24ZM1006.24 141.248H1015.07V139.248H1006.24V141.248ZM75.008 257.696V256.696H74.2125L74.0336 257.471L75.008 257.696ZM76.288 257.696H77.288V256.696H76.288V257.696ZM76.288 276H75.288V277H76.288V276ZM98.688 276V277H99.688V276H98.688ZM98.688 229.152H99.688V228.152H98.688V229.152ZM48 229.152V228.152H47V229.152H48ZM48 246.816H47V247.816H48V246.816ZM74.368 246.816L75.3528 246.99L75.5599 245.816H74.368V246.816ZM71.68 223.904H70.68V224.904H71.68V223.904ZM98.56 223.904V224.904H99.56V223.904H98.56ZM45.312 278.28C55.5179 278.28 62.6048 275.841 67.4514 272.017C72.2997 268.192 74.7941 263.07 75.9824 257.921L74.0336 257.471C72.918 262.306 70.6123 266.976 66.2126 270.447C61.8112 273.919 55.2021 276.28 45.312 276.28V278.28ZM75.008 258.696H76.288V256.696H75.008V258.696ZM75.288 257.696V276H77.288V257.696H75.288ZM76.288 277H98.688V275H76.288V277ZM99.688 276V229.152H97.688V276H99.688ZM98.688 228.152H48V230.152H98.688V228.152ZM47 229.152V246.816H49V229.152H47ZM48 247.816H74.368V245.816H48V247.816ZM73.3832 246.642C73.1166 248.153 72.6394 249.235 71.8874 250.054C71.132 250.876 70.015 251.526 68.3018 252.014C64.8151 253.008 59.2393 253.24 50.304 253.24V255.24C59.1607 255.24 65.0409 255.024 68.8502 253.938C70.785 253.386 72.276 252.588 73.3606 251.406C74.4486 250.221 75.0434 248.743 75.3528 246.99L73.3832 246.642ZM50.304 253.24C41.5881 253.24 36.4326 252.191 33.3882 249.335C30.3649 246.499 29.16 241.623 29.16 233.12H27.16C27.16 241.641 28.3231 247.325 32.0198 250.793C35.6954 254.241 41.6119 255.24 50.304 255.24V253.24ZM29.16 233.12C29.16 224.626 30.4265 219.761 33.6237 216.924C36.8626 214.05 42.3502 213 51.584 213V211C42.3858 211 36.1614 211.998 32.2963 215.428C28.3895 218.895 27.16 224.59 27.16 233.12H29.16ZM51.584 213C59.1908 213 63.9793 213.778 66.8527 215.399C68.2552 216.19 69.1891 217.176 69.7855 218.383C70.3898 219.606 70.68 221.12 70.68 223.008H72.68C72.68 220.928 72.3622 219.082 71.5785 217.497C70.7869 215.896 69.5527 214.626 67.8353 213.657C64.4687 211.758 59.2092 211 51.584 211V213ZM70.68 223.008V223.904H72.68V223.008H70.68ZM71.68 224.904H98.56V222.904H71.68V224.904ZM99.56 223.904V223.008H97.56V223.904H99.56ZM99.56 223.008C99.56 212.079 95.0987 203.262 86.881 197.211C78.7002 191.186 66.8817 187.96 52.224 187.96V189.96C66.6224 189.96 77.9718 193.134 85.695 198.821C93.3813 204.482 97.56 212.689 97.56 223.008H99.56ZM52.224 187.96C36.4271 187.96 23.7494 192.364 15.0093 200.266C6.25826 208.178 1.56 219.504 1.56 233.12H3.56C3.56 219.984 8.07774 209.23 16.3507 201.75C24.6346 194.26 36.7889 189.96 52.224 189.96V187.96ZM1.56 233.12C1.56 246.69 5.5555 257.998 13.083 265.921C20.6172 273.851 31.5864 278.28 45.312 278.28V276.28C32.0296 276.28 21.6228 272.005 14.533 264.543C7.4365 257.074 3.56 246.302 3.56 233.12H1.56ZM182 276V277H183V276H182ZM182 254.368H183V253.368H182V254.368ZM129.904 254.368H128.904V255.368H129.904V254.368ZM129.904 243.616V242.616H128.904V243.616H129.904ZM180.08 243.616V244.616H181.08V243.616H180.08ZM180.08 222.112H181.08V221.112H180.08V222.112ZM129.904 222.112H128.904V223.112H129.904V222.112ZM129.904 211.872V210.872H128.904V211.872H129.904ZM182 211.872V212.872H183V211.872H182ZM182 190.24H183V189.24H182V190.24ZM105.84 190.24V189.24H104.84V190.24H105.84ZM105.84 276H104.84V277H105.84V276ZM183 276V254.368H181V276H183ZM182 253.368H129.904V255.368H182V253.368ZM130.904 254.368V243.616H128.904V254.368H130.904ZM129.904 244.616H180.08V242.616H129.904V244.616ZM181.08 243.616V222.112H179.08V243.616H181.08ZM180.08 221.112H129.904V223.112H180.08V221.112ZM130.904 222.112V211.872H128.904V222.112H130.904ZM129.904 212.872H182V210.872H129.904V212.872ZM183 211.872V190.24H181V211.872H183ZM182 189.24H105.84V191.24H182V189.24ZM104.84 190.24V276H106.84V190.24H104.84ZM105.84 277H182V275H105.84V277ZM212.904 276V277H213.904V276H212.904ZM212.904 242.464H213.904V242.433L213.902 242.402L212.904 242.464ZM211.88 226.08V225.08H210.816L210.882 226.142L211.88 226.08ZM213.544 226.08L214.385 225.539L214.089 225.08H213.544V226.08ZM224.424 242.976L223.583 243.517L223.606 243.552L223.631 243.585L224.424 242.976ZM249.768 276L248.975 276.609L249.275 277H249.768V276ZM275.368 276V277H276.368V276H275.368ZM275.368 190.24H276.368V189.24H275.368V190.24ZM251.304 190.24V189.24H250.304V190.24H251.304ZM251.304 223.392H250.304V223.423L250.306 223.454L251.304 223.392ZM252.456 242.08V243.08H253.52L253.454 242.018L252.456 242.08ZM250.792 242.08L249.948 242.617L250.243 243.08H250.792V242.08ZM238.248 222.368L239.092 221.831L239.073 221.801L239.051 221.773L238.248 222.368ZM214.44 190.24L215.243 189.645L214.944 189.24H214.44V190.24ZM188.84 190.24V189.24H187.84V190.24H188.84ZM188.84 276H187.84V277H188.84V276ZM213.904 276V242.464H211.904V276H213.904ZM213.902 242.402L212.878 226.018L210.882 226.142L211.906 242.526L213.902 242.402ZM211.88 227.08H213.544V225.08H211.88V227.08ZM212.703 226.621L223.583 243.517L225.265 242.435L214.385 225.539L212.703 226.621ZM223.631 243.585L248.975 276.609L250.561 275.391L225.217 242.367L223.631 243.585ZM249.768 277H275.368V275H249.768V277ZM276.368 276V190.24H274.368V276H276.368ZM275.368 189.24H251.304V191.24H275.368V189.24ZM250.304 190.24V223.392H252.304V190.24H250.304ZM250.306 223.454L251.458 242.142L253.454 242.018L252.302 223.33L250.306 223.454ZM252.456 241.08H250.792V243.08H252.456V241.08ZM251.636 241.543L239.092 221.831L237.404 222.905L249.948 242.617L251.636 241.543ZM239.051 221.773L215.243 189.645L213.637 190.835L237.445 222.963L239.051 221.773ZM214.44 189.24H188.84V191.24H214.44V189.24ZM187.84 190.24V276H189.84V190.24H187.84ZM188.84 277H212.904V275H188.84V277ZM359.25 276V277H360.25V276H359.25ZM359.25 254.368H360.25V253.368H359.25V254.368ZM307.154 254.368H306.154V255.368H307.154V254.368ZM307.154 243.616V242.616H306.154V243.616H307.154ZM357.33 243.616V244.616H358.33V243.616H357.33ZM357.33 222.112H358.33V221.112H357.33V222.112ZM307.154 222.112H306.154V223.112H307.154V222.112ZM307.154 211.872V210.872H306.154V211.872H307.154ZM359.25 211.872V212.872H360.25V211.872H359.25ZM359.25 190.24H360.25V189.24H359.25V190.24ZM283.09 190.24V189.24H282.09V190.24H283.09ZM283.09 276H282.09V277H283.09V276ZM360.25 276V254.368H358.25V276H360.25ZM359.25 253.368H307.154V255.368H359.25V253.368ZM308.154 254.368V243.616H306.154V254.368H308.154ZM307.154 244.616H357.33V242.616H307.154V244.616ZM358.33 243.616V222.112H356.33V243.616H358.33ZM357.33 221.112H307.154V223.112H357.33V221.112ZM308.154 222.112V211.872H306.154V222.112H308.154ZM307.154 212.872H359.25V210.872H307.154V212.872ZM360.25 211.872V190.24H358.25V211.872H360.25ZM359.25 189.24H283.09V191.24H359.25V189.24ZM282.09 190.24V276H284.09V190.24H282.09ZM283.09 277H359.25V275H283.09V277ZM390.154 276V277H391.154V276H390.154ZM390.154 246.816V245.816H389.154V246.816H390.154ZM414.986 255.008L414.084 255.441L414.087 255.446L414.986 255.008ZM425.226 276L424.327 276.438L424.601 277H425.226V276ZM453.002 276V277H454.611L453.899 275.557L453.002 276ZM442.378 254.496L441.48 254.936L441.481 254.939L442.378 254.496ZM427.53 241.44H426.53V242.213L427.278 242.408L427.53 241.44ZM427.53 240.16L427.406 239.168L426.53 239.277V240.16H427.53ZM366.09 190.24V189.24H365.09V190.24H366.09ZM366.09 276H365.09V277H366.09V276ZM390.154 211.872V210.872H389.154V211.872H390.154ZM390.154 228.896H389.154V229.896H390.154V228.896ZM391.154 276V246.816H389.154V276H391.154ZM390.154 247.816H400.01V245.816H390.154V247.816ZM400.01 247.816C404.659 247.816 407.406 248.271 409.355 249.381C411.271 250.472 412.569 252.284 414.084 255.441L415.888 254.575C414.331 251.332 412.813 249.048 410.345 247.643C407.91 246.257 404.705 245.816 400.01 245.816V247.816ZM414.087 255.446L424.327 276.438L426.125 275.562L415.885 254.57L414.087 255.446ZM425.226 277H453.002V275H425.226V277ZM453.899 275.557L443.275 254.053L441.481 254.939L452.105 276.443L453.899 275.557ZM443.276 254.056C441.67 250.78 440.104 247.957 437.765 245.669C435.406 243.361 432.326 241.658 427.782 240.472L427.278 242.408C431.566 243.526 434.31 245.087 436.367 247.099C438.444 249.131 439.886 251.684 441.48 254.936L443.276 254.056ZM428.53 241.44V240.16H426.53V241.44H428.53ZM427.654 241.152C435.976 240.112 442.024 237.525 445.985 233.326C449.958 229.116 451.698 223.429 451.698 216.48H449.698C449.698 223.099 448.046 228.228 444.531 231.954C441.004 235.691 435.468 238.16 427.406 239.168L427.654 241.152ZM451.698 216.48C451.698 207.835 448.615 200.961 442.523 196.279C436.474 191.629 427.584 189.24 416.138 189.24V191.24C427.348 191.24 435.738 193.587 441.305 197.865C446.829 202.111 449.698 208.357 449.698 216.48H451.698ZM416.138 189.24H366.09V191.24H416.138V189.24ZM365.09 190.24V276H367.09V190.24H365.09ZM366.09 277H390.154V275H366.09V277ZM390.154 212.872H415.882V210.872H390.154V212.872ZM415.882 212.872C419.399 212.872 421.463 213.307 422.683 214.321C423.845 215.288 424.482 217.002 424.482 220.32H426.482C426.482 216.854 425.839 214.344 423.961 212.783C422.141 211.269 419.405 210.872 415.882 210.872V212.872ZM424.482 220.32C424.482 223.919 423.835 225.641 422.692 226.567C421.481 227.549 419.434 227.896 415.882 227.896V229.896C419.37 229.896 422.123 229.603 423.952 228.121C425.849 226.583 426.482 224.017 426.482 220.32H424.482ZM415.882 227.896H390.154V229.896H415.882V227.896ZM391.154 228.896V211.872H389.154V228.896H391.154ZM478.728 276V277H479.393L479.65 276.387L478.728 276ZM485.384 260.128V259.128H484.719L484.462 259.741L485.384 260.128ZM526.088 260.128L527.013 259.748L526.758 259.128H526.088V260.128ZM532.616 276L531.691 276.38L531.946 277H532.616V276ZM560.264 276V277H561.786L561.182 275.603L560.264 276ZM523.144 190.24L524.062 189.843L523.801 189.24H523.144V190.24ZM488.712 190.24V189.24H488.054L487.794 189.844L488.712 190.24ZM451.72 276L450.802 275.604L450.2 277H451.72V276ZM499.464 226.464L500.388 226.847L500.393 226.834L500.399 226.82L499.464 226.464ZM504.968 212V211H504.279L504.033 211.644L504.968 212ZM506.632 212L507.564 211.637L507.316 211H506.632V212ZM512.264 226.464L511.332 226.827L511.336 226.837L511.34 226.847L512.264 226.464ZM517.256 238.496V239.496H518.754L518.18 238.113L517.256 238.496ZM494.472 238.496L493.548 238.113L492.974 239.496H494.472V238.496ZM479.65 276.387L486.306 260.515L484.462 259.741L477.806 275.613L479.65 276.387ZM485.384 261.128H526.088V259.128H485.384V261.128ZM525.163 260.508L531.691 276.38L533.541 275.62L527.013 259.748L525.163 260.508ZM532.616 277H560.264V275H532.616V277ZM561.182 275.603L524.062 189.843L522.226 190.637L559.346 276.397L561.182 275.603ZM523.144 189.24H488.712V191.24H523.144V189.24ZM487.794 189.844L450.802 275.604L452.638 276.396L489.63 190.636L487.794 189.844ZM451.72 277H478.728V275H451.72V277ZM500.399 226.82L505.903 212.356L504.033 211.644L498.529 226.108L500.399 226.82ZM504.968 213H506.632V211H504.968V213ZM505.7 212.363L511.332 226.827L513.196 226.101L507.564 211.637L505.7 212.363ZM511.34 226.847L516.332 238.879L518.18 238.113L513.188 226.081L511.34 226.847ZM517.256 237.496H494.472V239.496H517.256V237.496ZM495.396 238.879L500.388 226.847L498.54 226.081L493.548 238.113L495.396 238.879ZM615.32 276V277H616.32V276H615.32ZM615.32 211.872V210.872H614.32V211.872H615.32ZM645.528 211.872V212.872H646.528V211.872H645.528ZM645.528 190.24H646.528V189.24H645.528V190.24ZM560.92 190.24V189.24H559.92V190.24H560.92ZM560.92 211.872H559.92V212.872H560.92V211.872ZM591.256 211.872H592.256V210.872H591.256V211.872ZM591.256 276H590.256V277H591.256V276ZM616.32 276V211.872H614.32V276H616.32ZM615.32 212.872H645.528V210.872H615.32V212.872ZM646.528 211.872V190.24H644.528V211.872H646.528ZM645.528 189.24H560.92V191.24H645.528V189.24ZM559.92 190.24V211.872H561.92V190.24H559.92ZM560.92 212.872H591.256V210.872H560.92V212.872ZM590.256 211.872V276H592.256V211.872H590.256ZM591.256 277H615.32V275H591.256V277ZM727.5 276V277H728.5V276H727.5ZM727.5 254.368H728.5V253.368H727.5V254.368ZM675.404 254.368H674.404V255.368H675.404V254.368ZM675.404 243.616V242.616H674.404V243.616H675.404ZM725.58 243.616V244.616H726.58V243.616H725.58ZM725.58 222.112H726.58V221.112H725.58V222.112ZM675.404 222.112H674.404V223.112H675.404V222.112ZM675.404 211.872V210.872H674.404V211.872H675.404ZM727.5 211.872V212.872H728.5V211.872H727.5ZM727.5 190.24H728.5V189.24H727.5V190.24ZM651.34 190.24V189.24H650.34V190.24H651.34ZM651.34 276H650.34V277H651.34V276ZM728.5 276V254.368H726.5V276H728.5ZM727.5 253.368H675.404V255.368H727.5V253.368ZM676.404 254.368V243.616H674.404V254.368H676.404ZM675.404 244.616H725.58V242.616H675.404V244.616ZM726.58 243.616V222.112H724.58V243.616H726.58ZM725.58 221.112H675.404V223.112H725.58V221.112ZM676.404 222.112V211.872H674.404V222.112H676.404ZM675.404 212.872H727.5V210.872H675.404V212.872ZM728.5 211.872V190.24H726.5V211.872H728.5ZM727.5 189.24H651.34V191.24H727.5V189.24ZM650.34 190.24V276H652.34V190.24H650.34ZM651.34 277H727.5V275H651.34V277ZM765.572 276V277H766.572V276H765.572ZM765.572 251.424H766.572V250.424H765.572V251.424ZM734.34 251.424V250.424H733.34V251.424H734.34ZM734.34 276H733.34V277H734.34V276ZM766.572 276V251.424H764.572V276H766.572ZM765.572 250.424H734.34V252.424H765.572V250.424ZM733.34 251.424V276H735.34V251.424H733.34ZM734.34 277H765.572V275H734.34V277Z" fill="white" fill-opacity="0.12"/>
<path d="M914.008 257.696V256.696H913.212L913.034 257.471L914.008 257.696ZM915.288 257.696H916.288V256.696H915.288V257.696ZM915.288 276H914.288V277H915.288V276ZM937.688 276V277H938.688V276H937.688ZM937.688 229.152H938.688V228.152H937.688V229.152ZM887 229.152V228.152H886V229.152H887ZM887 246.816H886V247.816H887V246.816ZM913.368 246.816L914.353 246.99L914.56 245.816H913.368V246.816ZM910.68 223.904H909.68V224.904H910.68V223.904ZM937.56 223.904V224.904H938.56V223.904H937.56ZM884.312 278.28C894.518 278.28 901.605 275.841 906.451 272.017C911.3 268.192 913.794 263.07 914.982 257.921L913.034 257.471C911.918 262.306 909.612 266.976 905.213 270.447C900.811 273.919 894.202 276.28 884.312 276.28V278.28ZM914.008 258.696H915.288V256.696H914.008V258.696ZM914.288 257.696V276H916.288V257.696H914.288ZM915.288 277H937.688V275H915.288V277ZM938.688 276V229.152H936.688V276H938.688ZM937.688 228.152H887V230.152H937.688V228.152ZM886 229.152V246.816H888V229.152H886ZM887 247.816H913.368V245.816H887V247.816ZM912.383 246.642C912.117 248.153 911.639 249.235 910.887 250.054C910.132 250.876 909.015 251.526 907.302 252.014C903.815 253.008 898.239 253.24 889.304 253.24V255.24C898.161 255.24 904.041 255.024 907.85 253.938C909.785 253.386 911.276 252.588 912.361 251.406C913.449 250.221 914.043 248.743 914.353 246.99L912.383 246.642ZM889.304 253.24C880.588 253.24 875.433 252.191 872.388 249.335C869.365 246.499 868.16 241.623 868.16 233.12H866.16C866.16 241.641 867.323 247.325 871.02 250.793C874.695 254.241 880.612 255.24 889.304 255.24V253.24ZM868.16 233.12C868.16 224.626 869.427 219.761 872.624 216.924C875.863 214.05 881.35 213 890.584 213V211C881.386 211 875.161 211.998 871.296 215.428C867.389 218.895 866.16 224.59 866.16 233.12H868.16ZM890.584 213C898.191 213 902.979 213.778 905.853 215.399C907.255 216.19 908.189 217.176 908.786 218.383C909.39 219.606 909.68 221.12 909.68 223.008H911.68C911.68 220.928 911.362 219.082 910.578 217.497C909.787 215.896 908.553 214.626 906.835 213.657C903.469 211.758 898.209 211 890.584 211V213ZM909.68 223.008V223.904H911.68V223.008H909.68ZM910.68 224.904H937.56V222.904H910.68V224.904ZM938.56 223.904V223.008H936.56V223.904H938.56ZM938.56 223.008C938.56 212.079 934.099 203.262 925.881 197.211C917.7 191.186 905.882 187.96 891.224 187.96V189.96C905.622 189.96 916.972 193.134 924.695 198.821C932.381 204.482 936.56 212.689 936.56 223.008H938.56ZM891.224 187.96C875.427 187.96 862.749 192.364 854.009 200.266C845.258 208.178 840.56 219.504 840.56 233.12H842.56C842.56 219.984 847.078 209.23 855.351 201.75C863.635 194.26 875.789 189.96 891.224 189.96V187.96ZM840.56 233.12C840.56 246.69 844.556 257.998 852.083 265.921C859.617 273.851 870.586 278.28 884.312 278.28V276.28C871.03 276.28 860.623 272.005 853.533 264.543C846.436 257.074 842.56 246.302 842.56 233.12H840.56ZM1021 276V277H1022V276H1021ZM1021 254.368H1022V253.368H1021V254.368ZM968.904 254.368H967.904V255.368H968.904V254.368ZM968.904 243.616V242.616H967.904V243.616H968.904ZM1019.08 243.616V244.616H1020.08V243.616H1019.08ZM1019.08 222.112H1020.08V221.112H1019.08V222.112ZM968.904 222.112H967.904V223.112H968.904V222.112ZM968.904 211.872V210.872H967.904V211.872H968.904ZM1021 211.872V212.872H1022V211.872H1021ZM1021 190.24H1022V189.24H1021V190.24ZM944.84 190.24V189.24H943.84V190.24H944.84ZM944.84 276H943.84V277H944.84V276ZM1022 276V254.368H1020V276H1022ZM1021 253.368H968.904V255.368H1021V253.368ZM969.904 254.368V243.616H967.904V254.368H969.904ZM968.904 244.616H1019.08V242.616H968.904V244.616ZM1020.08 243.616V222.112H1018.08V243.616H1020.08ZM1019.08 221.112H968.904V223.112H1019.08V221.112ZM969.904 222.112V211.872H967.904V222.112H969.904ZM968.904 212.872H1021V210.872H968.904V212.872ZM1022 211.872V190.24H1020V211.872H1022ZM1021 189.24H944.84V191.24H1021V189.24ZM943.84 190.24V276H945.84V190.24H943.84ZM944.84 277H1021V275H944.84V277ZM1051.9 276V277H1052.9V276H1051.9ZM1051.9 242.464H1052.9V242.433L1052.9 242.402L1051.9 242.464ZM1050.88 226.08V225.08H1049.82L1049.88 226.142L1050.88 226.08ZM1052.54 226.08L1053.38 225.539L1053.09 225.08H1052.54V226.08ZM1063.42 242.976L1062.58 243.517L1062.61 243.552L1062.63 243.585L1063.42 242.976ZM1088.77 276L1087.97 276.609L1088.27 277H1088.77V276ZM1114.37 276V277H1115.37V276H1114.37ZM1114.37 190.24H1115.37V189.24H1114.37V190.24ZM1090.3 190.24V189.24H1089.3V190.24H1090.3ZM1090.3 223.392H1089.3V223.423L1089.31 223.454L1090.3 223.392ZM1091.46 242.08V243.08H1092.52L1092.45 242.018L1091.46 242.08ZM1089.79 242.08L1088.95 242.617L1089.24 243.08H1089.79V242.08ZM1077.25 222.368L1078.09 221.831L1078.07 221.801L1078.05 221.773L1077.25 222.368ZM1053.44 190.24L1054.24 189.645L1053.94 189.24H1053.44V190.24ZM1027.84 190.24V189.24H1026.84V190.24H1027.84ZM1027.84 276H1026.84V277H1027.84V276ZM1052.9 276V242.464H1050.9V276H1052.9ZM1052.9 242.402L1051.88 226.018L1049.88 226.142L1050.91 242.526L1052.9 242.402ZM1050.88 227.08H1052.54V225.08H1050.88V227.08ZM1051.7 226.621L1062.58 243.517L1064.26 242.435L1053.38 225.539L1051.7 226.621ZM1062.63 243.585L1087.97 276.609L1089.56 275.391L1064.22 242.367L1062.63 243.585ZM1088.77 277H1114.37V275H1088.77V277ZM1115.37 276V190.24H1113.37V276H1115.37ZM1114.37 189.24H1090.3V191.24H1114.37V189.24ZM1089.3 190.24V223.392H1091.3V190.24H1089.3ZM1089.31 223.454L1090.46 242.142L1092.45 242.018L1091.3 223.33L1089.31 223.454ZM1091.46 241.08H1089.79V243.08H1091.46V241.08ZM1090.64 241.543L1078.09 221.831L1076.4 222.905L1088.95 242.617L1090.64 241.543ZM1078.05 221.773L1054.24 189.645L1052.64 190.835L1076.44 222.963L1078.05 221.773ZM1053.44 189.24H1027.84V191.24H1053.44V189.24ZM1026.84 190.24V276H1028.84V190.24H1026.84ZM1027.84 277H1051.9V275H1027.84V277ZM1198.25 276V277H1199.25V276H1198.25ZM1198.25 254.368H1199.25V253.368H1198.25V254.368ZM1146.15 254.368H1145.15V255.368H1146.15V254.368ZM1146.15 243.616V242.616H1145.15V243.616H1146.15ZM1196.33 243.616V244.616H1197.33V243.616H1196.33ZM1196.33 222.112H1197.33V221.112H1196.33V222.112ZM1146.15 222.112H1145.15V223.112H1146.15V222.112ZM1146.15 211.872V210.872H1145.15V211.872H1146.15ZM1198.25 211.872V212.872H1199.25V211.872H1198.25ZM1198.25 190.24H1199.25V189.24H1198.25V190.24ZM1122.09 190.24V189.24H1121.09V190.24H1122.09ZM1122.09 276H1121.09V277H1122.09V276ZM1199.25 276V254.368H1197.25V276H1199.25ZM1198.25 253.368H1146.15V255.368H1198.25V253.368ZM1147.15 254.368V243.616H1145.15V254.368H1147.15ZM1146.15 244.616H1196.33V242.616H1146.15V244.616ZM1197.33 243.616V222.112H1195.33V243.616H1197.33ZM1196.33 221.112H1146.15V223.112H1196.33V221.112ZM1147.15 222.112V211.872H1145.15V222.112H1147.15ZM1146.15 212.872H1198.25V210.872H1146.15V212.872ZM1199.25 211.872V190.24H1197.25V211.872H1199.25ZM1198.25 189.24H1122.09V191.24H1198.25V189.24ZM1121.09 190.24V276H1123.09V190.24H1121.09ZM1122.09 277H1198.25V275H1122.09V277ZM1229.15 276V277H1230.15V276H1229.15ZM1229.15 246.816V245.816H1228.15V246.816H1229.15ZM1253.99 255.008L1253.08 255.441L1253.09 255.446L1253.99 255.008ZM1264.23 276L1263.33 276.438L1263.6 277H1264.23V276ZM1292 276V277H1293.61L1292.9 275.557L1292 276ZM1281.38 254.496L1280.48 254.936L1280.48 254.939L1281.38 254.496ZM1266.53 241.44H1265.53V242.213L1266.28 242.408L1266.53 241.44ZM1266.53 240.16L1266.41 239.168L1265.53 239.277V240.16H1266.53ZM1205.09 190.24V189.24H1204.09V190.24H1205.09ZM1205.09 276H1204.09V277H1205.09V276ZM1229.15 211.872V210.872H1228.15V211.872H1229.15ZM1229.15 228.896H1228.15V229.896H1229.15V228.896ZM1230.15 276V246.816H1228.15V276H1230.15ZM1229.15 247.816H1239.01V245.816H1229.15V247.816ZM1239.01 247.816C1243.66 247.816 1246.41 248.271 1248.36 249.381C1250.27 250.472 1251.57 252.284 1253.08 255.441L1254.89 254.575C1253.33 251.332 1251.81 249.048 1249.34 247.643C1246.91 246.257 1243.7 245.816 1239.01 245.816V247.816ZM1253.09 255.446L1263.33 276.438L1265.12 275.562L1254.88 254.57L1253.09 255.446ZM1264.23 277H1292V275H1264.23V277ZM1292.9 275.557L1282.27 254.053L1280.48 254.939L1291.11 276.443L1292.9 275.557ZM1282.28 254.056C1280.67 250.78 1279.1 247.957 1276.77 245.669C1274.41 243.361 1271.33 241.658 1266.78 240.472L1266.28 242.408C1270.57 243.526 1273.31 245.087 1275.37 247.099C1277.44 249.131 1278.89 251.684 1280.48 254.936L1282.28 254.056ZM1267.53 241.44V240.16H1265.53V241.44H1267.53ZM1266.65 241.152C1274.98 240.112 1281.02 237.525 1284.99 233.326C1288.96 229.116 1290.7 223.429 1290.7 216.48H1288.7C1288.7 223.099 1287.05 228.228 1283.53 231.954C1280 235.691 1274.47 238.16 1266.41 239.168L1266.65 241.152ZM1290.7 216.48C1290.7 207.835 1287.61 200.961 1281.52 196.279C1275.47 191.629 1266.58 189.24 1255.14 189.24V191.24C1266.35 191.24 1274.74 193.587 1280.3 197.865C1285.83 202.111 1288.7 208.357 1288.7 216.48H1290.7ZM1255.14 189.24H1205.09V191.24H1255.14V189.24ZM1204.09 190.24V276H1206.09V190.24H1204.09ZM1205.09 277H1229.15V275H1205.09V277ZM1229.15 212.872H1254.88V210.872H1229.15V212.872ZM1254.88 212.872C1258.4 212.872 1260.46 213.307 1261.68 214.321C1262.85 215.288 1263.48 217.002 1263.48 220.32H1265.48C1265.48 216.854 1264.84 214.344 1262.96 212.783C1261.14 211.269 1258.41 210.872 1254.88 210.872V212.872ZM1263.48 220.32C1263.48 223.919 1262.83 225.641 1261.69 226.567C1260.48 227.549 1258.43 227.896 1254.88 227.896V229.896C1258.37 229.896 1261.12 229.603 1262.95 228.121C1264.85 226.583 1265.48 224.017 1265.48 220.32H1263.48ZM1254.88 227.896H1229.15V229.896H1254.88V227.896ZM1230.15 228.896V211.872H1228.15V228.896H1230.15ZM1317.73 276V277H1318.39L1318.65 276.387L1317.73 276ZM1324.38 260.128V259.128H1323.72L1323.46 259.741L1324.38 260.128ZM1365.09 260.128L1366.01 259.748L1365.76 259.128H1365.09V260.128ZM1371.62 276L1370.69 276.38L1370.95 277H1371.62V276ZM1399.26 276V277H1400.79L1400.18 275.603L1399.26 276ZM1362.14 190.24L1363.06 189.843L1362.8 189.24H1362.14V190.24ZM1327.71 190.24V189.24H1327.05L1326.79 189.844L1327.71 190.24ZM1290.72 276L1289.8 275.604L1289.2 277H1290.72V276ZM1338.46 226.464L1339.39 226.847L1339.39 226.834L1339.4 226.82L1338.46 226.464ZM1343.97 212V211H1343.28L1343.03 211.644L1343.97 212ZM1345.63 212L1346.56 211.637L1346.32 211H1345.63V212ZM1351.26 226.464L1350.33 226.827L1350.34 226.837L1350.34 226.847L1351.26 226.464ZM1356.26 238.496V239.496H1357.75L1357.18 238.113L1356.26 238.496ZM1333.47 238.496L1332.55 238.113L1331.97 239.496H1333.47V238.496ZM1318.65 276.387L1325.31 260.515L1323.46 259.741L1316.81 275.613L1318.65 276.387ZM1324.38 261.128H1365.09V259.128H1324.38V261.128ZM1364.16 260.508L1370.69 276.38L1372.54 275.62L1366.01 259.748L1364.16 260.508ZM1371.62 277H1399.26V275H1371.62V277ZM1400.18 275.603L1363.06 189.843L1361.23 190.637L1398.35 276.397L1400.18 275.603ZM1362.14 189.24H1327.71V191.24H1362.14V189.24ZM1326.79 189.844L1289.8 275.604L1291.64 276.396L1328.63 190.636L1326.79 189.844ZM1290.72 277H1317.73V275H1290.72V277ZM1339.4 226.82L1344.9 212.356L1343.03 211.644L1337.53 226.108L1339.4 226.82ZM1343.97 213H1345.63V211H1343.97V213ZM1344.7 212.363L1350.33 226.827L1352.2 226.101L1346.56 211.637L1344.7 212.363ZM1350.34 226.847L1355.33 238.879L1357.18 238.113L1352.19 226.081L1350.34 226.847ZM1356.26 237.496H1333.47V239.496H1356.26V237.496ZM1334.4 238.879L1339.39 226.847L1337.54 226.081L1332.55 238.113L1334.4 238.879ZM1454.32 276V277H1455.32V276H1454.32ZM1454.32 211.872V210.872H1453.32V211.872H1454.32ZM1484.53 211.872V212.872H1485.53V211.872H1484.53ZM1484.53 190.24H1485.53V189.24H1484.53V190.24ZM1399.92 190.24V189.24H1398.92V190.24H1399.92ZM1399.92 211.872H1398.92V212.872H1399.92V211.872ZM1430.26 211.872H1431.26V210.872H1430.26V211.872ZM1430.26 276H1429.26V277H1430.26V276ZM1455.32 276V211.872H1453.32V276H1455.32ZM1454.32 212.872H1484.53V210.872H1454.32V212.872ZM1485.53 211.872V190.24H1483.53V211.872H1485.53ZM1484.53 189.24H1399.92V191.24H1484.53V189.24ZM1398.92 190.24V211.872H1400.92V190.24H1398.92ZM1399.92 212.872H1430.26V210.872H1399.92V212.872ZM1429.26 211.872V276H1431.26V211.872H1429.26ZM1430.26 277H1454.32V275H1430.26V277ZM1566.5 276V277H1567.5V276H1566.5ZM1566.5 254.368H1567.5V253.368H1566.5V254.368ZM1514.4 254.368H1513.4V255.368H1514.4V254.368ZM1514.4 243.616V242.616H1513.4V243.616H1514.4ZM1564.58 243.616V244.616H1565.58V243.616H1564.58ZM1564.58 222.112H1565.58V221.112H1564.58V222.112ZM1514.4 222.112H1513.4V223.112H1514.4V222.112ZM1514.4 211.872V210.872H1513.4V211.872H1514.4ZM1566.5 211.872V212.872H1567.5V211.872H1566.5ZM1566.5 190.24H1567.5V189.24H1566.5V190.24ZM1490.34 190.24V189.24H1489.34V190.24H1490.34ZM1490.34 276H1489.34V277H1490.34V276ZM1567.5 276V254.368H1565.5V276H1567.5ZM1566.5 253.368H1514.4V255.368H1566.5V253.368ZM1515.4 254.368V243.616H1513.4V254.368H1515.4ZM1514.4 244.616H1564.58V242.616H1514.4V244.616ZM1565.58 243.616V222.112H1563.58V243.616H1565.58ZM1564.58 221.112H1514.4V223.112H1564.58V221.112ZM1515.4 222.112V211.872H1513.4V222.112H1515.4ZM1514.4 212.872H1566.5V210.872H1514.4V212.872ZM1567.5 211.872V190.24H1565.5V211.872H1567.5ZM1566.5 189.24H1490.34V191.24H1566.5V189.24ZM1489.34 190.24V276H1491.34V190.24H1489.34ZM1490.34 277H1566.5V275H1490.34V277ZM1604.57 276V277H1605.57V276H1604.57ZM1604.57 251.424H1605.57V250.424H1604.57V251.424ZM1573.34 251.424V250.424H1572.34V251.424H1573.34ZM1573.34 276H1572.34V277H1573.34V276ZM1605.57 276V251.424H1603.57V276H1605.57ZM1604.57 250.424H1573.34V252.424H1604.57V250.424ZM1572.34 251.424V276H1574.34V251.424H1572.34ZM1573.34 277H1604.57V275H1573.34V277Z" fill="white" fill-opacity="0.12"/>
<path d="M473.312 189C493.792 189 502.112 179.656 502.112 165.192C502.112 153.288 493.92 145.352 476.768 144.712V143.432C492.384 142.792 498.144 134.984 498.144 123.976C498.144 110.536 488.928 103.24 470.368 103.24H415.84V189H473.312ZM439.776 124.872H467.168C472.16 124.872 474.08 126.408 474.08 130.376C474.08 134.344 472.672 135.752 467.808 135.752H439.776V124.872ZM439.776 155.464H470.24C476.128 155.464 477.792 156.616 477.792 161.352C477.792 166.216 476 167.368 470.24 167.368H439.776V155.464ZM550.479 190.28C580.431 190.28 594.255 175.816 594.255 153.032V103.24H570.191V151.112C570.191 163.272 566.735 166.984 550.479 166.984C534.223 166.984 530.767 163.272 530.767 151.112V103.24H506.703V153.032C506.703 175.816 520.527 190.28 550.479 190.28ZM625.529 189V103.24H601.465V189H625.529ZM706.815 189V167.368H657.279V103.24H633.215V189H706.815ZM758.015 189C786.303 189 804.223 173.256 804.223 146.12C804.223 118.984 786.303 103.24 758.015 103.24H714.623V189H758.015ZM758.015 124.872C773.247 124.872 778.495 126.792 778.495 146.12C778.495 165.448 773.247 167.368 758.015 167.368H738.687V124.872H758.015ZM820.574 210.248C834.014 210.248 841.822 203.848 841.822 190.664V164.424H810.59V189H824.286V190.792C824.286 194.504 822.878 195.4 819.806 195.4H811.742V210.248H820.574ZM913.42 190.28C942.22 190.28 959.5 176.584 959.5 153.672V151.496H932.62V153.672C932.62 163.4 928.012 167.24 913.804 167.24C896.396 167.24 891.66 163.144 891.66 146.12C891.66 129.096 896.396 125 913.804 125C928.012 125 932.62 128.84 932.62 138.568V140.744H959.5V138.568C959.5 115.656 942.22 101.96 913.42 101.96C883.596 101.96 866.06 119.368 866.06 146.12C866.06 172.872 883.596 190.28 913.42 190.28ZM989.904 189V159.816H999.76C1009.1 159.816 1011.66 161.608 1014.74 168.008L1024.98 189H1052.75L1042.13 167.496C1038.93 160.968 1036.11 156.744 1027.28 154.44V153.16C1043.66 151.112 1050.45 143.048 1050.45 129.48C1050.45 112.712 1038.54 103.24 1015.89 103.24H965.84V189H989.904ZM989.904 124.872H1015.63C1022.67 124.872 1025.23 126.536 1025.23 133.32C1025.23 140.616 1022.67 141.896 1015.63 141.896H989.904V124.872ZM1132.75 189V167.368H1080.65V156.616H1130.83V135.112H1080.65V124.872H1132.75V103.24H1056.59V189H1132.75ZM1161.48 189L1168.13 173.128H1208.84L1215.37 189H1243.01L1205.89 103.24H1171.46L1134.47 189H1161.48ZM1182.21 139.464L1187.72 125H1189.38L1195.01 139.464L1200.01 151.496H1177.22L1182.21 139.464ZM1298.07 189V124.872H1328.28V103.24H1243.67V124.872H1274.01V189H1298.07ZM1410.25 189V167.368H1358.15V156.616H1408.33V135.112H1358.15V124.872H1410.25V103.24H1334.09V189H1410.25ZM1427.07 210.248C1440.51 210.248 1448.32 203.848 1448.32 190.664V164.424H1417.09V189H1430.79V190.792C1430.79 194.504 1429.38 195.4 1426.31 195.4H1418.24V210.248H1427.07ZM457.312 347.28C477.408 347.28 484.704 337.68 487.008 327.696H488.288V346H510.688V299.152H460V316.816H486.368C485.216 323.344 480.096 324.24 462.304 324.24C444.896 324.24 440.16 320.144 440.16 303.12C440.16 286.096 445.152 282 463.584 282C478.816 282 483.68 285.072 483.68 293.008V293.904H510.56V293.008C510.56 271.76 493.28 258.96 464.224 258.96C432.992 258.96 414.56 276.368 414.56 303.12C414.56 329.872 430.304 347.28 457.312 347.28ZM594 346V324.368H541.904V313.616H592.08V292.112H541.904V281.872H594V260.24H517.84V346H594ZM624.904 346V312.464L623.88 296.08H625.544L636.424 312.976L661.768 346H687.368V260.24H663.304V293.392L664.456 312.08H662.792L650.248 292.368L626.44 260.24H600.84V346H624.904ZM771.25 346V324.368H719.154V313.616H769.33V292.112H719.154V281.872H771.25V260.24H695.09V346H771.25ZM802.154 346V316.816H812.01C821.354 316.816 823.914 318.608 826.986 325.008L837.226 346H865.002L854.378 324.496C851.178 317.968 848.362 313.744 839.53 311.44V310.16C855.914 308.112 862.698 300.048 862.698 286.48C862.698 269.712 850.794 260.24 828.138 260.24H778.09V346H802.154ZM802.154 281.872H827.882C834.922 281.872 837.482 283.536 837.482 290.32C837.482 297.616 834.922 298.896 827.882 298.896H802.154V281.872ZM890.728 346L897.384 330.128H938.088L944.616 346H972.264L935.144 260.24H900.712L863.72 346H890.728ZM911.464 296.464L916.968 282H918.632L924.264 296.464L929.256 308.496H906.472L911.464 296.464ZM1027.32 346V281.872H1057.53V260.24H972.92V281.872H1003.26V346H1027.32ZM1139.5 346V324.368H1087.4V313.616H1137.58V292.112H1087.4V281.872H1139.5V260.24H1063.34V346H1139.5ZM1177.57 346V321.424H1146.34V346H1177.57Z" fill="white"/>
<g clip-path="url(#clip0_805_3596)">
<path d="M1378.06 286.514C1379.68 283.375 1380.49 279.784 1380.49 275.743C1380.49 275.623 1380.48 275.259 1380.46 274.644C1380.44 274.03 1380.41 273.565 1380.37 273.248H1365V278.862H1372.66C1372.29 281.317 1371.59 283.365 1370.55 284.998C1369.5 286.631 1368.16 287.85 1366.51 288.651C1364.87 289.453 1362.95 289.844 1360.76 289.824C1357.85 289.784 1355.42 289.119 1353.49 287.833C1351.55 286.547 1350.1 284.747 1349.13 282.439C1348.17 280.132 1347.69 277.413 1347.69 274.283C1347.69 271.154 1348.17 268.419 1349.15 266.084C1350.12 263.746 1351.57 261.936 1353.5 260.647C1355.43 259.361 1357.85 258.736 1360.76 258.777C1363.65 258.777 1366.03 259.535 1367.9 261.051C1369.76 262.567 1371.11 264.591 1371.93 267.126L1379.34 265.967C1378.24 261.552 1376.12 258.119 1373 255.67C1369.88 253.226 1365.64 252 1360.3 252C1356.45 252 1352.98 252.885 1349.91 254.659C1346.84 256.432 1344.42 258.977 1342.65 262.293C1340.88 265.613 1340 269.608 1340 274.283C1340 277.85 1340.52 281.013 1341.57 283.775C1342.61 286.537 1344.06 288.872 1345.92 290.772C1347.78 292.673 1349.94 294.115 1352.4 295.094C1354.86 296.076 1357.49 296.564 1360.3 296.564C1364.5 296.564 1368.11 295.672 1371.12 293.888C1374.13 292.105 1376.45 289.643 1378.06 286.504V286.514Z" fill="white"/>
<path d="M1412.48 281.628H1416.03C1416.31 277.787 1415.88 274.447 1414.74 271.615C1413.59 268.783 1411.84 266.589 1409.48 265.032C1407.12 263.476 1404.25 262.701 1400.88 262.701C1397.69 262.701 1394.88 263.416 1392.45 264.842C1390.02 266.268 1388.12 268.275 1386.75 270.86C1385.39 273.445 1384.71 276.491 1384.71 279.998C1384.71 283.248 1385.4 286.12 1386.8 288.615C1388.19 291.11 1390.14 293.063 1392.63 294.469C1395.11 295.876 1398.01 296.58 1401.3 296.58C1404.59 296.58 1407.3 295.779 1409.9 294.172C1412.5 292.569 1414.42 290.318 1415.67 287.429L1408.5 285.288C1407.8 286.774 1406.8 287.907 1405.51 288.692C1404.21 289.473 1402.67 289.864 1400.88 289.864C1398.11 289.864 1396 288.972 1394.56 287.189C1393.42 285.789 1392.74 283.932 1392.49 281.631H1412.48V281.628ZM1401.18 268.97C1403.81 268.97 1405.74 269.771 1406.97 271.378C1407.84 272.517 1408.4 274.133 1408.66 276.221H1392.67C1393 274.367 1393.63 272.854 1394.56 271.688C1396 269.875 1398.21 268.97 1401.18 268.97Z" fill="white"/>
<path d="M1444.38 280.232V295.682H1451.73V277.764C1451.73 276.992 1451.66 275.987 1451.53 274.748C1451.4 273.509 1451.11 272.196 1450.67 270.81C1450.23 269.424 1449.55 268.118 1448.62 266.889C1447.7 265.66 1446.45 264.651 1444.89 263.86C1443.32 263.068 1441.33 262.671 1438.92 262.671C1435.87 262.671 1433.3 263.329 1431.21 264.648C1430.09 265.356 1429.12 266.198 1428.29 267.166V263.593H1421.81V295.682H1429.16V279.19C1429.16 277.229 1429.38 275.619 1429.83 274.36C1430.27 273.101 1430.86 272.113 1431.59 271.388C1432.32 270.663 1433.14 270.155 1434.04 269.858C1434.95 269.561 1435.86 269.414 1436.78 269.414C1438.51 269.414 1439.88 269.781 1440.89 270.513C1441.91 271.248 1442.67 272.183 1443.18 273.322C1443.69 274.461 1444.02 275.646 1444.16 276.872C1444.3 278.101 1444.37 279.22 1444.37 280.228L1444.38 280.232Z" fill="white"/>
<path d="M1488.2 287.422L1481.03 285.282C1480.33 286.768 1479.33 287.9 1478.04 288.685C1476.74 289.466 1475.2 289.857 1473.41 289.857C1470.64 289.857 1468.53 288.965 1467.09 287.182C1465.95 285.783 1465.27 283.926 1465.03 281.624H1488.56C1488.84 277.784 1488.41 274.444 1487.27 271.612C1486.12 268.779 1484.37 266.585 1482.01 265.029C1479.65 263.472 1476.78 262.698 1473.41 262.698C1470.22 262.698 1467.41 263.412 1464.98 264.838C1462.55 266.264 1460.65 268.272 1459.29 270.857C1457.92 273.442 1457.24 276.488 1457.24 279.995C1457.24 283.244 1457.94 286.117 1459.33 288.611C1460.73 291.106 1462.67 293.06 1465.16 294.466C1467.65 295.872 1470.54 296.577 1473.83 296.577C1477.13 296.577 1479.83 295.775 1482.43 294.169C1485.03 292.566 1486.96 290.315 1488.2 287.426V287.422ZM1473.71 268.97C1476.34 268.97 1478.27 269.771 1479.5 271.378C1480.37 272.517 1480.93 274.133 1481.19 276.221H1465.2C1465.53 274.367 1466.16 272.854 1467.09 271.688C1468.53 269.875 1470.74 268.97 1473.71 268.97Z" fill="white"/>
<path d="M1502.6 279.37C1502.6 278.141 1502.75 276.999 1503.05 275.937C1503.35 274.878 1503.82 273.933 1504.45 273.098C1505.08 272.263 1505.9 271.581 1506.91 271.047C1507.91 270.453 1509.04 270.105 1510.29 270.008C1511.55 269.908 1512.66 269.998 1513.62 270.276V263.589C1512.66 263.432 1511.67 263.385 1510.64 263.456C1509.62 263.526 1508.61 263.713 1507.64 264.02C1506.67 264.327 1505.78 264.748 1504.98 265.282C1504.03 265.857 1503.22 266.585 1502.55 267.467C1502.25 267.868 1501.98 268.288 1501.72 268.726V263.589H1495.31V295.678H1502.6V279.367V279.37Z" fill="white"/>
<path d="M1527.69 296.573C1530.62 296.573 1533.07 296.032 1535.02 294.954C1536.53 294.122 1537.89 292.923 1539.1 291.357V295.682H1545.46V275.983C1545.46 274.597 1545.4 273.315 1545.28 272.136C1545.16 270.957 1544.81 269.805 1544.23 268.676C1543.16 266.555 1541.53 265.032 1539.33 264.1C1537.13 263.168 1534.59 262.704 1531.7 262.704C1527.86 262.704 1524.81 263.526 1522.55 265.169C1520.3 266.812 1518.76 268.993 1517.96 271.705L1524.59 273.756C1525.13 272.112 1526.08 270.953 1527.45 270.279C1528.81 269.604 1530.23 269.267 1531.69 269.267C1534.12 269.267 1535.85 269.791 1536.87 270.84C1537.72 271.712 1538.21 272.994 1538.34 274.674C1537.03 274.865 1535.75 275.048 1534.51 275.222C1532.45 275.509 1530.54 275.82 1528.79 276.157C1527.03 276.494 1525.5 276.868 1524.19 277.286C1522.47 277.86 1521.06 278.598 1519.97 279.5C1518.89 280.402 1518.08 281.471 1517.56 282.71C1517.04 283.949 1516.78 285.338 1516.78 286.885C1516.78 288.648 1517.2 290.261 1518.03 291.727C1518.86 293.194 1520.09 294.366 1521.72 295.248C1523.35 296.129 1525.34 296.57 1527.69 296.57L1527.69 296.573ZM1524.36 284.984C1524.67 284.47 1525.12 284.012 1525.7 283.618C1526.29 283.221 1527 282.877 1527.84 282.58C1528.71 282.302 1529.7 282.048 1530.83 281.821C1531.95 281.594 1533.29 281.35 1534.86 281.093C1535.86 280.93 1536.99 280.749 1538.25 280.549C1538.24 281.093 1538.22 281.715 1538.19 282.413C1538.14 283.592 1537.93 284.637 1537.55 285.549C1537.31 286.283 1536.84 287.065 1536.14 287.897C1535.45 288.728 1534.52 289.433 1533.36 290.007C1532.19 290.582 1530.79 290.869 1529.14 290.869C1528 290.869 1527.04 290.692 1526.26 290.335C1525.49 289.977 1524.9 289.5 1524.5 288.895C1524.1 288.291 1523.9 287.593 1523.9 286.801C1523.9 286.106 1524.05 285.505 1524.37 284.988L1524.36 284.984Z" fill="white"/>
<path d="M1572.36 269.207V263.592H1562.81V254.678H1555.58V263.592H1549.68V269.207H1555.58V282.576C1555.58 284.4 1555.6 286.033 1555.64 287.479C1555.68 288.925 1556.07 290.341 1556.82 291.727C1557.66 293.254 1558.9 294.366 1560.52 295.071C1562.15 295.775 1563.99 296.149 1566.05 296.199C1568.11 296.25 1570.21 296.076 1572.36 295.678V289.677C1570.33 289.974 1568.52 290.054 1566.94 289.914C1565.35 289.777 1564.2 289.112 1563.48 287.923C1563.09 287.309 1562.89 286.517 1562.86 285.545C1562.83 284.573 1562.82 283.445 1562.82 282.159V269.203H1572.36L1572.36 269.207Z" fill="white"/>
<path d="M1600.69 265.032C1598.33 263.476 1595.46 262.701 1592.09 262.701C1588.9 262.701 1586.09 263.416 1583.66 264.842C1581.22 266.268 1579.33 268.275 1577.96 270.86C1576.6 273.445 1575.92 276.491 1575.92 279.998C1575.92 283.248 1576.61 286.12 1578.01 288.615C1579.4 291.11 1581.35 293.063 1583.83 294.469C1586.32 295.876 1589.21 296.58 1592.51 296.58C1595.8 296.58 1598.51 295.779 1601.11 294.172C1603.71 292.569 1605.63 290.318 1606.88 287.429L1599.71 285.288C1599.01 286.774 1598.01 287.907 1596.71 288.692C1595.42 289.473 1593.88 289.864 1592.09 289.864C1589.32 289.864 1587.21 288.972 1585.76 287.189C1584.63 285.789 1583.95 283.932 1583.7 281.631H1607.24C1607.52 277.79 1607.09 274.45 1605.94 271.618C1604.8 268.786 1603.05 266.592 1600.69 265.035V265.032ZM1592.39 268.97C1595.02 268.97 1596.95 269.771 1598.17 271.378C1599.04 272.517 1599.61 274.133 1599.87 276.221H1583.88C1584.21 274.367 1584.84 272.854 1585.76 271.688C1587.21 269.875 1589.42 268.97 1592.39 268.97Z" fill="white"/>
<path d="M1351.86 303.026H1344.72V345.122H1370.71V338.512H1351.86V303.026Z" fill="white"/>
<path d="M1400.97 318.546C1399.92 316.462 1398.31 314.959 1396.15 314.044C1393.99 313.129 1391.48 312.671 1388.64 312.671C1384.86 312.671 1381.87 313.48 1379.64 315.096C1377.42 316.713 1375.92 318.857 1375.12 321.529L1381.65 323.546C1382.18 321.929 1383.12 320.787 1384.46 320.126C1385.81 319.465 1387.2 319.131 1388.64 319.131C1391.03 319.131 1392.73 319.648 1393.74 320.68C1394.57 321.539 1395.05 322.801 1395.18 324.454C1393.89 324.641 1392.63 324.822 1391.41 324.992C1389.39 325.276 1387.51 325.583 1385.78 325.914C1384.05 326.245 1382.54 326.615 1381.26 327.026C1379.56 327.591 1378.18 328.319 1377.11 329.204C1376.05 330.092 1375.25 331.144 1374.74 332.36C1374.23 333.579 1373.97 334.948 1373.97 336.468C1373.97 338.201 1374.38 339.791 1375.2 341.234C1376.02 342.677 1377.23 343.832 1378.83 344.697C1380.43 345.562 1382.38 346 1384.7 346C1387.58 346 1389.99 345.469 1391.91 344.407C1393.39 343.588 1394.73 342.406 1395.93 340.87V345.125H1402.18V325.744C1402.18 324.381 1402.12 323.118 1402 321.96C1401.88 320.801 1401.54 319.665 1400.97 318.553V318.546ZM1394.39 335.152C1394.15 335.873 1393.69 336.642 1393.01 337.46C1392.33 338.278 1391.41 338.969 1390.27 339.534C1389.12 340.098 1387.74 340.382 1386.12 340.382C1384.99 340.382 1384.05 340.205 1383.29 339.854C1382.53 339.504 1381.95 339.033 1381.55 338.435C1381.16 337.841 1380.96 337.153 1380.96 336.374C1380.96 335.693 1381.11 335.098 1381.42 334.591C1381.73 334.083 1382.17 333.636 1382.74 333.245C1383.31 332.854 1384.01 332.513 1384.84 332.223C1385.69 331.949 1386.67 331.702 1387.78 331.478C1388.88 331.254 1390.21 331.014 1391.75 330.763C1392.73 330.603 1393.85 330.423 1395.08 330.229C1395.07 330.763 1395.05 331.375 1395.02 332.063C1394.97 333.221 1394.76 334.25 1394.39 335.145V335.152Z" fill="white"/>
<path d="M1432.87 314.849C1430.65 313.396 1428.02 312.672 1425 312.672C1421.97 312.672 1419.4 313.396 1417.34 314.849C1417.23 314.926 1417.13 315.006 1417.02 315.086V303.026H1409.82V345.122H1416.13V342.794C1416.54 343.154 1416.96 343.495 1417.41 343.806C1419.52 345.269 1422.14 345.997 1425.26 345.997C1428.2 345.997 1430.77 345.265 1432.97 343.806C1435.16 342.343 1436.86 340.356 1438.06 337.841C1439.27 335.326 1439.87 332.49 1439.87 329.334C1439.87 326.178 1439.26 323.289 1438.03 320.784C1436.81 318.279 1435.08 316.302 1432.86 314.849H1432.87ZM1431.44 334.581C1430.86 336.151 1429.97 337.393 1428.76 338.308C1427.56 339.223 1426.03 339.681 1424.17 339.681C1422.31 339.681 1420.7 339.247 1419.53 338.382C1418.36 337.513 1417.5 336.301 1416.95 334.741C1416.4 333.182 1416.13 331.378 1416.13 329.334C1416.13 327.29 1416.4 325.46 1416.95 323.91C1417.49 322.361 1418.34 321.151 1419.48 320.286C1420.63 319.418 1422.11 318.987 1423.93 318.987C1425.84 318.987 1427.43 319.451 1428.67 320.377C1429.91 321.302 1430.83 322.551 1431.42 324.117C1432.02 325.687 1432.31 327.427 1432.31 329.334C1432.31 331.241 1432.02 333.011 1431.44 334.581H1431.44Z" fill="white"/>
<path d="M1466.89 328.646C1465.36 327.818 1463.32 327.083 1460.77 326.438C1458.28 325.814 1456.41 325.289 1455.15 324.859C1453.9 324.431 1453.06 324 1452.65 323.573C1452.23 323.145 1452.02 322.627 1452.02 322.023C1452.02 320.951 1452.54 320.119 1453.56 319.525C1454.59 318.93 1455.95 318.683 1457.62 318.78C1459.38 318.877 1460.79 319.318 1461.85 320.096C1462.9 320.874 1463.52 321.936 1463.7 323.282L1470.99 321.996C1470.71 320.106 1469.98 318.459 1468.79 317.057C1467.61 315.654 1466.05 314.572 1464.13 313.81C1462.2 313.049 1459.99 312.671 1457.5 312.671C1455.01 312.671 1452.74 313.066 1450.86 313.854C1448.99 314.642 1447.52 315.767 1446.48 317.23C1445.43 318.693 1444.91 320.406 1444.91 322.374C1444.91 323.953 1445.25 325.296 1445.94 326.408C1446.63 327.52 1447.77 328.479 1449.35 329.287C1450.93 330.095 1453.07 330.85 1455.76 331.552C1458.17 332.176 1459.95 332.69 1461.12 333.101C1462.28 333.512 1463.04 333.933 1463.39 334.374C1463.73 334.811 1463.91 335.392 1463.91 336.114C1463.91 337.283 1463.43 338.205 1462.5 338.876C1461.56 339.547 1460.23 339.885 1458.51 339.885C1456.55 339.885 1454.94 339.437 1453.65 338.539C1452.37 337.643 1451.54 336.414 1451.16 334.855L1443.87 335.967C1444.41 339.143 1445.91 341.608 1448.38 343.361C1450.85 345.115 1454.06 345.993 1458.01 345.993C1461.97 345.993 1465.37 345.088 1467.72 343.274C1470.06 341.461 1471.23 338.969 1471.23 335.79C1471.23 334.153 1470.89 332.761 1470.21 331.608C1469.53 330.459 1468.42 329.471 1466.89 328.643V328.646Z" fill="white"/>
<path d="M1513.67 336.051C1510.31 329.912 1506.94 323.773 1503.59 317.631C1503.45 317.388 1503.38 317.114 1503.38 316.837C1503.37 313.029 1503.34 309.218 1503.39 305.411C1503.41 303.931 1502.35 303.01 1500.95 303.026C1497.33 303.066 1493.71 303.04 1490.09 303.04C1488.56 303.04 1487.71 303.868 1487.71 305.371C1487.71 309.195 1487.71 313.019 1487.7 316.843C1487.7 317.121 1487.63 317.394 1487.49 317.642C1483.88 324.251 1480.26 330.854 1476.64 337.457C1475.57 339.414 1475.62 341.331 1476.98 343.165C1477.72 344.153 1478.83 344.758 1480.05 345.028C1480.08 345.035 1480.12 345.045 1480.16 345.055C1480.3 345.095 1480.45 345.118 1480.61 345.118H1510.4C1510.59 345.118 1510.77 345.088 1510.94 345.032C1511.55 344.825 1512.18 344.661 1512.73 344.347C1514.13 343.532 1514.92 342.27 1515.13 340.666C1515.13 340.64 1515.14 340.613 1515.14 340.59C1515.19 340.436 1515.19 340.276 1515.19 340.115V339.818C1515.19 339.738 1515.19 339.654 1515.18 339.574C1514.99 338.272 1514.28 337.18 1513.67 336.051H1513.67ZM1495.96 317.631C1495.98 317.581 1496.01 317.558 1496.07 317.545C1496.24 317.498 1496.41 317.451 1496.58 317.401C1497.07 317.251 1497.41 316.937 1497.58 316.453C1497.64 316.272 1497.69 316.085 1497.74 315.898C1497.75 315.848 1497.78 315.815 1497.83 315.795H1497.86C1497.92 315.811 1497.94 315.848 1497.95 315.898C1498 316.068 1498.04 316.239 1498.1 316.406C1498.26 316.923 1498.62 317.261 1499.14 317.411C1499.31 317.458 1499.47 317.505 1499.64 317.548C1499.7 317.565 1499.73 317.598 1499.73 317.645C1499.73 317.695 1499.7 317.728 1499.64 317.748C1499.44 317.805 1499.24 317.852 1499.05 317.919C1498.55 318.089 1498.23 318.43 1498.09 318.924C1498.04 319.088 1497.99 319.251 1497.95 319.412C1497.93 319.475 1497.9 319.509 1497.84 319.505C1497.79 319.505 1497.76 319.475 1497.74 319.408C1497.69 319.218 1497.64 319.028 1497.58 318.841C1497.41 318.36 1497.08 318.042 1496.58 317.892C1496.41 317.839 1496.24 317.792 1496.07 317.748C1496.02 317.735 1495.98 317.712 1495.96 317.662V317.625V317.631ZM1494.15 327.05C1494.19 326.953 1494.26 326.91 1494.36 326.883C1494.7 326.793 1495.04 326.703 1495.37 326.599C1496.33 326.305 1496.99 325.687 1497.32 324.742C1497.44 324.385 1497.53 324.021 1497.63 323.657C1497.66 323.56 1497.71 323.49 1497.81 323.456H1497.88C1497.98 323.49 1498.03 323.56 1498.05 323.657C1498.15 323.987 1498.24 324.321 1498.34 324.649C1498.67 325.664 1499.35 326.322 1500.39 326.619C1500.71 326.709 1501.03 326.799 1501.35 326.89C1501.47 326.923 1501.53 326.986 1501.53 327.083C1501.53 327.18 1501.48 327.247 1501.35 327.284C1500.97 327.394 1500.57 327.484 1500.2 327.614C1499.23 327.948 1498.61 328.613 1498.32 329.585C1498.23 329.902 1498.14 330.223 1498.04 330.543C1498.01 330.67 1497.94 330.73 1497.84 330.73C1497.75 330.73 1497.68 330.67 1497.64 330.543C1497.54 330.173 1497.44 329.799 1497.32 329.435C1496.99 328.489 1496.33 327.875 1495.37 327.578C1495.04 327.477 1494.7 327.384 1494.36 327.294C1494.26 327.267 1494.19 327.22 1494.15 327.127V327.053V327.05ZM1489.39 322.281C1489.42 322.217 1489.46 322.19 1489.53 322.17C1489.75 322.114 1489.96 322.053 1490.18 321.987C1490.8 321.796 1491.22 321.399 1491.43 320.791C1491.51 320.561 1491.57 320.327 1491.63 320.093C1491.65 320.03 1491.69 319.986 1491.75 319.963H1491.79C1491.85 319.986 1491.89 320.03 1491.91 320.093C1491.96 320.307 1492.02 320.52 1492.09 320.731C1492.3 321.385 1492.75 321.806 1493.41 322C1493.62 322.06 1493.83 322.117 1494.03 322.174C1494.11 322.197 1494.15 322.237 1494.15 322.297C1494.15 322.361 1494.11 322.404 1494.03 322.428C1493.78 322.498 1493.53 322.558 1493.29 322.641C1492.67 322.858 1492.27 323.286 1492.08 323.91C1492.02 324.114 1491.96 324.321 1491.9 324.528C1491.88 324.608 1491.83 324.649 1491.77 324.649C1491.71 324.649 1491.67 324.608 1491.64 324.528C1491.57 324.291 1491.52 324.047 1491.44 323.814C1491.23 323.206 1490.8 322.808 1490.18 322.618C1489.97 322.551 1489.75 322.494 1489.54 322.434C1489.47 322.418 1489.42 322.387 1489.4 322.324V322.277L1489.39 322.281ZM1508.48 340.179C1508.09 340.406 1507.57 340.506 1507.1 340.509C1505.17 340.523 1503.24 340.526 1501.31 340.526C1499.39 340.526 1497.46 340.526 1495.53 340.526C1493.6 340.526 1491.66 340.526 1489.72 340.526C1487.79 340.526 1485.85 340.526 1483.92 340.526C1482.83 340.526 1482.1 340.065 1481.76 339.17C1481.52 338.552 1481.61 337.954 1481.93 337.39C1482.85 335.737 1483.78 334.084 1484.72 332.444C1485.17 331.656 1485.89 331.295 1486.81 331.385C1488.43 331.545 1489.91 332.173 1491.41 332.738C1492.98 333.325 1494.54 333.947 1496.13 334.448C1497.99 335.039 1499.86 334.808 1501.67 334.14C1502.52 333.83 1503.33 333.436 1504.14 333.052C1505.28 332.51 1506.65 332.938 1507.27 334.03C1507.9 335.132 1508.53 336.234 1509.14 337.347C1509.74 338.439 1509.51 339.598 1508.49 340.182L1508.48 340.179Z" fill="white"/>
<path d="M1597.21 303.38H1534.66C1532.62 303.38 1530.82 304.716 1530.26 306.65L1520.9 338.806C1520.06 341.695 1522.25 344.57 1525.3 344.57H1588.49C1590.57 344.57 1592.38 343.194 1592.92 341.221L1601.63 309.065C1602.41 306.196 1600.22 303.38 1597.21 303.38H1597.21ZM1535.47 330.67H1532.17V327.42H1535.47V330.67ZM1551.92 330.67L1550.59 326.565H1543.03L1541.71 330.67H1538.41L1544.46 311.716H1549.17L1555.23 330.67H1551.92H1551.92ZM1570.32 327.394C1569.78 328.526 1569.01 329.421 1568.02 330.079C1567.03 330.737 1565.88 331.067 1564.55 331.067C1563.15 331.067 1561.97 330.737 1561.02 330.079C1560.96 330.039 1560.9 329.992 1560.84 329.949V336.989H1557.6V316.456H1560.44V317.474C1560.61 317.321 1560.79 317.174 1560.98 317.04C1561.91 316.385 1563.06 316.058 1564.43 316.058C1565.81 316.058 1566.98 316.385 1567.98 317.04C1568.98 317.695 1569.75 318.583 1570.3 319.712C1570.86 320.841 1571.13 322.123 1571.13 323.563C1571.13 325.002 1570.86 326.261 1570.32 327.394ZM1586.76 327.394C1586.21 328.526 1585.45 329.421 1584.46 330.079C1583.47 330.737 1582.32 331.067 1580.99 331.067C1579.59 331.067 1578.41 330.737 1577.46 330.079C1577.39 330.039 1577.34 329.992 1577.28 329.949V336.989H1574.04V316.456H1576.88V317.474C1577.05 317.321 1577.23 317.174 1577.42 317.04C1578.35 316.385 1579.5 316.058 1580.87 316.058C1582.24 316.058 1583.41 316.385 1584.41 317.04C1585.42 317.695 1586.19 318.583 1586.74 319.712C1587.29 320.841 1587.57 322.123 1587.57 323.563C1587.57 325.002 1587.3 326.261 1586.76 327.394Z" fill="white"/>
<path d="M1582.53 319.532C1581.97 319.114 1581.25 318.907 1580.39 318.907C1579.57 318.907 1578.91 319.101 1578.39 319.492C1577.88 319.882 1577.49 320.427 1577.25 321.125C1577.01 321.823 1576.88 322.638 1576.88 323.566C1576.88 324.495 1577.01 325.3 1577.25 326.001C1577.49 326.702 1577.88 327.25 1578.41 327.641C1578.94 328.032 1579.64 328.225 1580.5 328.225C1581.36 328.225 1582.02 328.018 1582.57 327.608C1583.11 327.193 1583.51 326.636 1583.78 325.931C1584.04 325.223 1584.17 324.438 1584.17 323.57C1584.17 322.701 1584.04 321.926 1583.77 321.222C1583.5 320.517 1583.09 319.953 1582.53 319.538L1582.53 319.532Z" fill="white"/>
<path d="M1566.09 319.532C1565.53 319.114 1564.82 318.907 1563.95 318.907C1563.13 318.907 1562.47 319.101 1561.95 319.492C1561.44 319.882 1561.05 320.427 1560.81 321.125C1560.57 321.823 1560.45 322.638 1560.45 323.566C1560.45 324.495 1560.57 325.3 1560.81 326.001C1561.05 326.702 1561.44 327.25 1561.97 327.641C1562.5 328.032 1563.2 328.225 1564.06 328.225C1564.92 328.225 1565.59 328.018 1566.13 327.608C1566.67 327.193 1567.07 326.636 1567.34 325.931C1567.6 325.223 1567.73 324.438 1567.73 323.57C1567.73 322.701 1567.6 321.926 1567.33 321.222C1567.06 320.517 1566.65 319.953 1566.09 319.538L1566.09 319.532Z" fill="white"/>
<path d="M1543.97 323.606H1549.63L1546.78 314.789L1543.97 323.606Z" fill="white"/>
</g>
<defs>
<clipPath id="clip0_805_3596">
<rect width="268" height="94" fill="white" transform="translate(1340 252)"/>
</clipPath>
</defs>
</svg>
