<svg width="268" height="94" viewBox="0 0 268 94" fill="none" xmlns="http://www.w3.org/2000/svg">
<path d="M38.0636 34.514C39.6787 31.3745 40.4878 27.7842 40.4878 23.743C40.4878 23.6228 40.4777 23.2587 40.4574 22.6442C40.4371 22.0296 40.4066 21.5654 40.366 21.2481H25.0044V26.8624H32.6564C32.2941 29.3171 31.5933 31.3645 30.547 32.9977C29.5042 34.6309 28.1567 35.8499 26.5111 36.6515C24.8656 37.453 22.9458 37.8438 20.7586 37.8238C17.8468 37.7837 15.4225 37.1191 13.4858 35.8332C11.5491 34.5474 10.0966 32.7472 9.1316 30.4394C8.16663 28.1316 7.68584 25.4129 7.68584 22.2834C7.68584 19.154 8.17342 16.4187 9.14515 14.0841C10.1203 11.7462 11.5694 9.93609 13.4993 8.64691C15.4259 7.36107 17.8468 6.73648 20.7586 6.77656C23.6501 6.77656 26.0303 7.53472 27.8959 9.05101C29.7649 10.5673 31.1091 12.5912 31.9319 15.1262L39.3401 13.9673C38.2363 9.55198 36.1235 6.11859 32.9984 3.67049C29.8766 1.22572 25.6443 0 20.3015 0C16.445 0 12.9813 0.885046 9.91036 2.6585C6.8394 4.43196 4.4185 6.97696 2.6511 10.2934C0.883689 13.6132 0 17.6077 0 22.2834C0 25.8504 0.521421 29.0133 1.56765 31.7753C2.61048 34.5374 4.063 36.8719 5.92183 38.7723C7.78065 40.6727 9.93744 42.1155 12.3989 43.094C14.8571 44.076 17.4946 44.5635 20.3049 44.5635C24.4999 44.5635 28.1059 43.6718 31.1193 41.8883C34.1327 40.1048 36.4452 37.6434 38.0636 34.504V34.514Z" fill="white"/>
<path d="M72.4777 29.6278H76.0328C76.3138 25.787 75.8804 22.4471 74.736 19.615C73.5916 16.7828 71.8377 14.5885 69.4812 13.0321C67.1213 11.4758 64.2535 10.7009 60.8812 10.7009C57.6883 10.7009 54.8781 11.4156 52.4471 12.8417C50.016 14.2679 48.1199 16.2751 46.7554 18.8601C45.3909 21.4452 44.707 24.4912 44.707 27.998C44.707 31.2477 45.4045 34.12 46.7995 36.6148C48.1944 39.1097 50.1379 41.0634 52.6265 42.4695C55.1151 43.8756 58.0066 44.5803 61.301 44.5803C64.5955 44.5803 67.3007 43.7788 69.901 42.1723C72.5014 40.5692 74.4245 38.3181 75.6705 35.4292L68.5027 33.2883C67.7984 34.7745 66.7996 35.9068 65.5062 36.6916C64.2094 37.4732 62.6689 37.8639 60.8812 37.8639C58.1116 37.8639 56.0022 36.9722 54.5564 35.1887C53.4222 33.7893 52.7382 31.9323 52.4945 29.6312H72.4777V29.6278ZM61.1825 16.9698C63.8133 16.9698 65.7399 17.7714 66.9655 19.3778C67.8357 20.5167 68.4011 22.1332 68.6618 24.2206H52.6671C52.999 22.367 53.6287 20.854 54.5564 19.6884C56.0022 17.8749 58.2097 16.9698 61.1825 16.9698V16.9698Z" fill="white"/>
<path d="M104.375 28.2318V43.682H111.725V25.7637C111.725 24.9922 111.661 23.9869 111.529 22.7478C111.397 21.5087 111.113 20.1962 110.669 18.8101C110.229 17.4241 109.545 16.1182 108.621 14.8892C107.696 13.6601 106.45 12.6514 104.886 11.8599C103.318 11.0684 101.331 10.6709 98.9236 10.6709C95.8695 10.6709 93.2997 11.3289 91.2106 12.6481C90.0899 13.3562 89.1182 14.1978 88.2886 15.1663V11.5927H81.8115V43.682H89.1622V27.1898C89.1622 25.2293 89.3823 23.6195 89.8258 22.3604C90.266 21.1012 90.8551 20.1127 91.5864 19.3879C92.3178 18.6632 93.1372 18.1555 94.0412 17.8583C94.9452 17.561 95.8594 17.4141 96.7837 17.4141C98.5105 17.4141 99.8817 17.7814 100.894 18.5128C101.906 19.2476 102.672 20.1828 103.183 21.3217C103.694 22.4606 104.023 23.6462 104.161 24.8719C104.3 26.101 104.371 27.2199 104.371 28.2285L104.375 28.2318Z" fill="white"/>
<path d="M148.202 35.4224L141.034 33.2816C140.33 34.7678 139.331 35.9 138.038 36.6849C136.741 37.4664 135.2 37.8572 133.412 37.8572C130.643 37.8572 128.533 36.9654 127.088 35.1819C125.953 33.7825 125.269 31.9255 125.026 29.6244H148.564C148.845 25.7836 148.412 22.4437 147.267 19.6115C146.123 16.7794 144.369 14.5851 142.012 13.0287C139.653 11.4723 136.785 10.6975 133.412 10.6975C130.22 10.6975 127.409 11.4122 124.978 12.8383C122.547 14.2644 120.651 16.2717 119.287 18.8567C117.922 21.4418 117.238 24.4877 117.238 27.9946C117.238 31.2443 117.936 34.1165 119.331 36.6114C120.726 39.1063 122.669 41.0601 125.158 42.4662C127.646 43.8722 130.538 44.5769 133.832 44.5769C137.127 44.5769 139.832 43.7753 142.432 42.1689C145.033 40.5657 146.956 38.3147 148.202 35.4257V35.4224ZM133.714 16.9698C136.345 16.9698 138.271 17.7713 139.497 19.3778C140.367 20.5167 140.932 22.1331 141.193 24.2205H125.198C125.53 22.3669 126.16 20.854 127.088 19.6883C128.533 17.8748 130.741 16.9698 133.714 16.9698V16.9698Z" fill="white"/>
<path d="M162.598 27.3699C162.598 26.1408 162.747 24.9986 163.049 23.9365C163.35 22.8778 163.817 21.9326 164.45 21.0977C165.084 20.2627 165.9 19.5814 166.905 19.047C167.907 18.4525 169.038 18.1052 170.294 18.0083C171.55 17.9081 172.658 17.9983 173.623 18.2755V11.5891C172.658 11.4322 171.666 11.3854 170.64 11.4556C169.617 11.5257 168.615 11.7127 167.643 12.02C166.668 12.3273 165.781 12.7481 164.979 13.2825C164.034 13.8569 163.225 14.585 162.554 15.4667C162.25 15.8675 161.975 16.2883 161.725 16.7259V11.5891H155.309V43.6784H162.598V27.3666V27.3699Z" fill="white"/>
<path d="M187.69 44.5734C190.623 44.5734 193.067 44.0324 195.024 42.9537C196.531 42.1221 197.892 40.923 199.104 39.3567V43.6817H205.459V23.9833C205.459 22.5973 205.398 21.3148 205.28 20.1358C205.158 18.9569 204.809 17.8046 204.227 16.6757C203.164 14.5549 201.532 13.032 199.331 12.1001C197.134 11.1683 194.587 10.7041 191.696 10.7041C187.86 10.7041 184.812 11.5257 182.554 13.1689C180.296 14.8121 178.762 16.993 177.96 19.705L184.586 21.7557C185.127 20.1125 186.082 18.9535 187.447 18.2788C188.811 17.6042 190.226 17.2669 191.692 17.2669C194.124 17.2669 195.85 17.7912 196.873 18.8399C197.723 19.7116 198.21 20.9942 198.339 22.6741C197.029 22.8645 195.749 23.0482 194.51 23.2218C192.451 23.5091 190.545 23.8197 188.787 24.157C187.03 24.4943 185.5 24.8684 184.193 25.2858C182.466 25.8603 181.061 26.5984 179.974 27.5002C178.891 28.402 178.085 29.4707 177.563 30.7097C177.042 31.9488 176.781 33.3382 176.781 34.8846C176.781 36.648 177.198 38.2611 178.031 39.7273C178.864 41.1935 180.093 42.3658 181.721 43.2475C183.35 44.1293 185.337 44.5701 187.687 44.5701L187.69 44.5734ZM184.362 32.9842C184.674 32.4699 185.121 32.0123 185.703 31.6182C186.285 31.2207 187 30.8768 187.843 30.5795C188.706 30.3023 189.702 30.0485 190.826 29.8214C191.95 29.5943 193.294 29.3505 194.862 29.0933C195.864 28.9297 196.995 28.7493 198.254 28.5489C198.241 29.0933 198.22 29.7145 198.193 30.4125C198.143 31.5915 197.926 32.6368 197.547 33.5486C197.306 34.2834 196.839 35.0649 196.145 35.8965C195.451 36.7282 194.523 37.4329 193.358 38.0073C192.194 38.5818 190.788 38.869 189.14 38.869C187.995 38.869 187.037 38.692 186.262 38.3346C185.486 37.9773 184.901 37.4997 184.501 36.8951C184.098 36.2906 183.898 35.5926 183.898 34.8011C183.898 34.1064 184.054 33.5052 184.365 32.9875L184.362 32.9842Z" fill="white"/>
<path d="M232.36 17.2068V11.5925H222.812V2.67847H215.584V11.5925H209.679V17.2068H215.584V30.5762C215.584 32.3998 215.604 34.0329 215.645 35.4791C215.685 36.9252 216.075 38.3413 216.819 39.7274C217.663 41.2537 218.898 42.3658 220.524 43.0705C222.149 43.7753 223.991 44.1494 226.049 44.1995C228.108 44.2496 230.21 44.0759 232.36 43.6784V37.6767C230.332 37.974 228.524 38.0541 226.94 37.9138C225.352 37.7769 224.197 37.1123 223.476 35.9233C223.093 35.3088 222.89 34.5172 222.86 33.5453C222.829 32.5734 222.816 31.4446 222.816 30.1587V17.2035H232.364L232.36 17.2068Z" fill="white"/>
<path d="M260.689 13.0321C258.329 11.4758 255.461 10.7009 252.089 10.7009C248.896 10.7009 246.086 11.4156 243.655 12.8417C241.224 14.2679 239.328 16.2751 237.963 18.8601C236.599 21.4452 235.915 24.4912 235.915 27.998C235.915 31.2477 236.613 34.12 238.008 36.6148C239.403 39.1097 241.346 41.0634 243.835 42.4695C246.323 43.8756 249.215 44.5803 252.509 44.5803C255.803 44.5803 258.509 43.7788 261.109 42.1723C263.709 40.5692 265.633 38.3181 266.879 35.4292L259.711 33.2883C259.006 34.7745 258.008 35.9068 256.714 36.6916C255.418 37.4732 253.877 37.8639 252.089 37.8639C249.32 37.8639 247.21 36.9722 245.764 35.1887C244.63 33.7893 243.946 31.9323 243.702 29.6312H267.241C267.522 25.7903 267.089 22.4505 265.944 19.6183C264.8 16.7861 263.046 14.5918 260.689 13.0355V13.0321ZM252.391 16.9698C255.021 16.9698 256.948 17.7714 258.174 19.3778C259.044 20.5167 259.609 22.1332 259.87 24.2206H243.875C244.207 22.367 244.837 20.854 245.764 19.6884C247.21 17.8749 249.418 16.9698 252.391 16.9698Z" fill="white"/>
<path d="M11.8575 51.0261H4.7168V93.1216H30.7065V86.512H11.8575V51.0261Z" fill="white"/>
<path d="M60.9651 66.5462C59.9188 64.4621 58.3139 62.9592 56.1504 62.0441C53.9868 61.129 51.4813 60.6714 48.6372 60.6714C44.862 60.6714 41.8655 61.4796 39.6444 63.0961C37.4233 64.7126 35.9166 66.8568 35.1243 69.5287L41.6454 71.5459C42.1804 69.9295 43.1183 68.7872 44.4624 68.1259C45.8066 67.4647 47.1982 67.1307 48.6406 67.1307C51.031 67.1307 52.7307 67.6484 53.7363 68.6804C54.5726 69.5388 55.05 70.8011 55.1786 72.4544C53.8886 72.6414 52.6291 72.8218 51.4102 72.9921C49.3855 73.276 47.5097 73.5833 45.7795 73.9139C44.0494 74.2446 42.5427 74.6153 41.2594 75.0261C39.5598 75.5906 38.1783 76.3186 37.1118 77.2036C36.0453 78.092 35.253 79.1441 34.7417 80.3598C34.2271 81.5789 33.9697 82.9482 33.9697 84.4678C33.9697 86.2012 34.3794 87.7909 35.1988 89.2338C36.0182 90.6766 37.2303 91.8322 38.8284 92.6972C40.4266 93.5622 42.3836 93.9997 44.6961 93.9997C47.5808 93.9997 49.9847 93.4687 51.9113 92.4066C53.3943 91.5883 54.7317 90.4061 55.9269 88.8698V93.1247H62.1806V73.7436C62.1806 72.3809 62.123 71.1184 62.0011 69.9595C61.8826 68.8006 61.5373 67.6651 60.9651 66.5529V66.5462ZM54.3863 83.1519C54.1493 83.8733 53.6889 84.6415 53.0083 85.4598C52.3278 86.2781 51.4136 86.9694 50.2658 87.5338C49.1214 88.0983 47.7365 88.3822 46.1181 88.3822C44.9906 88.3822 44.0494 88.2051 43.2876 87.8544C42.5257 87.5038 41.9502 87.0328 41.554 86.435C41.1579 85.8405 40.9615 85.1525 40.9615 84.3743C40.9615 83.693 41.1138 83.0985 41.422 82.5908C41.7267 82.0832 42.1668 81.6356 42.7391 81.2449C43.3113 80.8541 44.0122 80.5134 44.8417 80.2229C45.6915 79.949 46.67 79.7018 47.7772 79.4781C48.8844 79.2543 50.2082 79.0139 51.7488 78.7634C52.734 78.6031 53.848 78.4227 55.0839 78.229C55.0703 78.7634 55.05 79.3745 55.0229 80.0626C54.9721 81.2215 54.7622 82.2501 54.3863 83.1452V83.1519Z" fill="white"/>
<path d="M92.8663 62.8491C90.6452 61.3963 88.0212 60.6716 84.9976 60.6716C81.9741 60.6716 79.4008 61.3963 77.3355 62.8491C77.2271 62.926 77.1289 63.0062 77.024 63.0863V51.0261H69.8223V93.1216H76.1335V90.7937C76.5364 91.1544 76.9562 91.4951 77.4066 91.8057C79.5193 93.2685 82.1366 93.9966 85.2617 93.9966C88.204 93.9966 90.7738 93.2652 92.9679 91.8057C95.1619 90.3428 96.8616 88.3556 98.0636 85.8407C99.2689 83.3258 99.8716 80.4902 99.8716 77.3341C99.8716 74.1779 99.2588 71.2889 98.0331 68.7841C96.8074 66.2792 95.084 64.302 92.8629 62.8491H92.8663ZM91.4442 82.581C90.8619 84.1507 89.968 85.3931 88.7627 86.3082C87.5573 87.2233 86.0269 87.6809 84.1681 87.6809C82.3092 87.6809 80.7044 87.2468 79.5295 86.3818C78.3546 85.5134 77.4946 84.301 76.9495 82.7413C76.4044 81.1816 76.1335 79.3781 76.1335 77.3341C76.1335 75.2901 76.4044 73.4599 76.9495 71.9102C77.4912 70.3605 78.3377 69.1514 79.4821 68.2864C80.6265 67.4181 82.1095 66.9873 83.9277 66.9873C85.8441 66.9873 87.4253 67.4515 88.6679 68.3766C89.9138 69.3017 90.8314 70.5508 91.4239 72.1172C92.0165 73.6869 92.3144 75.427 92.3144 77.3341C92.3144 79.2411 92.0232 81.0113 91.4408 82.581H91.4442Z" fill="white"/>
<path d="M126.888 76.6459C125.357 75.8176 123.316 75.0829 120.769 74.4383C118.281 73.8138 116.408 73.2894 115.152 72.8586C113.896 72.4311 113.063 72.0002 112.647 71.5727C112.23 71.1452 112.024 70.6275 112.024 70.023C112.024 68.9509 112.538 68.1192 113.564 67.5248C114.59 66.9303 115.945 66.6831 117.624 66.78C119.381 66.8768 120.79 67.3178 121.846 68.0959C122.902 68.8741 123.522 69.9361 123.698 71.2821L130.988 69.9963C130.71 68.1059 129.979 66.4594 128.794 65.0566C127.609 63.6539 126.051 62.5718 124.125 61.8103C122.198 61.0488 119.991 60.6714 117.502 60.6714C115.013 60.6714 112.742 61.0655 110.862 61.8537C108.987 62.6419 107.524 63.7675 106.478 65.2303C105.431 66.6932 104.907 68.4065 104.907 70.3737C104.907 71.9534 105.252 73.296 105.943 74.4082C106.633 75.5204 107.771 76.4789 109.352 77.2871C110.933 78.0954 113.067 78.8502 115.755 79.5515C118.166 80.1761 119.953 80.6905 121.118 81.1013C122.283 81.5121 123.038 81.9329 123.387 82.3738C123.732 82.8113 123.905 83.3924 123.905 84.1138C123.905 85.2828 123.434 86.2046 122.496 86.8759C121.558 87.5472 120.228 87.8845 118.511 87.8845C116.554 87.8845 114.936 87.437 113.652 86.5386C112.369 85.6435 111.54 84.4144 111.164 82.8547L103.874 83.9668C104.409 87.143 105.909 89.6079 108.377 91.3613C110.845 93.1147 114.055 93.993 118.01 93.993C121.965 93.993 125.374 93.088 127.717 91.2744C130.06 89.4609 131.228 86.9694 131.228 83.7899C131.228 82.1533 130.886 80.7606 130.206 79.6084C129.525 78.4595 128.418 77.4708 126.888 76.6426V76.6459Z" fill="white"/>
<path d="M173.67 84.0507C170.308 77.9121 166.943 71.7735 163.587 65.6315C163.455 65.3877 163.384 65.1138 163.384 64.8366C163.374 61.0292 163.343 57.2184 163.391 53.411C163.408 51.9314 162.355 51.0096 160.953 51.0263C157.33 51.0664 153.711 51.0397 150.088 51.0397C148.558 51.0397 147.711 51.868 147.711 53.3709C147.711 57.195 147.714 61.0192 147.701 64.8433C147.701 65.1205 147.63 65.3944 147.494 65.6415C143.882 72.2511 140.259 78.854 136.639 85.4569C135.566 87.414 135.624 89.331 136.981 91.1646C137.716 92.1532 138.833 92.7577 140.046 93.0283C140.083 93.0349 140.12 93.045 140.157 93.055C140.303 93.0951 140.455 93.1184 140.608 93.1184H170.4C170.586 93.1184 170.769 93.0884 170.945 93.0316C171.551 92.8245 172.184 92.6609 172.726 92.3469C174.131 91.532 174.916 90.2695 175.126 88.6664C175.13 88.6397 175.136 88.613 175.143 88.5896C175.187 88.436 175.194 88.2757 175.194 88.1154V87.8181C175.194 87.7379 175.191 87.6544 175.177 87.5743C174.991 86.2717 174.283 85.1796 173.667 84.0507H173.67ZM155.956 65.6315C155.976 65.5814 156.013 65.558 156.067 65.5446C156.24 65.4979 156.409 65.4512 156.582 65.4011C157.073 65.2508 157.412 64.9368 157.577 64.4525C157.642 64.2722 157.689 64.0852 157.74 63.8981C157.753 63.848 157.781 63.8146 157.828 63.7946H157.865C157.916 63.8113 157.94 63.848 157.953 63.8981C158.001 64.0685 158.045 64.2388 158.099 64.4058C158.265 64.9235 158.617 65.2608 159.145 65.4111C159.308 65.4578 159.474 65.5046 159.636 65.548C159.7 65.5647 159.727 65.5981 159.731 65.6449C159.731 65.695 159.7 65.7284 159.636 65.7484C159.44 65.8052 159.24 65.852 159.047 65.9187C158.553 66.0891 158.234 66.4297 158.089 66.924C158.041 67.0877 157.994 67.2513 157.947 67.4117C157.93 67.4751 157.896 67.5085 157.845 67.5052C157.794 67.5052 157.76 67.4751 157.743 67.4083C157.689 67.2179 157.642 67.0276 157.577 66.8406C157.412 66.3596 157.076 66.0423 156.582 65.892C156.413 65.8386 156.24 65.7918 156.067 65.7484C156.017 65.7351 155.976 65.7117 155.956 65.6616V65.6248V65.6315ZM154.148 75.0498C154.188 74.953 154.263 74.9096 154.364 74.8828C154.699 74.7927 155.038 74.7025 155.37 74.599C156.335 74.3051 156.992 73.6872 157.317 72.742C157.439 72.3847 157.533 72.0206 157.635 71.6566C157.662 71.5597 157.713 71.4896 157.808 71.4562H157.882C157.977 71.4896 158.028 71.5597 158.055 71.6566C158.146 71.9872 158.238 72.3212 158.343 72.6485C158.668 73.6638 159.355 74.3217 160.391 74.619C160.709 74.7092 161.031 74.7994 161.353 74.8895C161.475 74.9229 161.535 74.9864 161.535 75.0833C161.535 75.1801 161.478 75.2469 161.349 75.2836C160.967 75.3938 160.574 75.4841 160.198 75.6143C159.23 75.9483 158.61 76.6129 158.322 77.5848C158.228 77.9021 158.136 78.2227 158.045 78.5433C158.007 78.6702 157.943 78.7304 157.845 78.7304C157.747 78.7304 157.682 78.6702 157.645 78.5433C157.537 78.1726 157.442 77.7986 157.317 77.4345C156.992 76.4894 156.335 75.8748 155.37 75.5776C155.038 75.4774 154.703 75.3838 154.364 75.2936C154.263 75.2669 154.188 75.2202 154.148 75.1266V75.0532V75.0498ZM149.39 70.2805C149.418 70.2171 149.465 70.1904 149.529 70.1704C149.746 70.1136 149.963 70.0535 150.176 69.9867C150.796 69.7963 151.219 69.3988 151.429 68.791C151.507 68.5605 151.568 68.3268 151.635 68.093C151.652 68.0295 151.686 67.9861 151.747 67.9627H151.794C151.855 67.9861 151.889 68.0295 151.906 68.093C151.964 68.3067 152.025 68.5205 152.092 68.7309C152.302 69.3855 152.746 69.8063 153.413 70C153.619 70.0601 153.826 70.1169 154.032 70.1737C154.11 70.1971 154.151 70.2371 154.151 70.2972C154.151 70.3607 154.114 70.4042 154.032 70.4275C153.785 70.4977 153.535 70.5578 153.291 70.6413C152.668 70.8583 152.268 71.2859 152.082 71.9104C152.021 72.1141 151.964 72.3212 151.903 72.5282C151.879 72.6084 151.835 72.6485 151.774 72.6485C151.713 72.6485 151.669 72.6084 151.645 72.5282C151.574 72.2911 151.517 72.0473 151.436 71.8135C151.226 71.2057 150.802 70.8082 150.183 70.6179C149.969 70.5511 149.753 70.4943 149.536 70.4342C149.472 70.4175 149.424 70.3874 149.397 70.324V70.2772L149.39 70.2805ZM168.483 88.1788C168.087 88.4059 167.566 88.5061 167.102 88.5094C165.172 88.5228 163.242 88.5261 161.315 88.5261C159.385 88.5261 157.456 88.5261 155.529 88.5261C153.602 88.5261 151.656 88.5261 149.722 88.5261C147.786 88.5261 145.849 88.5261 143.916 88.5261C142.829 88.5261 142.101 88.0652 141.759 87.1702C141.522 86.5523 141.613 85.9544 141.928 85.39C142.852 83.7368 143.777 82.0836 144.721 80.4437C145.175 79.6555 145.89 79.2948 146.81 79.385C148.432 79.5453 149.915 80.1732 151.415 80.7376C152.979 81.3254 154.537 81.9467 156.128 82.4476C157.994 83.0388 159.863 82.8083 161.674 82.1403C162.517 81.8297 163.33 81.4356 164.143 81.0515C165.284 80.5105 166.655 80.938 167.274 82.0302C167.901 83.1323 168.531 84.2344 169.14 85.3466C169.743 86.4387 169.506 87.5977 168.49 88.1821L168.483 88.1788Z" fill="white"/>
<path d="M257.205 51.3801H194.659C192.617 51.3801 190.819 52.7161 190.257 54.6498L180.895 86.8058C180.056 89.6948 182.253 92.5704 185.297 92.5704H248.49C250.566 92.5704 252.381 91.1944 252.915 89.2206L261.634 57.0646C262.413 54.1956 260.219 51.3801 257.209 51.3801H257.205ZM195.468 78.67H192.173V75.4203H195.468V78.67ZM211.92 78.67L210.592 74.5653H203.025L201.715 78.67H198.407L204.464 59.7164H209.174L215.231 78.67H211.923H211.92ZM230.318 75.3936C229.777 76.5258 229.011 77.4209 228.023 78.0788C227.034 78.7368 225.88 79.0674 224.552 79.0674C223.147 79.0674 221.969 78.7368 221.017 78.0788C220.956 78.0388 220.902 77.992 220.845 77.9486V84.989H217.601V64.4556H220.442V65.4743C220.615 65.3206 220.791 65.1737 220.984 65.0401C221.915 64.3855 223.062 64.0582 224.434 64.0582C225.805 64.0582 226.977 64.3855 227.975 65.0401C228.978 65.6947 229.753 66.5831 230.305 67.7119C230.857 68.8408 231.131 70.1233 231.131 71.5628C231.131 73.0023 230.86 74.2614 230.318 75.3936V75.3936ZM246.757 75.3936C246.215 76.5258 245.45 77.4209 244.461 78.0788C243.472 78.7368 242.318 79.0674 240.99 79.0674C239.585 79.0674 238.407 78.7368 237.456 78.0788C237.395 78.0388 237.341 77.992 237.283 77.9486V84.989H234.039V64.4556H236.88V65.4743C237.053 65.3206 237.229 65.1737 237.422 65.0401C238.353 64.3855 239.501 64.0582 240.872 64.0582C242.243 64.0582 243.415 64.3855 244.414 65.0401C245.416 65.6947 246.191 66.5831 246.743 67.7119C247.295 68.8408 247.569 70.1233 247.569 71.5628C247.569 73.0023 247.298 74.2614 246.757 75.3936V75.3936Z" fill="white"/>
<path d="M242.528 67.5317C241.966 67.1143 241.255 66.9072 240.392 66.9072C239.572 66.9072 238.905 67.1009 238.39 67.4917C237.876 67.8825 237.493 68.4268 237.249 69.1248C237.006 69.8229 236.884 70.6378 236.884 71.5663C236.884 72.4948 237.006 73.2997 237.249 74.0011C237.493 74.7024 237.883 75.2501 238.411 75.6409C238.939 76.0317 239.636 76.2254 240.5 76.2254C241.363 76.2254 242.024 76.0183 242.569 75.6075C243.11 75.1934 243.513 74.6356 243.777 73.9309C244.038 73.2229 244.17 72.438 244.17 71.5696C244.17 70.7013 244.038 69.9264 243.771 69.2217C243.503 68.517 243.09 67.9526 242.531 67.5384L242.528 67.5317Z" fill="white"/>
<path d="M226.09 67.5317C225.528 67.1143 224.816 66.9072 223.953 66.9072C223.134 66.9072 222.467 67.1009 221.952 67.4917C221.437 67.8825 221.055 68.4268 220.811 69.1248C220.567 69.8229 220.445 70.6378 220.445 71.5663C220.445 72.4948 220.567 73.2997 220.811 74.0011C221.055 74.7024 221.444 75.2501 221.972 75.6409C222.501 76.0317 223.198 76.2254 224.061 76.2254C224.925 76.2254 225.585 76.0183 226.13 75.6075C226.672 75.1934 227.075 74.6356 227.339 73.9309C227.6 73.2229 227.732 72.438 227.732 71.5696C227.732 70.7013 227.6 69.9264 227.332 69.2217C227.065 68.517 226.652 67.9526 226.093 67.5384L226.09 67.5317Z" fill="white"/>
<path d="M203.97 71.6063H209.634L206.783 62.7891L203.97 71.6063Z" fill="white"/>
</svg>
