<svg width="196" height="65" viewBox="0 0 196 65" fill="none" xmlns="http://www.w3.org/2000/svg">
<g clip-path="url(#clip0_1_62)">
<path d="M16.8704 5.80726C17.85 2.37035 20.9903 0 24.564 0H185.401C190.714 0 194.551 5.08335 193.095 10.1927L179.13 59.1927C178.15 62.6297 175.01 65 171.436 65H0L16.8704 5.80726Z" fill="white"/>
<path d="M6.43679 54.5804C7.21944 52.0368 10.2215 50.9525 12.4489 52.4089L21 58C23.1069 59.2642 22.2106 62.5 19.7536 62.5H4L6.43679 54.5804Z" fill="#4735E2"/>
<path d="M61.616 38L55.568 24.2H52.976L60.368 41H62.744L70.112 24.2H67.712L61.616 38ZM76.4054 41.144C80.2214 41.144 83.0054 38.432 83.0054 34.64C83.0054 30.848 80.2214 28.16 76.4054 28.16C72.5894 28.16 69.7814 30.848 69.7814 34.64C69.7814 38.432 72.5894 41.144 76.4054 41.144ZM76.4054 39.128C73.9574 39.128 72.1094 37.352 72.1094 34.64C72.1094 31.928 73.9574 30.176 76.4054 30.176C78.8534 30.176 80.6774 31.928 80.6774 34.64C80.6774 37.352 78.8534 39.128 76.4054 39.128ZM90.4483 38.456L86.0083 28.28H83.6082L89.2243 40.976L88.8163 41.864C88.1923 43.328 87.4963 43.832 86.3923 43.832C85.5283 43.832 84.7363 43.496 84.1123 42.896L83.1282 44.624C83.9203 45.392 85.1683 45.8 86.3923 45.8C88.3363 45.8 89.8003 44.96 90.9283 42.272L97.0963 28.28H94.8403L90.4483 38.456ZM103.48 28.16C101.44 28.16 99.5441 28.736 98.2241 29.792L99.1841 31.52C100.168 30.68 101.704 30.152 103.216 30.152C105.496 30.152 106.624 31.28 106.624 33.224V33.68H102.976C99.1841 33.68 97.8641 35.36 97.8641 37.4C97.8641 39.608 99.6881 41.144 102.568 41.144C104.56 41.144 105.976 40.472 106.744 39.32V41H108.928V33.32C108.928 29.84 106.96 28.16 103.48 28.16ZM102.952 39.368C101.2 39.368 100.144 38.576 100.144 37.304C100.144 36.224 100.792 35.336 103.072 35.336H106.624V37.112C106.048 38.576 104.68 39.368 102.952 39.368ZM123.176 30.248C122.096 28.856 120.368 28.16 118.472 28.16C114.8 28.16 112.016 30.632 112.016 34.304C112.016 37.976 114.8 40.472 118.472 40.472C120.296 40.472 121.952 39.824 123.056 38.504V39.512C123.056 42.392 121.688 43.784 118.688 43.784C116.816 43.784 114.968 43.136 113.792 42.128L112.688 43.904C114.08 45.152 116.432 45.8 118.76 45.8C123.08 45.8 125.36 43.76 125.36 39.272V28.28H123.176V30.248ZM118.736 38.456C116.168 38.456 114.344 36.752 114.344 34.304C114.344 31.832 116.168 30.176 118.736 30.176C121.28 30.176 123.104 31.832 123.104 34.304C123.104 36.752 121.28 38.456 118.736 38.456ZM141.258 34.712C141.258 30.8 138.642 28.16 134.97 28.16C131.298 28.16 128.586 30.872 128.586 34.64C128.586 38.432 131.322 41.144 135.426 41.144C137.538 41.144 139.29 40.424 140.442 39.08L139.17 37.592C138.234 38.624 136.986 39.128 135.498 39.128C132.978 39.128 131.178 37.64 130.89 35.408H141.21C141.234 35.192 141.258 34.904 141.258 34.712ZM134.97 30.104C137.202 30.104 138.81 31.616 139.05 33.752H130.89C131.13 31.592 132.762 30.104 134.97 30.104Z" fill="black"/>
</g>
<defs>
<clipPath id="clip0_1_62">
<rect width="196" height="65" fill="white"/>
</clipPath>
</defs>
</svg>
