<svg width="466" height="155" viewBox="0 0 466 155" fill="none" xmlns="http://www.w3.org/2000/svg">
<g clip-path="url(#clip0_1_97)">
<path d="M42.3935 5.81325C43.371 2.37334 46.5127 0 50.0888 0H455.41C460.72 0 464.557 5.07871 463.105 10.1867L423.607 149.187C422.629 152.627 419.487 155 415.911 155H0L42.3935 5.81325Z" fill="white"/>
<path d="M20.3352 112.089C21.1172 109.543 24.1228 108.458 26.3509 109.917L63.8163 134.462L75.6437 141.572C79.1191 143.661 77.6379 149 73.5828 149H9L20.3352 112.089Z" fill="#4735E2"/>
<path d="M161.232 80L149.136 52.4H143.952L158.736 86H163.488L178.224 52.4H173.424L161.232 80ZM190.811 86.288C198.443 86.288 204.011 80.864 204.011 73.28C204.011 65.696 198.443 60.32 190.811 60.32C183.179 60.32 177.563 65.696 177.563 73.28C177.563 80.864 183.179 86.288 190.811 86.288ZM190.811 82.256C185.915 82.256 182.219 78.704 182.219 73.28C182.219 67.856 185.915 64.352 190.811 64.352C195.707 64.352 199.355 67.856 199.355 73.28C199.355 78.704 195.707 82.256 190.811 82.256ZM218.897 80.912L210.017 60.56H205.216L216.449 85.952L215.633 87.728C214.385 90.656 212.993 91.664 210.785 91.664C209.057 91.664 207.473 90.992 206.225 89.792L204.256 93.248C205.841 94.784 208.337 95.6 210.785 95.6C214.673 95.6 217.601 93.92 219.857 88.544L232.193 60.56H227.681L218.897 80.912ZM244.96 60.32C240.88 60.32 237.088 61.472 234.448 63.584L236.368 67.04C238.336 65.36 241.408 64.304 244.432 64.304C248.992 64.304 251.248 66.56 251.248 70.448V71.36H243.952C236.368 71.36 233.728 74.72 233.728 78.8C233.728 83.216 237.376 86.288 243.136 86.288C247.12 86.288 249.952 84.944 251.488 82.64V86H255.856V70.64C255.856 63.68 251.92 60.32 244.96 60.32ZM243.904 82.736C240.4 82.736 238.288 81.152 238.288 78.608C238.288 76.448 239.584 74.672 244.144 74.672H251.248V78.224C250.096 81.152 247.36 82.736 243.904 82.736ZM284.352 64.496C282.192 61.712 278.736 60.32 274.944 60.32C267.6 60.32 262.032 65.264 262.032 72.608C262.032 79.952 267.6 84.944 274.944 84.944C278.592 84.944 281.904 83.648 284.112 81.008V83.024C284.112 88.784 281.376 91.568 275.376 91.568C271.632 91.568 267.936 90.272 265.584 88.256L263.376 91.808C266.16 94.304 270.864 95.6 275.52 95.6C284.16 95.6 288.72 91.52 288.72 82.544V60.56H284.352V64.496ZM275.472 80.912C270.336 80.912 266.688 77.504 266.688 72.608C266.688 67.664 270.336 64.352 275.472 64.352C280.56 64.352 284.208 67.664 284.208 72.608C284.208 77.504 280.56 80.912 275.472 80.912ZM320.516 73.424C320.516 65.6 315.284 60.32 307.94 60.32C300.596 60.32 295.172 65.744 295.172 73.28C295.172 80.864 300.644 86.288 308.852 86.288C313.076 86.288 316.58 84.848 318.884 82.16L316.34 79.184C314.468 81.248 311.972 82.256 308.996 82.256C303.956 82.256 300.356 79.28 299.78 74.816H320.42C320.468 74.384 320.516 73.808 320.516 73.424ZM307.94 64.208C312.404 64.208 315.62 67.232 316.1 71.504H299.78C300.26 67.184 303.524 64.208 307.94 64.208Z" fill="black"/>
</g>
<defs>
<clipPath id="clip0_1_97">
<rect width="466" height="155" fill="white"/>
</clipPath>
</defs>
</svg>
