<svg width="265" height="65" viewBox="0 0 265 65" fill="none" xmlns="http://www.w3.org/2000/svg">
<g clip-path="url(#clip0_1_67)">
<path d="M16.8704 5.80726C17.85 2.37035 20.9903 0 24.564 0H185.401C190.714 0 194.551 5.08335 193.095 10.1927L179.13 59.1927C178.15 62.6297 175.01 65 171.436 65H0L16.8704 5.80726Z" fill="white"/>
<path d="M6.43679 54.5804C7.21944 52.0368 10.2215 50.9525 12.4489 52.4089L21 58C23.1069 59.2642 22.2106 62.5 19.7536 62.5H4L6.43679 54.5804Z" fill="#4735E2"/>
<path d="M65.416 41.192C69.856 41.192 71.92 38.984 71.92 36.416C71.92 30.248 61.744 32.816 61.744 28.712C61.744 27.248 62.968 26.048 65.824 26.048C67.312 26.048 68.968 26.48 70.432 27.416L71.224 25.496C69.832 24.536 67.792 24.008 65.824 24.008C61.408 24.008 59.392 26.216 59.392 28.808C59.392 35.048 69.568 32.456 69.568 36.56C69.568 38.024 68.32 39.152 65.416 39.152C63.256 39.152 61.12 38.336 59.872 37.208L58.984 39.08C60.328 40.328 62.848 41.192 65.416 41.192ZM81.5223 38.6C81.0423 38.984 80.3943 39.2 79.7223 39.2C78.4503 39.2 77.7303 38.432 77.7303 37.064V30.176H81.3783V28.28H77.7303V25.496H75.4263V28.28H73.2663V30.176H75.4263V37.16C75.4263 39.728 76.8903 41.144 79.4583 41.144C80.4903 41.144 81.5463 40.856 82.2423 40.256L81.5223 38.6ZM94.5798 34.856C94.5798 37.592 93.0438 39.08 90.6438 39.08C88.4598 39.08 87.2118 37.832 87.2118 35.336V28.28H84.9078V35.6C84.9078 39.344 87.0918 41.144 90.3798 41.144C92.1798 41.144 93.7638 40.4 94.6998 39.08V41H96.8838V28.28H94.5798V34.856ZM110.966 30.2C109.91 28.832 108.326 28.16 106.526 28.16C102.806 28.16 100.094 30.752 100.094 34.64C100.094 38.528 102.806 41.144 106.526 41.144C108.398 41.144 110.03 40.424 111.062 38.984V41H113.27V23.192H110.966V30.2ZM106.718 39.128C104.27 39.128 102.422 37.352 102.422 34.64C102.422 31.928 104.27 30.176 106.718 30.176C109.142 30.176 110.99 31.928 110.99 34.64C110.99 37.352 109.142 39.128 106.718 39.128ZM118.781 25.832C119.693 25.832 120.341 25.16 120.341 24.296C120.341 23.48 119.669 22.832 118.781 22.832C117.893 22.832 117.221 23.504 117.221 24.344C117.221 25.184 117.893 25.832 118.781 25.832ZM119.933 41V28.28H117.629V41H119.933ZM129.78 41.144C133.596 41.144 136.38 38.432 136.38 34.64C136.38 30.848 133.596 28.16 129.78 28.16C125.964 28.16 123.156 30.848 123.156 34.64C123.156 38.432 125.964 41.144 129.78 41.144ZM129.78 39.128C127.332 39.128 125.484 37.352 125.484 34.64C125.484 31.928 127.332 30.176 129.78 30.176C132.228 30.176 134.052 31.928 134.052 34.64C134.052 37.352 132.228 39.128 129.78 39.128Z" fill="black"/>
</g>
<defs>
<clipPath id="clip0_1_67">
<rect width="265" height="65" fill="white"/>
</clipPath>
</defs>
</svg>
