<svg width="466" height="155" viewBox="0 0 466 155" fill="none" xmlns="http://www.w3.org/2000/svg">
<g clip-path="url(#clip0_1_101)">
<path d="M42.3935 5.81325C43.371 2.37334 46.5127 0 50.0888 0H455.41C460.72 0 464.557 5.07871 463.105 10.1867L423.607 149.187C422.629 152.627 419.487 155 415.911 155H0L42.3935 5.81325Z" fill="white"/>
<path d="M20.3352 112.089C21.1172 109.543 24.1228 108.458 26.3509 109.917L63.8163 134.462L75.6437 141.572C79.1191 143.661 77.6379 149 73.5828 149H9L20.3352 112.089Z" fill="#4735E2"/>
<path d="M168.949 86.384C177.829 86.384 181.957 81.968 181.957 76.832C181.957 64.496 161.605 69.632 161.605 61.424C161.605 58.496 164.053 56.096 169.765 56.096C172.741 56.096 176.053 56.96 178.981 58.832L180.565 54.992C177.781 53.072 173.701 52.016 169.765 52.016C160.933 52.016 156.901 56.432 156.901 61.616C156.901 74.096 177.253 68.912 177.253 77.12C177.253 80.048 174.757 82.304 168.949 82.304C164.629 82.304 160.357 80.672 157.861 78.416L156.085 82.16C158.773 84.656 163.813 86.384 168.949 86.384ZM201.162 81.2C200.202 81.968 198.906 82.4 197.562 82.4C195.018 82.4 193.578 80.864 193.578 78.128V64.352H200.874V60.56H193.578V54.992H188.97V60.56H184.65V64.352H188.97V78.32C188.97 83.456 191.898 86.288 197.034 86.288C199.098 86.288 201.21 85.712 202.602 84.512L201.162 81.2ZM227.277 73.712C227.277 79.184 224.205 82.16 219.405 82.16C215.037 82.16 212.541 79.664 212.541 74.672V60.56H207.933V75.2C207.933 82.688 212.301 86.288 218.877 86.288C222.477 86.288 225.645 84.8 227.517 82.16V86H231.885V60.56H227.277V73.712ZM260.049 64.4C257.937 61.664 254.769 60.32 251.169 60.32C243.729 60.32 238.305 65.504 238.305 73.28C238.305 81.056 243.729 86.288 251.169 86.288C254.913 86.288 258.177 84.848 260.241 81.968V86H264.657V50.384H260.049V64.4ZM251.553 82.256C246.657 82.256 242.961 78.704 242.961 73.28C242.961 67.856 246.657 64.352 251.553 64.352C256.401 64.352 260.097 67.856 260.097 73.28C260.097 78.704 256.401 82.256 251.553 82.256ZM275.68 55.664C277.504 55.664 278.8 54.32 278.8 52.592C278.8 50.96 277.456 49.664 275.68 49.664C273.904 49.664 272.56 51.008 272.56 52.688C272.56 54.368 273.904 55.664 275.68 55.664ZM277.984 86V60.56H273.376V86H277.984ZM297.678 86.288C305.31 86.288 310.878 80.864 310.878 73.28C310.878 65.696 305.31 60.32 297.678 60.32C290.046 60.32 284.43 65.696 284.43 73.28C284.43 80.864 290.046 86.288 297.678 86.288ZM297.678 82.256C292.782 82.256 289.086 78.704 289.086 73.28C289.086 67.856 292.782 64.352 297.678 64.352C302.574 64.352 306.222 67.856 306.222 73.28C306.222 78.704 302.574 82.256 297.678 82.256Z" fill="black"/>
</g>
<defs>
<clipPath id="clip0_1_101">
<rect width="466" height="155" fill="white"/>
</clipPath>
</defs>
</svg>
