<svg width="786" height="165" viewBox="0 0 786 165" fill="none" xmlns="http://www.w3.org/2000/svg">
<path d="M786 156.305C786 160.723 782.418 164.305 778 164.305H8C3.58172 164.305 0 160.723 0 156.305V71.3711C0 71.1942 0.143392 71.0508 0.320274 71.0508L21.1071 18.7181C23.7799 11.9891 33.3042 11.9891 35.977 18.7181L54.7593 66.004C55.9694 69.0507 58.916 71.0508 62.1942 71.0508H778C782.418 71.0508 786 74.6325 786 79.0508V156.305Z" fill="#FD5353"/>
<path d="M38.464 134L38.464 104.576L49.984 104.576L49.984 100.4L22.192 100.4L22.192 104.576L33.712 104.576L33.712 134L38.464 134ZM62.8109 134.288C70.4429 134.288 76.0109 128.864 76.0109 121.28C76.0109 113.696 70.4429 108.32 62.8109 108.32C55.1789 108.32 49.5629 113.696 49.5629 121.28C49.5629 128.864 55.1789 134.288 62.8109 134.288ZM62.8109 130.256C57.9149 130.256 54.2189 126.704 54.2189 121.28C54.2189 115.856 57.9149 112.352 62.8109 112.352C67.7069 112.352 71.3549 115.856 71.3549 121.28C71.3549 126.704 67.7069 130.256 62.8109 130.256ZM108.762 108.32C105.162 108.32 101.994 109.664 99.8823 112.4L99.8823 98.3841L95.2743 98.3841L95.2743 134L99.6903 134L99.6903 129.968C101.754 132.848 105.018 134.288 108.762 134.288C116.202 134.288 121.626 129.056 121.626 121.28C121.626 113.504 116.202 108.32 108.762 108.32ZM108.378 130.256C103.53 130.256 99.8343 126.704 99.8343 121.28C99.8343 115.856 103.53 112.352 108.378 112.352C113.274 112.352 116.97 115.856 116.97 121.28C116.97 126.704 113.274 130.256 108.378 130.256ZM150.985 121.424C150.985 113.6 145.753 108.32 138.409 108.32C131.065 108.32 125.641 113.744 125.641 121.28C125.641 128.864 131.113 134.288 139.321 134.288C143.545 134.288 147.049 132.848 149.353 130.16L146.809 127.184C144.937 129.248 142.441 130.256 139.465 130.256C134.425 130.256 130.825 127.28 130.249 122.816L150.889 122.816C150.937 122.384 150.985 121.808 150.985 121.424ZM138.409 112.208C142.873 112.208 146.089 115.232 146.569 119.504L130.249 119.504C130.729 115.184 133.993 112.208 138.409 112.208ZM189.378 121.712C189.378 127.184 186.306 130.16 181.506 130.16C177.138 130.16 174.642 127.664 174.642 122.672L174.642 108.56L170.034 108.56L170.034 123.2C170.034 130.688 174.402 134.288 180.978 134.288C184.578 134.288 187.746 132.8 189.618 130.16L189.618 134L193.986 134L193.986 108.56L189.378 108.56L189.378 121.712ZM216.343 108.32C212.311 108.32 209.047 109.808 207.175 112.4L207.175 108.56L202.759 108.56L202.759 134L207.367 134L207.367 120.896C207.367 115.376 210.535 112.448 215.431 112.448C219.799 112.448 222.295 114.896 222.295 119.888L222.295 134L226.903 134L226.903 119.36C226.903 111.872 222.535 108.32 216.343 108.32ZM246.711 122.816L246.711 118.832L233.799 118.832L233.799 122.816L246.711 122.816ZM258.414 134L258.414 98.3841L253.806 98.3841L253.806 134L258.414 134ZM278.108 134.288C285.74 134.288 291.308 128.864 291.308 121.28C291.308 113.696 285.74 108.32 278.108 108.32C270.476 108.32 264.86 113.696 264.86 121.28C264.86 128.864 270.476 134.288 278.108 134.288ZM278.108 130.256C273.212 130.256 269.516 126.704 269.516 121.28C269.516 115.856 273.212 112.352 278.108 112.352C283.004 112.352 286.652 115.856 286.652 121.28C286.652 126.704 283.004 130.256 278.108 130.256ZM308.769 134.288C313.329 134.288 317.121 132.368 319.137 128.816L315.633 126.608C314.001 129.104 311.505 130.256 308.721 130.256C303.729 130.256 299.985 126.8 299.985 121.28C299.985 115.856 303.729 112.352 308.721 112.352C311.505 112.352 314.001 113.504 315.633 116L319.137 113.744C317.121 110.192 313.329 108.32 308.769 108.32C300.945 108.32 295.329 113.696 295.329 121.28C295.329 128.864 300.945 134.288 308.769 134.288ZM349.878 134L338.118 119.072L348.822 108.56L343.254 108.56L329.382 121.232L329.382 98.3841L324.774 98.3841L324.774 134L329.382 134L329.382 127.04L334.662 122.144L344.214 134L349.878 134ZM376.266 121.424C376.266 113.6 371.034 108.32 363.69 108.32C356.346 108.32 350.922 113.744 350.922 121.28C350.922 128.864 356.394 134.288 364.602 134.288C368.826 134.288 372.33 132.848 374.634 130.16L372.09 127.184C370.218 129.248 367.722 130.256 364.746 130.256C359.706 130.256 356.106 127.28 355.53 122.816L376.17 122.816C376.218 122.384 376.266 121.808 376.266 121.424ZM363.69 112.208C368.154 112.208 371.37 115.232 371.85 119.504L355.53 119.504C356.01 115.184 359.274 112.208 363.69 112.208ZM402.057 112.4C399.945 109.664 396.777 108.32 393.177 108.32C385.737 108.32 380.313 113.504 380.313 121.28C380.313 129.056 385.737 134.288 393.177 134.288C396.921 134.288 400.185 132.848 402.249 129.968L402.249 134L406.665 134L406.665 98.3841L402.057 98.3841L402.057 112.4ZM393.561 130.256C388.665 130.256 384.969 126.704 384.969 121.28C384.969 115.856 388.665 112.352 393.561 112.352C398.409 112.352 402.105 115.856 402.105 121.28C402.105 126.704 398.409 130.256 393.561 130.256ZM441.762 108.32C438.162 108.32 434.994 109.664 432.882 112.4L432.882 98.3841L428.274 98.3841L428.274 134L432.69 134L432.69 129.968C434.754 132.848 438.018 134.288 441.762 134.288C449.202 134.288 454.626 129.056 454.626 121.28C454.626 113.504 449.202 108.32 441.762 108.32ZM441.378 130.256C436.53 130.256 432.834 126.704 432.834 121.28C432.834 115.856 436.53 112.352 441.378 112.352C446.274 112.352 449.97 115.856 449.97 121.28C449.97 126.704 446.274 130.256 441.378 130.256ZM469.506 128.912L460.626 108.56L455.826 108.56L467.058 133.952L466.242 135.728C464.994 138.656 463.602 139.664 461.394 139.664C459.666 139.664 458.082 138.992 456.834 137.792L454.866 141.248C456.45 142.784 458.946 143.6 461.394 143.6C465.282 143.6 468.21 141.92 470.466 136.544L482.802 108.56L478.29 108.56L469.506 128.912ZM512.857 129.2C511.897 129.968 510.601 130.4 509.257 130.4C506.713 130.4 505.273 128.864 505.273 126.128L505.273 112.352L512.569 112.352L512.569 108.56L505.273 108.56L505.273 102.992L500.665 102.992L500.665 108.56L496.345 108.56L496.345 112.352L500.665 112.352L500.665 126.32C500.665 131.456 503.593 134.288 508.729 134.288C510.793 134.288 512.905 133.712 514.297 132.512L512.857 129.2ZM533.452 108.32C529.564 108.32 526.396 109.712 524.476 112.16L524.476 98.384L519.868 98.384L519.868 134L524.476 134L524.476 120.896C524.476 115.376 527.644 112.448 532.54 112.448C536.908 112.448 539.404 114.896 539.404 119.888L539.404 134L544.012 134L544.012 119.36C544.012 111.872 539.644 108.32 533.452 108.32ZM575.532 121.424C575.532 113.6 570.3 108.32 562.956 108.32C555.612 108.32 550.188 113.744 550.188 121.28C550.188 128.864 555.66 134.288 563.868 134.288C568.092 134.288 571.596 132.848 573.9 130.16L571.356 127.184C569.484 129.248 566.988 130.256 564.012 130.256C558.972 130.256 555.372 127.28 554.796 122.816L575.436 122.816C575.484 122.384 575.532 121.808 575.532 121.424ZM562.956 112.208C567.42 112.208 570.636 115.232 571.116 119.504L554.796 119.504C555.276 115.184 558.54 112.208 562.956 112.208ZM603.893 128.96L595.157 108.56L590.357 108.56L601.493 134L606.197 134L617.333 108.56L612.821 108.56L603.893 128.96ZM631.827 134.288C639.459 134.288 645.027 128.864 645.027 121.28C645.027 113.696 639.459 108.32 631.827 108.32C624.195 108.32 618.579 113.696 618.579 121.28C618.579 128.864 624.195 134.288 631.827 134.288ZM631.827 130.256C626.931 130.256 623.235 126.704 623.235 121.28C623.235 115.856 626.931 112.352 631.827 112.352C636.723 112.352 640.371 115.856 640.371 121.28C640.371 126.704 636.723 130.256 631.827 130.256ZM659.912 128.912L651.032 108.56L646.232 108.56L657.464 133.952L656.648 135.728C655.4 138.656 654.008 139.664 651.8 139.664C650.072 139.664 648.488 138.992 647.24 137.792L645.272 141.248C646.856 142.784 649.352 143.6 651.8 143.6C655.688 143.6 658.616 141.92 660.872 136.544L673.208 108.56L668.696 108.56L659.912 128.912ZM685.976 108.32C681.896 108.32 678.104 109.472 675.464 111.584L677.384 115.04C679.352 113.36 682.424 112.304 685.448 112.304C690.008 112.304 692.264 114.56 692.264 118.448L692.264 119.36L684.968 119.36C677.384 119.36 674.744 122.72 674.744 126.8C674.744 131.216 678.392 134.288 684.152 134.288C688.136 134.288 690.968 132.944 692.504 130.64L692.504 134L696.872 134L696.872 118.64C696.872 111.68 692.936 108.32 685.976 108.32ZM684.92 130.736C681.416 130.736 679.304 129.152 679.304 126.608C679.304 124.448 680.6 122.672 685.16 122.672L692.264 122.672L692.264 126.224C691.112 129.152 688.376 130.736 684.92 130.736ZM725.367 112.496C723.207 109.712 719.751 108.32 715.959 108.32C708.615 108.32 703.047 113.264 703.047 120.608C703.047 127.952 708.615 132.944 715.959 132.944C719.607 132.944 722.919 131.648 725.127 129.008L725.127 131.024C725.127 136.784 722.391 139.568 716.391 139.568C712.647 139.568 708.951 138.272 706.599 136.256L704.391 139.808C707.175 142.304 711.879 143.6 716.535 143.6C725.175 143.6 729.735 139.52 729.735 130.544L729.735 108.56L725.367 108.56L725.367 112.496ZM716.487 128.912C711.351 128.912 707.703 125.504 707.703 120.608C707.703 115.664 711.351 112.352 716.487 112.352C721.575 112.352 725.223 115.664 725.223 120.608C725.223 125.504 721.575 128.912 716.487 128.912ZM761.532 121.424C761.532 113.6 756.3 108.32 748.956 108.32C741.612 108.32 736.188 113.744 736.188 121.28C736.188 128.864 741.66 134.288 749.868 134.288C754.092 134.288 757.596 132.848 759.9 130.16L757.356 127.184C755.484 129.248 752.988 130.256 750.012 130.256C744.972 130.256 741.372 127.28 740.796 122.816L761.436 122.816C761.484 122.384 761.532 121.808 761.532 121.424ZM748.956 112.208C753.42 112.208 756.636 115.232 757.116 119.504L740.796 119.504C741.276 115.184 744.54 112.208 748.956 112.208Z" fill="white"/>
</svg>
