<svg width="786" height="165" viewBox="0 0 786 165" fill="none" xmlns="http://www.w3.org/2000/svg">
<path d="M786 8.34746C786 3.92919 782.418 0.347473 778 0.347473H7.99998C3.5817 0.347473 0 3.9292 0 8.34747V93.411C0 93.5164 0.0854136 93.6018 0.190777 93.6018C0.268954 93.6018 0.339219 93.6495 0.368079 93.7221L21.1071 145.934C23.7799 152.663 33.3042 152.663 35.977 145.934L54.7593 98.6486C55.9694 95.6018 58.9159 93.6018 62.1942 93.6018H778C782.418 93.6018 786 90.0201 786 85.6018V8.34746Z" fill="#FD5353"/>
<path d="M84.496 29.4001L73.696 47.1121L62.944 29.4001L57.808 29.4001L71.152 51.2881L71.152 63.0001L75.904 63.0001L75.904 51.3841L89.248 29.4001L84.496 29.4001ZM101.483 63.2881C109.115 63.2881 114.683 57.8641 114.683 50.2801C114.683 42.6961 109.115 37.3201 101.483 37.3201C93.8508 37.3201 88.2348 42.6961 88.2348 50.2801C88.2348 57.8641 93.8508 63.2881 101.483 63.2881ZM101.483 59.2561C96.5868 59.2561 92.8908 55.7041 92.8908 50.2801C92.8908 44.8561 96.5868 41.3521 101.483 41.3521C106.379 41.3521 110.027 44.8561 110.027 50.2801C110.027 55.7041 106.379 59.2561 101.483 59.2561ZM140.16 50.7121C140.16 56.1841 137.088 59.1601 132.288 59.1601C127.92 59.1601 125.424 56.6641 125.424 51.6721L125.424 37.5601L120.816 37.5601L120.816 52.2001C120.816 59.6881 125.184 63.2881 131.76 63.2881C135.36 63.2881 138.528 61.8001 140.4 59.1601L140.4 63.0001L144.768 63.0001L144.768 37.5601L140.16 37.5601L140.16 50.7121ZM193.215 57.912L185.679 37.56L181.791 37.56L174.111 57.8161L166.719 37.5601L162.351 37.5601L171.807 63.0001L176.223 63.0001L183.663 43.704L191.007 63L195.423 63L204.927 37.56L200.799 37.56L193.215 57.912ZM211.906 32.664C213.73 32.664 215.026 31.32 215.026 29.592C215.026 27.96 213.682 26.664 211.906 26.664C210.13 26.664 208.786 28.008 208.786 29.688C208.786 31.368 210.13 32.664 211.906 32.664ZM214.21 63L214.21 37.56L209.602 37.56L209.602 63L214.21 63ZM227.617 63L227.617 27.384L223.009 27.384L223.009 63L227.617 63ZM241.023 63L241.023 27.384L236.415 27.384L236.415 63L241.023 63ZM287.816 63L276.056 48.072L286.76 37.56L281.192 37.56L267.32 50.232L267.32 27.384L262.712 27.384L262.712 63L267.32 63L267.32 56.04L272.6 51.144L282.152 63L287.816 63ZM305.546 37.32C301.514 37.32 298.25 38.808 296.378 41.4L296.378 37.56L291.962 37.56L291.962 63L296.57 63L296.57 49.896C296.57 44.376 299.738 41.448 304.634 41.448C309.002 41.448 311.498 43.896 311.498 48.888L311.498 63L316.106 63L316.106 48.36C316.106 40.872 311.738 37.32 305.546 37.32ZM335.53 63.288C343.162 63.288 348.73 57.864 348.73 50.28C348.73 42.696 343.162 37.32 335.53 37.32C327.898 37.32 322.282 42.696 322.282 50.28C322.282 57.864 327.898 63.288 335.53 63.288ZM335.53 59.256C330.634 59.256 326.938 55.704 326.938 50.28C326.938 44.856 330.634 41.352 335.53 41.352C340.426 41.352 344.074 44.856 344.074 50.28C344.074 55.704 340.426 59.256 335.53 59.256ZM381.183 57.912L373.647 37.56L369.759 37.56L362.079 57.816L354.687 37.56L350.319 37.56L359.775 63L364.191 63L371.631 43.704L378.975 63L383.391 63L392.895 37.56L388.767 37.56L381.183 57.912ZM417.758 63.288C424.526 63.288 428.75 60.36 428.75 55.752C428.75 45.864 412.622 50.76 412.622 44.76C412.622 42.744 414.59 41.256 418.622 41.256C421.118 41.256 423.662 41.784 425.966 43.272L427.934 39.624C425.726 38.184 421.982 37.32 418.67 37.32C412.142 37.32 408.062 40.392 408.062 44.952C408.062 55.08 424.142 50.136 424.142 55.848C424.142 58.008 422.366 59.304 418.094 59.304C414.782 59.304 411.326 58.2 409.166 56.664L407.246 60.312C409.358 61.992 413.534 63.288 417.758 63.288ZM445.405 63.288C453.037 63.288 458.605 57.864 458.605 50.28C458.605 42.696 453.037 37.32 445.405 37.32C437.773 37.32 432.157 42.696 432.157 50.28C432.157 57.864 437.773 63.288 445.405 63.288ZM445.405 59.256C440.509 59.256 436.813 55.704 436.813 50.28C436.813 44.856 440.509 41.352 445.405 41.352C450.301 41.352 453.949 44.856 453.949 50.28C453.949 55.704 450.301 59.256 445.405 59.256ZM475.873 63.288C483.505 63.288 489.073 57.864 489.073 50.28C489.073 42.696 483.505 37.32 475.873 37.32C468.241 37.32 462.625 42.696 462.625 50.28C462.625 57.864 468.241 63.288 475.873 63.288ZM475.873 59.256C470.977 59.256 467.281 55.704 467.281 50.28C467.281 44.856 470.977 41.352 475.873 41.352C480.769 41.352 484.417 44.856 484.417 50.28C484.417 55.704 480.769 59.256 475.873 59.256ZM509.03 37.32C504.998 37.32 501.734 38.808 499.862 41.4L499.862 37.56L495.446 37.56L495.446 63L500.054 63L500.054 49.896C500.054 44.376 503.222 41.448 508.118 41.448C512.486 41.448 514.982 43.896 514.982 48.888L514.982 63L519.59 63L519.59 48.36C519.59 40.872 515.222 37.32 509.03 37.32ZM564.001 50.424C564.001 42.6 558.769 37.32 551.425 37.32C544.081 37.32 538.657 42.744 538.657 50.28C538.657 57.864 544.129 63.288 552.337 63.288C556.561 63.288 560.065 61.848 562.369 59.16L559.825 56.184C557.953 58.248 555.457 59.256 552.481 59.256C547.441 59.256 543.841 56.28 543.265 51.816L563.905 51.816C563.953 51.384 564.001 50.808 564.001 50.424ZM551.425 41.208C555.889 41.208 559.105 44.232 559.585 48.504L543.265 48.504C543.745 44.184 547.009 41.208 551.425 41.208ZM583.983 37.32C579.951 37.32 576.687 38.808 574.815 41.4L574.815 37.56L570.399 37.56L570.399 63L575.007 63L575.007 49.896C575.007 44.376 578.175 41.448 583.071 41.448C587.439 41.448 589.935 43.896 589.935 48.888L589.935 63L594.543 63L594.543 48.36C594.543 40.872 590.175 37.32 583.983 37.32ZM613.967 63.288C621.599 63.288 627.167 57.864 627.167 50.28C627.167 42.696 621.599 37.32 613.967 37.32C606.335 37.32 600.719 42.696 600.719 50.28C600.719 57.864 606.335 63.288 613.967 63.288ZM613.967 59.256C609.071 59.256 605.375 55.704 605.375 50.28C605.375 44.856 609.071 41.352 613.967 41.352C618.863 41.352 622.511 44.856 622.511 50.28C622.511 55.704 618.863 59.256 613.967 59.256ZM652.644 50.712C652.644 56.184 649.572 59.16 644.772 59.16C640.404 59.16 637.908 56.664 637.908 51.672L637.908 37.56L633.3 37.56L633.3 52.2C633.3 59.688 637.668 63.288 644.244 63.288C647.844 63.288 651.012 61.8 652.884 59.16L652.884 63L657.252 63L657.252 37.56L652.644 37.56L652.644 50.712ZM685.992 41.496C683.832 38.712 680.376 37.32 676.584 37.32C669.24 37.32 663.672 42.264 663.672 49.608C663.672 56.952 669.24 61.944 676.584 61.944C680.232 61.944 683.544 60.648 685.752 58.008L685.752 60.024C685.752 65.784 683.016 68.568 677.016 68.568C673.272 68.568 669.576 67.272 667.224 65.256L665.016 68.808C667.8 71.304 672.504 72.6 677.16 72.6C685.8 72.6 690.36 68.52 690.36 59.544L690.36 37.56L685.992 37.56L685.992 41.496ZM677.112 57.912C671.976 57.912 668.328 54.504 668.328 49.608C668.328 44.664 671.976 41.352 677.112 41.352C682.2 41.352 685.848 44.664 685.848 49.608C685.848 54.504 682.2 57.912 677.112 57.912ZM712.749 37.32C708.861 37.32 705.693 38.712 703.773 41.16L703.773 27.384L699.165 27.384L699.165 63L703.773 63L703.773 49.896C703.773 44.376 706.941 41.448 711.837 41.448C716.205 41.448 718.701 43.896 718.701 48.888L718.701 63L723.309 63L723.309 48.36C723.309 40.872 718.941 37.32 712.749 37.32Z" fill="white"/>
</svg>
