<svg width="231" height="39" viewBox="0 0 231 39" fill="none" xmlns="http://www.w3.org/2000/svg">
<g clip-path="url(#clip0_1_78)">
<rect x="16" width="206" height="39" fill="url(#paint0_linear_1_78)"/>
<path d="M0.5 38.5V13.1562L9.26198 0.5H229.5V29.7848L220.29 38.5H0.5Z" stroke="#4735E2"/>
<path d="M0 11.5L8 0H48V30L40 39H0V11.5Z" fill="white"/>
<path d="M226.5 35L230.5 31.5V39H222L226.5 35Z" fill="white"/>
<path d="M76.688 25.128C78.432 25.128 79.936 24.52 80.96 23.368L79.92 22.36C79.056 23.272 78 23.704 76.768 23.704C74.24 23.704 72.368 21.88 72.368 19.4C72.368 16.92 74.24 15.096 76.768 15.096C78 15.096 79.056 15.512 79.92 16.424L80.96 15.416C79.936 14.264 78.432 13.672 76.704 13.672C73.296 13.672 70.768 16.088 70.768 19.4C70.768 22.712 73.296 25.128 76.688 25.128ZM86.2911 25.096C88.8351 25.096 90.6911 23.288 90.6911 20.76C90.6911 18.232 88.8351 16.44 86.2911 16.44C83.7471 16.44 81.8751 18.232 81.8751 20.76C81.8751 23.288 83.7471 25.096 86.2911 25.096ZM86.2911 23.752C84.6591 23.752 83.4271 22.568 83.4271 20.76C83.4271 18.952 84.6591 17.784 86.2911 17.784C87.9231 17.784 89.1391 18.952 89.1391 20.76C89.1391 22.568 87.9231 23.752 86.2911 23.752ZM97.3434 16.44C95.9994 16.44 94.9114 16.936 94.2874 17.8V16.52H92.8154V25H94.3514V20.632C94.3514 18.792 95.4074 17.816 97.0394 17.816C98.4954 17.816 99.3274 18.632 99.3274 20.296V25H100.863V20.12C100.863 17.624 99.4074 16.44 97.3434 16.44ZM108.234 16.44C106.89 16.44 105.802 16.936 105.178 17.8V16.52H103.706V25H105.242V20.632C105.242 18.792 106.298 17.816 107.93 17.816C109.386 17.816 110.218 18.632 110.218 20.296V25H111.754V20.12C111.754 17.624 110.298 16.44 108.234 16.44ZM122.261 20.808C122.261 18.2 120.517 16.44 118.069 16.44C115.621 16.44 113.813 18.248 113.813 20.76C113.813 23.288 115.637 25.096 118.373 25.096C119.781 25.096 120.949 24.616 121.717 23.72L120.869 22.728C120.245 23.416 119.413 23.752 118.421 23.752C116.741 23.752 115.541 22.76 115.349 21.272H122.229C122.245 21.128 122.261 20.936 122.261 20.808ZM118.069 17.736C119.557 17.736 120.629 18.744 120.789 20.168H115.349C115.509 18.728 116.597 17.736 118.069 17.736ZM128.09 25.096C129.61 25.096 130.874 24.456 131.546 23.272L130.378 22.536C129.834 23.368 129.002 23.752 128.074 23.752C126.41 23.752 125.162 22.6 125.162 20.76C125.162 18.952 126.41 17.784 128.074 17.784C129.002 17.784 129.834 18.168 130.378 19L131.546 18.248C130.874 17.064 129.61 16.44 128.09 16.44C125.482 16.44 123.61 18.232 123.61 20.76C123.61 23.288 125.482 25.096 128.09 25.096ZM137.932 23.4C137.612 23.656 137.18 23.8 136.732 23.8C135.884 23.8 135.404 23.288 135.404 22.376V17.784H137.836V16.52H135.404V14.664H133.868V16.52H132.428V17.784H133.868V22.44C133.868 24.152 134.844 25.096 136.556 25.096C137.244 25.096 137.948 24.904 138.412 24.504L137.932 23.4ZM156.005 22.952L152.917 13.8H151.445L148.293 22.904L145.269 13.8H143.621L147.365 25H149.077L152.133 16.056L155.189 25H156.869L160.613 13.8H159.093L156.005 22.952ZM164.794 16.44C163.434 16.44 162.17 16.824 161.29 17.528L161.93 18.68C162.586 18.12 163.61 17.768 164.618 17.768C166.138 17.768 166.89 18.52 166.89 19.816V20.12H164.458C161.93 20.12 161.05 21.24 161.05 22.6C161.05 24.072 162.266 25.096 164.186 25.096C165.514 25.096 166.458 24.648 166.97 23.88V25H168.426V19.88C168.426 17.56 167.114 16.44 164.794 16.44ZM164.442 23.912C163.274 23.912 162.57 23.384 162.57 22.536C162.57 21.816 163.002 21.224 164.522 21.224H166.89V22.408C166.506 23.384 165.594 23.912 164.442 23.912ZM172.805 25V13.128H171.269V25H172.805ZM177.273 25V13.128H175.737V25H177.273ZM187.87 20.808C187.87 18.2 186.126 16.44 183.678 16.44C181.23 16.44 179.422 18.248 179.422 20.76C179.422 23.288 181.246 25.096 183.982 25.096C185.39 25.096 186.558 24.616 187.326 23.72L186.478 22.728C185.854 23.416 185.022 23.752 184.03 23.752C182.35 23.752 181.15 22.76 180.958 21.272H187.838C187.854 21.128 187.87 20.936 187.87 20.808ZM183.678 17.736C185.166 17.736 186.238 18.744 186.398 20.168H180.958C181.118 18.728 182.206 17.736 183.678 17.736ZM194.291 23.4C193.971 23.656 193.539 23.8 193.091 23.8C192.243 23.8 191.763 23.288 191.763 22.376V17.784H194.195V16.52H191.763V14.664H190.227V16.52H188.787V17.784H190.227V22.44C190.227 24.152 191.203 25.096 192.915 25.096C193.603 25.096 194.307 24.904 194.771 24.504L194.291 23.4Z" fill="white"/>
<path fill-rule="evenodd" clip-rule="evenodd" d="M14 16C14 13.2386 16.2386 11 19 11H29C31.7614 11 34 13.2386 34 16V26C34 28.7614 31.7614 31 29 31H19C16.2386 31 14 28.7614 14 26V16ZM19 13C17.3431 13 16 14.3431 16 16V26C16 27.6569 17.3431 29 19 29H29C30.6569 29 32 27.6569 32 26V16C32 14.3431 30.6569 13 29 13H19Z" fill="#0E0F26"/>
<path fill-rule="evenodd" clip-rule="evenodd" d="M23 21C23 18.7909 24.7909 17 27 17H32C33.1046 17 34 17.8954 34 19V23C34 24.1046 33.1046 25 32 25H27C24.7909 25 23 23.2091 23 21ZM27 19C25.8954 19 25 19.8954 25 21C25 22.1046 25.8954 23 27 23H32V19H27Z" fill="#0E0F26"/>
<path fill-rule="evenodd" clip-rule="evenodd" d="M26 21C26 20.4477 26.4477 20 27 20L27.1 20C27.6523 20 28.1 20.4477 28.1 21C28.1 21.5523 27.6523 22 27.1 22L27 22C26.4477 22 26 21.5523 26 21Z" fill="#0E0F26"/>
</g>
<defs>
<linearGradient id="paint0_linear_1_78" x1="16" y1="19" x2="222" y2="19" gradientUnits="userSpaceOnUse">
<stop stop-color="#4735E2"/>
<stop offset="1" stop-opacity="0"/>
</linearGradient>
<clipPath id="clip0_1_78">
<rect width="231" height="39" fill="white"/>
</clipPath>
</defs>
</svg>
