<svg width="82" height="218" viewBox="0 0 82 218" fill="none" xmlns="http://www.w3.org/2000/svg">
<rect width="82" height="218" rx="8" fill="#0B0C1E"/>
<path d="M57.634 157.311C54.5747 155.907 51.294 154.873 47.8638 154.281C47.8013 154.269 47.7389 154.298 47.7067 154.355C47.2848 155.106 46.8175 156.085 46.4902 156.854C42.8008 156.302 39.1304 156.302 35.5166 156.854C35.1893 156.067 34.705 155.106 34.2811 154.355C34.249 154.3 34.1866 154.271 34.1241 154.281C30.6958 154.871 27.4151 155.906 24.3539 157.311C24.3274 157.323 24.3047 157.342 24.2896 157.366C18.0668 166.663 16.3621 175.731 17.1984 184.687C17.2021 184.731 17.2267 184.773 17.2608 184.8C21.3664 187.815 25.3434 189.645 29.2466 190.858C29.309 190.877 29.3752 190.854 29.415 190.803C30.3383 189.542 31.1613 188.213 31.867 186.815C31.9086 186.733 31.8688 186.636 31.7837 186.603C30.4783 186.108 29.2352 185.504 28.0395 184.819C27.9449 184.763 27.9373 184.628 28.0243 184.563C28.2759 184.375 28.5276 184.179 28.7679 183.98C28.8114 183.944 28.872 183.937 28.9231 183.96C36.7786 187.546 45.2831 187.546 53.0459 183.96C53.097 183.935 53.1576 183.942 53.203 183.979C53.4433 184.177 53.6949 184.375 53.9484 184.563C54.0354 184.628 54.0298 184.763 53.9352 184.819C52.7394 185.518 51.4964 186.108 50.189 186.601C50.1039 186.634 50.0661 186.733 50.1077 186.815C50.8285 188.211 51.6515 189.54 52.5578 190.801C52.5956 190.854 52.6637 190.877 52.7262 190.858C56.6483 189.645 60.6252 187.815 64.7309 184.8C64.7668 184.773 64.7895 184.733 64.7933 184.689C65.7942 174.335 63.117 165.341 57.6964 157.368C57.6832 157.342 57.6605 157.323 57.634 157.311ZM33.04 179.234C30.675 179.234 28.7263 177.063 28.7263 174.396C28.7263 171.73 30.6372 169.558 33.04 169.558C35.4617 169.558 37.3916 171.749 37.3538 174.396C37.3538 177.063 35.4428 179.234 33.04 179.234ZM48.9895 179.234C46.6245 179.234 44.6758 177.063 44.6758 174.396C44.6758 171.73 46.5867 169.558 48.9895 169.558C51.4113 169.558 53.3411 171.749 53.3033 174.396C53.3033 177.063 51.4113 179.234 48.9895 179.234Z" fill="white"/>
<g clip-path="url(#clip0_1_360)">
<path d="M32.1003 64.5001C50.2091 64.5001 60.1166 49.4935 60.1166 36.4838C60.1166 36.0619 60.1072 35.6307 60.0884 35.2088C62.0158 33.815 63.679 32.0886 65 30.1107C63.205 30.9093 61.2993 31.4309 59.3478 31.6576C61.4026 30.4259 62.9411 28.491 63.6781 26.2116C61.7451 27.3572 59.6312 28.1653 57.4269 28.6013C55.9417 27.0232 53.978 25.9783 51.8394 25.6282C49.7008 25.2781 47.5064 25.6422 45.5955 26.6643C43.6846 27.6864 42.1636 29.3095 41.2677 31.2827C40.3718 33.2559 40.1509 35.4693 40.6391 37.5807C36.725 37.3843 32.8959 36.3675 29.4 34.5963C25.9041 32.8251 22.8194 30.339 20.3459 27.2991C19.0888 29.4666 18.7041 32.0314 19.2701 34.4723C19.836 36.9132 21.3101 39.047 23.3928 40.4401C21.8293 40.3904 20.3 39.9695 18.9313 39.2119V39.3338C18.9298 41.6084 19.7162 43.8133 21.1566 45.5736C22.597 47.334 24.6026 48.5412 26.8325 48.9901C25.3841 49.3863 23.864 49.4441 22.3897 49.1588C23.0189 51.115 24.2431 52.8259 25.8915 54.0528C27.5399 55.2796 29.5302 55.9613 31.5847 56.0026C28.0968 58.7423 23.7883 60.2283 19.3531 60.2213C18.5666 60.2201 17.7808 60.1719 17 60.0769C21.5057 62.9676 26.7471 64.5029 32.1003 64.5001Z" fill="white"/>
</g>
<path d="M65 108.655C65 115.014 63.9343 120.172 62.6193 120.172C61.3044 120.172 60.2392 115.015 60.2392 108.655C60.2392 102.295 61.3049 97.1389 62.6193 97.1389C63.9338 97.1389 65 102.295 65 108.655Z" fill="white"/>
<path d="M58.9256 108.655C58.9256 115.754 55.8951 121.511 52.1568 121.511C48.4184 121.511 45.3879 115.754 45.3879 108.655C45.3879 101.557 48.418 95.7999 52.1563 95.7999C55.8946 95.7999 58.9251 101.555 58.9251 108.655" fill="white"/>
<path d="M44.0749 108.655C44.0749 116.197 38.0139 122.31 30.5377 122.31C23.0615 122.31 17 116.195 17 108.655C17 101.115 23.061 95 30.5377 95C38.0143 95 44.0749 101.114 44.0749 108.655Z" fill="white"/>
<defs>
<clipPath id="clip0_1_360">
<rect width="48" height="48" fill="white" transform="translate(17 21)"/>
</clipPath>
</defs>
</svg>
