<svg width="230" height="611" viewBox="0 0 230 611" fill="none" xmlns="http://www.w3.org/2000/svg">
<rect width="230" height="611" rx="8" fill="#0B0C1E"/>
<g clip-path="url(#clip0_1_372)">
<path d="M161.656 440.904C153.075 436.97 143.873 434.071 134.252 432.411C134.077 432.379 133.902 432.459 133.812 432.619C132.628 434.722 131.317 437.466 130.399 439.623C120.051 438.075 109.756 438.075 99.6199 439.623C98.7017 437.418 97.3433 434.722 96.1545 432.619C96.0642 432.464 95.8892 432.384 95.714 432.411C86.0981 434.066 76.8961 436.965 68.3097 440.904C68.2354 440.936 68.1716 440.99 68.1294 441.059C50.6752 467.116 45.8938 492.532 48.2394 517.632C48.25 517.755 48.319 517.873 48.4145 517.947C59.9303 526.398 71.0852 531.528 82.0331 534.928C82.2083 534.982 82.3939 534.918 82.5054 534.774C85.0952 531.24 87.4037 527.514 89.383 523.595C89.4998 523.366 89.3883 523.093 89.1495 523.003C85.4879 521.615 82.0012 519.922 78.6473 518.001C78.382 517.846 78.3608 517.467 78.6048 517.285C79.3106 516.757 80.0166 516.207 80.6905 515.652C80.8125 515.55 80.9824 515.529 81.1257 515.593C103.159 525.645 127.014 525.645 148.787 515.593C148.931 515.524 149.101 515.545 149.228 515.646C149.902 516.202 150.608 516.757 151.319 517.285C151.563 517.467 151.547 517.846 151.282 518.001C147.928 519.96 144.441 521.615 140.774 522.997C140.535 523.088 140.429 523.366 140.546 523.595C142.568 527.508 144.876 531.234 147.418 534.768C147.524 534.918 147.715 534.982 147.891 534.928C158.892 531.528 170.046 526.398 181.562 517.947C181.663 517.873 181.727 517.76 181.737 517.638C184.545 488.618 177.036 463.411 161.832 441.064C161.794 440.99 161.731 440.936 161.656 440.904ZM92.6734 502.349C86.0397 502.349 80.5737 496.263 80.5737 488.789C80.5737 481.315 85.9337 475.23 92.6734 475.23C99.4659 475.23 104.879 481.369 104.773 488.789C104.773 496.263 99.4128 502.349 92.6734 502.349ZM137.41 502.349C130.776 502.349 125.31 496.263 125.31 488.789C125.31 481.315 130.67 475.23 137.41 475.23C144.202 475.23 149.615 481.369 149.509 488.789C149.509 496.263 144.202 502.349 137.41 502.349Z" fill="white"/>
</g>
<g clip-path="url(#clip1_1_372)">
<path d="M90.0375 180.778C140.83 180.778 168.62 138.718 168.62 102.255C168.62 101.073 168.593 99.864 168.541 98.6816C173.947 94.7751 178.612 89.9364 182.317 84.3928C177.283 86.6311 171.937 88.0929 166.463 88.7283C172.227 85.2763 176.542 79.8533 178.609 73.4647C173.188 76.6754 167.258 78.9404 161.075 80.1624C156.91 75.7393 151.402 72.8108 145.403 71.8295C139.405 70.8481 133.25 71.8687 127.89 74.7334C122.53 77.598 118.264 82.1472 115.751 87.6777C113.238 93.2081 112.618 99.4117 113.988 105.329C103.009 104.779 92.269 101.929 82.4634 96.9648C72.6578 92.0005 64.0057 85.0326 57.0679 76.5127C53.5418 82.5875 52.4628 89.776 54.0502 96.6172C55.6376 103.458 59.7724 109.439 65.614 113.343C61.2285 113.204 56.9389 112.024 53.0999 109.901V110.243C53.096 116.618 55.3016 122.798 59.3418 127.732C63.382 132.665 69.0075 136.049 75.2619 137.307C71.1994 138.418 66.9356 138.579 62.8004 137.78C64.5653 143.263 67.9991 148.058 72.6227 151.496C77.2462 154.935 82.8288 156.846 88.5913 156.961C78.8083 164.64 66.7235 168.805 54.2832 168.785C52.077 168.782 49.873 168.647 47.683 168.381C60.321 176.483 75.0223 180.786 90.0375 180.778Z" fill="white"/>
</g>
<g clip-path="url(#clip2_1_372)">
<path d="M182.317 304.534C182.317 322.356 179.328 336.812 175.64 336.812C171.951 336.812 168.964 322.36 168.964 304.534C168.964 286.709 171.953 272.256 175.64 272.256C179.327 272.256 182.317 286.707 182.317 304.534Z" fill="white"/>
<path d="M165.279 304.534C165.279 324.43 156.779 340.565 146.293 340.565C135.808 340.565 127.308 324.43 127.308 304.534C127.308 284.638 135.807 268.503 146.292 268.503C156.778 268.503 165.278 284.633 165.278 304.534" fill="white"/>
<path d="M123.625 304.534C123.625 325.671 106.624 342.806 85.6545 342.806C64.6846 342.806 47.683 325.667 47.683 304.534C47.683 283.401 64.6833 266.261 85.6545 266.261C106.626 266.261 123.625 283.397 123.625 304.534Z" fill="white"/>
</g>
<defs>
<clipPath id="clip0_1_372">
<rect width="134.634" height="134.532" fill="white" transform="translate(47.683 417.61)"/>
</clipPath>
<clipPath id="clip1_1_372">
<rect width="134.634" height="134.532" fill="white" transform="translate(47.683 58.8578)"/>
</clipPath>
<clipPath id="clip2_1_372">
<rect width="134.634" height="134.532" fill="white" transform="translate(47.683 238.234)"/>
</clipPath>
</defs>
</svg>
