<svg width="290" height="611" viewBox="0 0 290 611" fill="none" xmlns="http://www.w3.org/2000/svg">
<g clip-path="url(#clip0_1_446)">
<rect y="22" width="60" height="89" rx="2" fill="white"/>
<path d="M13 66.5L39.25 40.9523L39.25 92.0477L13 66.5Z" fill="#0E0F26"/>
</g>
<rect x="60" width="230" height="611" rx="8" fill="#0B0C1E"/>
<g clip-path="url(#clip1_1_446)">
<path d="M221.656 440.904C213.075 436.97 203.873 434.071 194.252 432.411C194.077 432.379 193.902 432.459 193.812 432.619C192.628 434.722 191.317 437.466 190.399 439.623C180.051 438.075 169.756 438.075 159.62 439.623C158.702 437.418 157.343 434.722 156.154 432.619C156.064 432.464 155.889 432.384 155.714 432.411C146.098 434.066 136.896 436.965 128.31 440.904C128.235 440.936 128.172 440.99 128.129 441.059C110.675 467.116 105.894 492.532 108.239 517.632C108.25 517.755 108.319 517.873 108.414 517.947C119.93 526.398 131.085 531.528 142.033 534.928C142.208 534.982 142.394 534.918 142.505 534.774C145.095 531.24 147.404 527.514 149.383 523.595C149.5 523.366 149.388 523.093 149.149 523.003C145.488 521.615 142.001 519.922 138.647 518.001C138.382 517.846 138.361 517.467 138.605 517.285C139.311 516.757 140.017 516.207 140.69 515.652C140.812 515.55 140.982 515.529 141.126 515.593C163.159 525.645 187.014 525.645 208.787 515.593C208.931 515.524 209.101 515.545 209.228 515.646C209.902 516.202 210.608 516.757 211.319 517.285C211.563 517.467 211.547 517.846 211.282 518.001C207.928 519.96 204.441 521.615 200.774 522.997C200.535 523.088 200.429 523.366 200.546 523.595C202.568 527.508 204.876 531.234 207.418 534.768C207.524 534.918 207.715 534.982 207.891 534.928C218.891 531.528 230.046 526.398 241.562 517.947C241.663 517.873 241.727 517.76 241.737 517.638C244.545 488.618 237.035 463.411 221.831 441.064C221.794 440.99 221.731 440.936 221.656 440.904ZM152.673 502.349C146.04 502.349 140.574 496.263 140.574 488.789C140.574 481.315 145.934 475.23 152.673 475.23C159.466 475.23 164.879 481.369 164.773 488.789C164.773 496.263 159.413 502.349 152.673 502.349ZM197.41 502.349C190.776 502.349 185.31 496.263 185.31 488.789C185.31 481.315 190.67 475.23 197.41 475.23C204.202 475.23 209.615 481.369 209.509 488.789C209.509 496.263 204.202 502.349 197.41 502.349Z" fill="white"/>
</g>
<g clip-path="url(#clip2_1_446)">
<path d="M150.037 180.778C200.83 180.778 228.62 138.718 228.62 102.255C228.62 101.073 228.593 99.864 228.541 98.6816C233.947 94.7751 238.612 89.9364 242.317 84.3928C237.282 86.6311 231.937 88.0929 226.463 88.7283C232.227 85.2763 236.542 79.8533 238.609 73.4647C233.187 76.6754 227.258 78.9404 221.075 80.1624C216.91 75.7393 211.402 72.8108 205.403 71.8295C199.405 70.8481 193.25 71.8687 187.89 74.7334C182.53 77.598 178.264 82.1472 175.751 87.6777C173.238 93.2081 172.618 99.4117 173.988 105.329C163.009 104.779 152.269 101.929 142.463 96.9648C132.658 92.0005 124.006 85.0326 117.068 76.5127C113.542 82.5875 112.463 89.776 114.05 96.6172C115.638 103.458 119.772 109.439 125.614 113.343C121.228 113.204 116.939 112.024 113.1 109.901V110.243C113.096 116.618 115.302 122.798 119.342 127.732C123.382 132.665 129.007 136.049 135.262 137.307C131.199 138.418 126.936 138.579 122.8 137.78C124.565 143.263 127.999 148.058 132.623 151.496C137.246 154.935 142.829 156.846 148.591 156.961C138.808 164.64 126.723 168.805 114.283 168.785C112.077 168.782 109.873 168.647 107.683 168.381C120.321 176.483 135.022 180.786 150.037 180.778Z" fill="white"/>
</g>
<g clip-path="url(#clip3_1_446)">
<path d="M242.317 304.534C242.317 322.356 239.328 336.812 235.64 336.812C231.951 336.812 228.964 322.36 228.964 304.534C228.964 286.709 231.953 272.256 235.64 272.256C239.327 272.256 242.317 286.707 242.317 304.534Z" fill="white"/>
<path d="M225.279 304.534C225.279 324.43 216.779 340.565 206.293 340.565C195.808 340.565 187.308 324.43 187.308 304.534C187.308 284.638 195.807 268.503 206.292 268.503C216.778 268.503 225.278 284.633 225.278 304.534" fill="white"/>
<path d="M183.625 304.534C183.625 325.671 166.624 342.806 145.654 342.806C124.685 342.806 107.683 325.667 107.683 304.534C107.683 283.401 124.683 266.261 145.654 266.261C166.626 266.261 183.625 283.397 183.625 304.534Z" fill="white"/>
</g>
<defs>
<clipPath id="clip0_1_446">
<rect width="60" height="89" fill="white" transform="translate(0 22)"/>
</clipPath>
<clipPath id="clip1_1_446">
<rect width="134.634" height="134.532" fill="white" transform="translate(107.683 417.61)"/>
</clipPath>
<clipPath id="clip2_1_446">
<rect width="134.634" height="134.532" fill="white" transform="translate(107.683 58.8578)"/>
</clipPath>
<clipPath id="clip3_1_446">
<rect width="134.634" height="134.532" fill="white" transform="translate(107.683 238.234)"/>
</clipPath>
</defs>
</svg>
