<svg width="99" height="218" viewBox="0 0 99 218" fill="none" xmlns="http://www.w3.org/2000/svg">
<g clip-path="url(#clip0_1_361)">
<g clip-path="url(#clip1_1_361)">
<rect y="7" width="18" height="27" rx="2" fill="white"/>
<path d="M5 20.5L11.75 14.0048L11.75 26.9952L5 20.5Z" fill="#0E0F26"/>
</g>
<rect x="17" width="82" height="218" rx="8" fill="#0B0C1E"/>
<path d="M74.634 157.311C71.5747 155.907 68.294 154.873 64.8638 154.281C64.8013 154.269 64.7389 154.298 64.7067 154.355C64.2848 155.106 63.8175 156.085 63.4902 156.854C59.8008 156.302 56.1304 156.302 52.5166 156.854C52.1893 156.067 51.705 155.106 51.2811 154.355C51.249 154.3 51.1866 154.271 51.1241 154.281C47.6958 154.871 44.4151 155.906 41.3539 157.311C41.3274 157.323 41.3047 157.342 41.2896 157.366C35.0668 166.663 33.3621 175.731 34.1984 184.687C34.2021 184.731 34.2267 184.773 34.2608 184.8C38.3664 187.815 42.3434 189.645 46.2466 190.858C46.309 190.877 46.3752 190.854 46.415 190.803C47.3383 189.542 48.1613 188.213 48.867 186.815C48.9086 186.733 48.8688 186.636 48.7837 186.603C47.4783 186.108 46.2352 185.504 45.0395 184.819C44.9449 184.763 44.9373 184.628 45.0243 184.563C45.2759 184.375 45.5276 184.179 45.7679 183.98C45.8114 183.944 45.872 183.937 45.9231 183.96C53.7786 187.546 62.2831 187.546 70.0459 183.96C70.097 183.935 70.1576 183.942 70.203 183.979C70.4433 184.177 70.6949 184.375 70.9484 184.563C71.0354 184.628 71.0298 184.763 70.9352 184.819C69.7394 185.518 68.4964 186.108 67.189 186.601C67.1039 186.634 67.0661 186.733 67.1077 186.815C67.8285 188.211 68.6515 189.54 69.5578 190.801C69.5956 190.854 69.6637 190.877 69.7262 190.858C73.6483 189.645 77.6252 187.815 81.7309 184.8C81.7668 184.773 81.7895 184.733 81.7933 184.689C82.7942 174.335 80.117 165.341 74.6964 157.368C74.6832 157.342 74.6605 157.323 74.634 157.311ZM50.04 179.234C47.675 179.234 45.7263 177.063 45.7263 174.396C45.7263 171.73 47.6372 169.558 50.04 169.558C52.4617 169.558 54.3916 171.749 54.3538 174.396C54.3538 177.063 52.4428 179.234 50.04 179.234ZM65.9895 179.234C63.6245 179.234 61.6758 177.063 61.6758 174.396C61.6758 171.73 63.5867 169.558 65.9895 169.558C68.4113 169.558 70.3411 171.749 70.3033 174.396C70.3033 177.063 68.4113 179.234 65.9895 179.234Z" fill="white"/>
<g clip-path="url(#clip2_1_361)">
<path d="M49.1003 64.5001C67.2091 64.5001 77.1166 49.4935 77.1166 36.4838C77.1166 36.0619 77.1072 35.6307 77.0884 35.2088C79.0158 33.815 80.679 32.0886 82 30.1107C80.205 30.9093 78.2993 31.4309 76.3478 31.6576C78.4026 30.4259 79.9411 28.491 80.6781 26.2116C78.7451 27.3572 76.6312 28.1653 74.4269 28.6013C72.9417 27.0232 70.978 25.9783 68.8394 25.6282C66.7008 25.2781 64.5064 25.6422 62.5955 26.6643C60.6846 27.6864 59.1636 29.3095 58.2677 31.2827C57.3718 33.2559 57.1509 35.4693 57.6391 37.5807C53.725 37.3843 49.8959 36.3675 46.4 34.5963C42.9041 32.8251 39.8194 30.339 37.3459 27.2991C36.0888 29.4666 35.7041 32.0314 36.2701 34.4723C36.836 36.9132 38.3101 39.047 40.3928 40.4401C38.8293 40.3904 37.3 39.9695 35.9313 39.2119V39.3338C35.9298 41.6084 36.7162 43.8133 38.1566 45.5736C39.597 47.334 41.6026 48.5412 43.8325 48.9901C42.3841 49.3863 40.864 49.4441 39.3897 49.1588C40.0189 51.115 41.2431 52.8259 42.8915 54.0528C44.5399 55.2796 46.5302 55.9613 48.5847 56.0026C45.0968 58.7423 40.7883 60.2283 36.3531 60.2213C35.5666 60.2201 34.7808 60.1719 34 60.0769C38.5057 62.9676 43.7471 64.5029 49.1003 64.5001Z" fill="white"/>
</g>
<path d="M82 108.655C82 115.014 80.9343 120.172 79.6194 120.172C78.3044 120.172 77.2392 115.015 77.2392 108.655C77.2392 102.295 78.3049 97.1389 79.6194 97.1389C80.9338 97.1389 82 102.295 82 108.655Z" fill="white"/>
<path d="M75.9256 108.655C75.9256 115.754 72.8951 121.511 69.1568 121.511C65.4184 121.511 62.3879 115.754 62.3879 108.655C62.3879 101.557 65.418 95.7999 69.1563 95.7999C72.8946 95.7999 75.9251 101.555 75.9251 108.655" fill="white"/>
<path d="M61.0749 108.655C61.0749 116.197 55.0139 122.31 47.5377 122.31C40.0615 122.31 34 116.195 34 108.655C34 101.115 40.061 95 47.5377 95C55.0143 95 61.0749 101.114 61.0749 108.655Z" fill="white"/>
</g>
<defs>
<clipPath id="clip0_1_361">
<rect width="99" height="218" fill="white"/>
</clipPath>
<clipPath id="clip1_1_361">
<rect width="18" height="27" fill="white" transform="translate(0 7)"/>
</clipPath>
<clipPath id="clip2_1_361">
<rect width="48" height="48" fill="white" transform="translate(34 21)"/>
</clipPath>
</defs>
</svg>
