<svg width="493" height="97" viewBox="0 0 493 97" fill="none" xmlns="http://www.w3.org/2000/svg">
<g clip-path="url(#clip0_1_124)">
<path d="M36.5 96.5V32.4624L54.1775 0.5H492.5V74.4325L473.869 96.5H36.5Z" stroke="#4735E2"/>
<path d="M0 28.6026L20 0H120V74.6154L100 97H0V28.6026Z" fill="white"/>
<path d="M484 87.9333L493 77V97H476L484 87.9333Z" fill="white"/>
<path d="M162.72 63.32C167.08 63.32 170.84 61.8 173.4 58.92L170.8 56.4C168.64 58.68 166 59.76 162.92 59.76C156.6 59.76 151.92 55.2 151.92 49C151.92 42.8 156.6 38.24 162.92 38.24C166 38.24 168.64 39.28 170.8 41.56L173.4 39.04C170.84 36.16 167.08 34.68 162.76 34.68C154.24 34.68 147.92 40.72 147.92 49C147.92 57.28 154.24 63.32 162.72 63.32ZM186.728 63.24C193.088 63.24 197.728 58.72 197.728 52.4C197.728 46.08 193.088 41.6 186.728 41.6C180.368 41.6 175.688 46.08 175.688 52.4C175.688 58.72 180.368 63.24 186.728 63.24ZM186.728 59.88C182.648 59.88 179.568 56.92 179.568 52.4C179.568 47.88 182.648 44.96 186.728 44.96C190.808 44.96 193.848 47.88 193.848 52.4C193.848 56.92 190.808 59.88 186.728 59.88ZM214.358 41.6C210.998 41.6 208.278 42.84 206.718 45V41.8H203.038V63H206.878V52.08C206.878 47.48 209.518 45.04 213.598 45.04C217.238 45.04 219.318 47.08 219.318 51.24V63H223.158V50.8C223.158 44.56 219.518 41.6 214.358 41.6ZM241.585 41.6C238.225 41.6 235.505 42.84 233.945 45V41.8H230.265V63H234.105V52.08C234.105 47.48 236.745 45.04 240.825 45.04C244.465 45.04 246.545 47.08 246.545 51.24V63H250.385V50.8C250.385 44.56 246.745 41.6 241.585 41.6ZM276.652 52.52C276.652 46 272.292 41.6 266.172 41.6C260.052 41.6 255.532 46.12 255.532 52.4C255.532 58.72 260.092 63.24 266.932 63.24C270.452 63.24 273.372 62.04 275.292 59.8L273.172 57.32C271.612 59.04 269.532 59.88 267.052 59.88C262.852 59.88 259.852 57.4 259.372 53.68H276.572C276.612 53.32 276.652 52.84 276.652 52.52ZM266.172 44.84C269.892 44.84 272.572 47.36 272.972 50.92H259.372C259.772 47.32 262.492 44.84 266.172 44.84ZM291.224 63.24C295.024 63.24 298.184 61.64 299.864 58.68L296.944 56.84C295.584 58.92 293.504 59.88 291.184 59.88C287.024 59.88 283.904 57 283.904 52.4C283.904 47.88 287.024 44.96 291.184 44.96C293.504 44.96 295.584 45.92 296.944 48L299.864 46.12C298.184 43.16 295.024 41.6 291.224 41.6C284.704 41.6 280.024 46.08 280.024 52.4C280.024 58.72 284.704 63.24 291.224 63.24ZM315.829 59C315.029 59.64 313.949 60 312.829 60C310.709 60 309.509 58.72 309.509 56.44V44.96H315.589V41.8H309.509V37.16H305.669V41.8H302.069V44.96H305.669V56.6C305.669 60.88 308.109 63.24 312.389 63.24C314.109 63.24 315.869 62.76 317.029 61.76L315.829 59ZM361.013 57.88L353.293 35H349.613L341.733 57.76L334.173 35H330.053L339.413 63H343.693L351.333 40.64L358.973 63H363.173L372.533 35H368.733L361.013 57.88ZM382.985 41.6C379.585 41.6 376.425 42.56 374.225 44.32L375.825 47.2C377.465 45.8 380.025 44.92 382.545 44.92C386.345 44.92 388.225 46.8 388.225 50.04V50.8H382.145C375.825 50.8 373.625 53.6 373.625 57C373.625 60.68 376.665 63.24 381.465 63.24C384.785 63.24 387.145 62.12 388.425 60.2V63H392.065V50.2C392.065 44.4 388.785 41.6 382.985 41.6ZM382.105 60.28C379.185 60.28 377.425 58.96 377.425 56.84C377.425 55.04 378.505 53.56 382.305 53.56H388.225V56.52C387.265 58.96 384.985 60.28 382.105 60.28ZM403.011 63V33.32H399.171V63H403.011ZM414.183 63V33.32H410.343V63H414.183ZM440.675 52.52C440.675 46 436.315 41.6 430.195 41.6C424.075 41.6 419.555 46.12 419.555 52.4C419.555 58.72 424.115 63.24 430.955 63.24C434.475 63.24 437.395 62.04 439.315 59.8L437.195 57.32C435.635 59.04 433.555 59.88 431.075 59.88C426.875 59.88 423.875 57.4 423.395 53.68H440.595C440.635 53.32 440.675 52.84 440.675 52.52ZM430.195 44.84C433.915 44.84 436.595 47.36 436.995 50.92H423.395C423.795 47.32 426.515 44.84 430.195 44.84ZM456.727 59C455.927 59.64 454.847 60 453.727 60C451.607 60 450.407 58.72 450.407 56.44V44.96H456.487V41.8H450.407V37.16H446.567V41.8H442.967V44.96H446.567V56.6C446.567 60.88 449.007 63.24 453.287 63.24C455.007 63.24 456.767 62.76 457.927 61.76L456.727 59Z" fill="white"/>
<path fill-rule="evenodd" clip-rule="evenodd" d="M40 38C40 32.4772 44.4772 28 50 28H70C75.5228 28 80 32.4772 80 38V58C80 63.5228 75.5228 68 70 68H50C44.4772 68 40 63.5228 40 58V38ZM50 32C46.6863 32 44 34.6863 44 38V58C44 61.3137 46.6863 64 50 64H70C73.3137 64 76 61.3137 76 58V38C76 34.6863 73.3137 32 70 32H50Z" fill="#0E0F26"/>
<path fill-rule="evenodd" clip-rule="evenodd" d="M58 48C58 43.5817 61.5817 40 66 40H76C78.2091 40 80 41.7909 80 44V52C80 54.2091 78.2091 56 76 56H66C61.5817 56 58 52.4183 58 48ZM66 44C63.7909 44 62 45.7909 62 48C62 50.2091 63.7909 52 66 52H76V44H66Z" fill="#0E0F26"/>
<path fill-rule="evenodd" clip-rule="evenodd" d="M64 48C64 46.8954 64.8954 46 66 46L66.2 46C67.3046 46 68.2 46.8954 68.2 48C68.2 49.1046 67.3046 50 66.2 50L66 50C64.8954 50 64 49.1046 64 48Z" fill="#0E0F26"/>
</g>
<defs>
<clipPath id="clip0_1_124">
<rect width="493" height="97" fill="white"/>
</clipPath>
</defs>
</svg>
