<svg width="194" height="65" viewBox="0 0 194 65" fill="none" xmlns="http://www.w3.org/2000/svg">
<g clip-path="url(#clip0_802_1988)">
<path d="M16.8704 5.80726C17.85 2.37035 20.9903 0 24.564 0H185.401C190.714 0 194.551 5.08335 193.095 10.1927L179.13 59.1927C178.15 62.6297 175.01 65 171.436 65H0L16.8704 5.80726Z" fill="white"/>
<path d="M6.43679 54.5804C7.21944 52.0368 10.2215 50.9525 12.4489 52.4089L21 58C23.1069 59.2642 22.2106 62.5 19.7536 62.5H4L6.43679 54.5804Z" fill="#4735E2"/>
<path d="M62.704 31.448H71.344V33.488H62.704V31.448ZM62.92 38.912H72.712V41H60.52V24.2H72.376V26.288H62.92V38.912ZM83.0541 28.16C84.0941 28.16 85.0061 28.36 85.7901 28.76C86.5901 29.16 87.2141 29.768 87.6621 30.584C88.1101 31.4 88.3341 32.432 88.3341 33.68V41H86.0301V33.944C86.0301 32.712 85.7261 31.784 85.1181 31.16C84.5261 30.536 83.6861 30.224 82.5981 30.224C81.7821 30.224 81.0701 30.384 80.4621 30.704C79.8541 31.024 79.3821 31.496 79.0461 32.12C78.7261 32.744 78.5661 33.52 78.5661 34.448V41H76.2621V28.28H78.4701V31.712L78.1101 30.8C78.5261 29.968 79.1661 29.32 80.0301 28.856C80.8941 28.392 81.9021 28.16 83.0541 28.16ZM96.9661 41.144C95.6861 41.144 94.6941 40.8 93.9901 40.112C93.2861 39.424 92.9341 38.44 92.9341 37.16V25.496H95.2381V37.064C95.2381 37.752 95.4061 38.28 95.7421 38.648C96.0941 39.016 96.5901 39.2 97.2301 39.2C97.9501 39.2 98.5501 39 99.0301 38.6L99.7501 40.256C99.3981 40.56 98.9741 40.784 98.4781 40.928C97.9981 41.072 97.4941 41.144 96.9661 41.144ZM90.7741 30.176V28.28H98.8861V30.176H90.7741ZM107.778 41.144C106.418 41.144 105.218 40.864 104.178 40.304C103.154 39.744 102.354 38.976 101.778 38C101.218 37.024 100.938 35.904 100.938 34.64C100.938 33.376 101.21 32.256 101.754 31.28C102.314 30.304 103.074 29.544 104.034 29C105.01 28.44 106.106 28.16 107.322 28.16C108.554 28.16 109.642 28.432 110.586 28.976C111.53 29.52 112.266 30.288 112.794 31.28C113.338 32.256 113.61 33.4 113.61 34.712C113.61 34.808 113.602 34.92 113.586 35.048C113.586 35.176 113.578 35.296 113.562 35.408H102.738V33.752H112.362L111.426 34.328C111.442 33.512 111.274 32.784 110.922 32.144C110.57 31.504 110.082 31.008 109.458 30.656C108.85 30.288 108.138 30.104 107.322 30.104C106.522 30.104 105.81 30.288 105.186 30.656C104.562 31.008 104.074 31.512 103.722 32.168C103.37 32.808 103.194 33.544 103.194 34.376V34.76C103.194 35.608 103.386 36.368 103.77 37.04C104.17 37.696 104.722 38.208 105.426 38.576C106.13 38.944 106.938 39.128 107.85 39.128C108.602 39.128 109.282 39 109.89 38.744C110.514 38.488 111.058 38.104 111.522 37.592L112.794 39.08C112.218 39.752 111.498 40.264 110.634 40.616C109.786 40.968 108.834 41.144 107.778 41.144ZM116.809 41V28.28H119.017V31.736L118.801 30.872C119.153 29.992 119.745 29.32 120.577 28.856C121.409 28.392 122.433 28.16 123.649 28.16V30.392C123.553 30.376 123.457 30.368 123.361 30.368C123.281 30.368 123.201 30.368 123.121 30.368C121.889 30.368 120.913 30.736 120.193 31.472C119.473 32.208 119.113 33.272 119.113 34.664V41H116.809Z" fill="black"/>
</g>
<defs>
<clipPath id="clip0_802_1988">
<rect width="194" height="65" fill="white"/>
</clipPath>
</defs>
</svg>
