<svg width="196" height="65" viewBox="0 0 196 65" fill="none" xmlns="http://www.w3.org/2000/svg">
<g clip-path="url(#clip0_805_3599)">
<path d="M16.8704 5.80726C17.85 2.37035 20.9903 0 24.564 0H185.401C190.714 0 194.551 5.08335 193.095 10.1927L179.13 59.1927C178.15 62.6297 175.01 65 171.436 65H0L16.8704 5.80726Z" fill="white"/>
<path d="M6.43679 54.5804C7.21944 52.0368 10.2215 50.9525 12.4489 52.4089L21 58V58C23.1069 59.2642 22.2106 62.5 19.7536 62.5H4L6.43679 54.5804Z" fill="#4735E2"/>
<path d="M46.68 41.192C50.112 41.192 51.936 39.344 51.936 35.6V24.2H43.488V26.288H49.56V35.72C49.56 37.976 48.576 39.128 46.68 39.128C45.264 39.128 44.088 38.432 43.176 37.136L41.784 38.768C42.864 40.328 44.688 41.192 46.68 41.192ZM61.9367 41.144C65.7527 41.144 68.5367 38.432 68.5367 34.64C68.5367 30.848 65.7527 28.16 61.9367 28.16C58.1207 28.16 55.3127 30.848 55.3127 34.64C55.3127 38.432 58.1207 41.144 61.9367 41.144ZM61.9367 39.128C59.4887 39.128 57.6407 37.352 57.6407 34.64C57.6407 31.928 59.4887 30.176 61.9367 30.176C64.3847 30.176 66.2087 31.928 66.2087 34.64C66.2087 37.352 64.3847 39.128 61.9367 39.128ZM72.8751 25.832C73.7871 25.832 74.4351 25.16 74.4351 24.296C74.4351 23.48 73.7631 22.832 72.8751 22.832C71.9871 22.832 71.3151 23.504 71.3151 24.344C71.3151 25.184 71.9871 25.832 72.8751 25.832ZM74.0271 41V28.28H71.7231V41H74.0271ZM85.2182 28.16C83.2022 28.16 81.5702 28.904 80.6342 30.2V28.28H78.4262V41H80.7302V34.448C80.7302 31.688 82.3142 30.224 84.7622 30.224C86.9462 30.224 88.1942 31.448 88.1942 33.944V41H90.4982V33.68C90.4982 29.936 88.3142 28.16 85.2182 28.16ZM113.591 36.728L103.511 24.2H101.543V41H103.943V28.472L114.023 41H115.991V24.2H113.591V36.728ZM126.132 41.144C129.948 41.144 132.732 38.432 132.732 34.64C132.732 30.848 129.948 28.16 126.132 28.16C122.316 28.16 119.508 30.848 119.508 34.64C119.508 38.432 122.316 41.144 126.132 41.144ZM126.132 39.128C123.684 39.128 121.836 37.352 121.836 34.64C121.836 31.928 123.684 30.176 126.132 30.176C128.58 30.176 130.404 31.928 130.404 34.64C130.404 37.352 128.58 39.128 126.132 39.128ZM148.959 38.456L145.191 28.28H143.247L139.407 38.408L135.711 28.28H133.527L138.255 41H140.463L144.183 31.352L147.855 41H150.063L154.815 28.28H152.751L148.959 38.456Z" fill="black"/>
</g>
<defs>
<clipPath id="clip0_805_3599">
<rect width="196" height="65" fill="white"/>
</clipPath>
</defs>
</svg>
