<svg width="232" height="232" viewBox="0 0 232 232" fill="none" xmlns="http://www.w3.org/2000/svg">
<path d="M232 114.334C232 145.068 226.849 169.998 220.494 169.998C214.138 169.998 208.989 145.074 208.989 114.334C208.989 83.5943 214.14 58.6713 220.494 58.6713C226.847 58.6713 232 83.5921 232 114.334Z" fill="white"/>
<path d="M202.64 114.334C202.64 148.645 187.993 176.469 169.924 176.469C151.856 176.469 137.208 148.645 137.208 114.334C137.208 80.0244 151.854 52.1995 169.922 52.1995C187.991 52.1995 202.638 80.0155 202.638 114.334" fill="white"/>
<path d="M130.862 114.334C130.862 150.785 101.567 180.333 65.4321 180.333C29.2971 180.333 0 150.778 0 114.334C0 77.8909 29.2948 48.3333 65.4321 48.3333C101.569 48.3333 130.862 77.8842 130.862 114.334Z" fill="white"/>
</svg>
