<svg width="232" height="189" viewBox="0 0 232 189" fill="none" xmlns="http://www.w3.org/2000/svg">
<path d="M72.9848 188.507C160.51 188.507 208.397 115.975 208.397 53.0951C208.397 51.056 208.351 48.9716 208.261 46.9326C217.576 40.1959 225.615 31.8515 232 22.2916C223.324 26.1515 214.113 28.6724 204.681 29.7682C214.612 23.8152 222.048 14.4633 225.611 3.44616C216.268 8.98314 206.051 12.889 195.397 14.9963C188.218 7.36883 178.727 2.31854 168.39 0.62624C158.054 -1.06606 147.448 0.693901 138.212 5.63401C128.975 10.5741 121.624 18.4192 117.294 27.9564C112.964 37.4936 111.896 48.1917 114.255 58.3966C95.3374 57.4473 76.8301 52.5329 59.9332 43.972C43.0363 35.4112 28.127 23.395 16.172 8.70241C10.0959 19.1784 8.23655 31.575 10.972 43.3726C13.7074 55.1703 20.8323 65.4837 30.8986 72.2169C23.3414 71.977 15.9498 69.9423 9.33438 66.281V66.8701C9.3276 77.8639 13.1283 88.5207 20.0903 97.0292C27.0524 105.538 36.7461 111.372 47.5238 113.542C40.5232 115.457 33.1758 115.736 26.0502 114.358C29.0914 123.812 35.0085 132.082 42.9758 138.012C50.943 143.942 60.5628 147.236 70.4927 147.436C53.6348 160.678 32.8104 167.86 11.3734 167.826C7.57178 167.82 3.77386 167.587 0 167.128C21.7776 181.1 47.1108 188.52 72.9848 188.507Z" fill="white"/>
</svg>
